<?xml version="1.0" encoding="UTF-8"?>
<svg id="Layer_1" xmlns="http://www.w3.org/2000/svg" xmlns:inkscape="http://www.inkscape.org/namespaces/inkscape" xmlns:cc="http://creativecommons.org/ns#" baseProfile="tiny" version="1.2" viewBox="0 0 600 360">
  <!-- Generator: Adobe Illustrator 29.6.1, SVG Export Plug-In . SVG Version: 2.1.1 Build 9)  -->
  <defs>
    <style>
      .st0 {
        fill-opacity: 0;
      }

      .st0, .st1, .st2 {
        display: none;
      }

      .st3 {
        fill: #dfb600;
      }

      .st1 {
        fill: #b7484b;
        stroke: #232323;
        stroke-width: .24px;
      }

      .st1, .st4 {
        fill-rule: evenodd;
        stroke-linecap: square;
        stroke-linejoin: bevel;
      }

      .st5, .st6, .st2 {
        fill: #ffd000;
      }

      .st7 {
        font-size: 15px;
      }

      .st7, .st2 {
        font-family: Raleway-Regular, Raleway;
      }

      .st4 {
        fill: #850000;
        stroke: #ffd000;
        stroke-width: 3px;
      }

      .st6 {
        font-family: NinjaKageDemo-Regular, 'Ninja Kage Demo';
        font-size: 28px;
      }

      .st6, .st2 {
        isolation: isolate;
      }

      .st2 {
        font-size: 8.88px;
      }
    </style>
  </defs>
  <path class="st4" d="M386.37,297.43l-.03.02v.04s-.11.02-.11.02l-.08.05-.03.09h-.12l-.03-.03h0s-.02-.03-.02-.03h0s-.16-.08-.16-.08l-.18-.07h-.11s-.03-.03-.03-.03h-.13l-.06-.04-.03.09-.08.04-.03.12v.1s-.01.09-.01.09h-.11s-.1.03-.1.03h-.09s-.02,0-.02,0l-.03.02v.07s-.18.23-.18.23l-.08-.19-.06-.05-.06-.15v-.16s.13-.02.13-.02l.11-.06-.13-.15-.34-.24-.09-.09-.11-.14-.09-.16-.13-.25-.05-.29-.19-.1-.08-.58-.06-.17-.13-.07-.3-.02-.12.02-.04.03-.04.06-.06.04h-.12l-.18-.11.03-.17.06-.2-.07-.2-.11-.14-.1-.18-.14-.35-.06.13v.13s.02.13.02.13l.04.11-.11-.1-.03-.18.02-.2.05-.16-.07.06-.05.07-.02.08-.03-.08.18-.42.05-.21.02-.22.05-.18.13-.33h-.07l-.13.25-.04.12-.03.3-.07.3-.05.12-.02-.11v-.14l.03-.15.06-.12v-.13s0-.13,0-.13l.11-.31-.17.24-.12.52-.1.14.06-.17.02-.2v-.4s-.18.23-.18.23l-.1.09h-.11s-.09-.08-.09-.08l-.04-.14v-.25s.07-.23.07-.23l.19-.2.24-.13.51-.1.51-.22.26-.05.1.04.12.07.13.04.24-.09.15.03.27.1-.16-.12-.14-.04-.34-.03-.15-.05-.24-.12-.15-.02-.27.07-.44.3-.31.07-.05.04-.34.17h-.08s-.05.12-.05.12l-.12.08-.14.04h-.14s-.46-.25-.46-.25l-.26-.07-.18.13.19.17.3.03.28.1.2.29v.29s-.1.33-.1.33l-.1.17.03.06v.05s-.1.06-.1.06h-.06s-.2-.1-.2-.1l-.15-.03-.87.31-.27.03-.88-.17v.07l.2.05.22.02.05.03.18.13.09.03.19-.04.18-.06.17-.02.16.08.54.6.13.11.5.27-.29.12-.11.07-.12.15-.12-.09-.45-.17.16.18.54.21.12.09.09.16.37.26.34.31.1.22.33.36-.04.48-.3.4-.15.4.05.39.06.14.22.09h.27s-.1.19-.1.19l-.02.08v.15s-.05.09-.05.09l-.09.06-.09.08v.15s.03.17.03.17l.06.03.06.09-.02.14-.25.04-.08.14-.13-.02-.14.08.06.09h0s-.02.03-.02.03l-.06.08-.23.18-.12.15-.23-.03-.31-.26-.06-.21-.07-.16-.44-.39-.02-.07-.02-.17-.03-.08-.05-.06-.45-.33-.25-.26-.19-.3-.12-.5-.1-.2-.51-.79-.11-.11-.06.64.02.18.05.08.22.15.35.35.71,1.07.14.19.1.19.24.23.1.12.35.47-.37.08h-.11l-.24-.12-.12-.02-.1.02-.05.06-.03.08-.08.13-.03.07-.04.05-.04.02h-.1s-.12.21-.12.21l-.04.12.09.19v.11s-.04.1-.04.1l-.04.06-.15.1-.15-.02h-.18s-.15.04-.15.04l-.19.15-.17-.11-.19-.27-.08-.31.04-.13.09-.17-.06-.12.09-.16-.08-.1-.06-.14-.03-.16v-.14s-.24.11-.24.11l-.07.56-.18.24-.29-.21-.06.16v.23s-.03.18-.03.18v.23s0,.21,0,.21v.13l.04.17v.17s-.04.07-.04.07l.02.05.07.1-.03.11-.08.06-.14.03h-.06s-.05.01-.05.01l-.02.08v.07s-.06.12-.06.12v.06s-.08.08-.08.08l-.15.15-.26.1-.16.08-.3-.18-.08-.17-.11-.36-.07-.15-.1-.12-.14-.05-.1.04-.07.08-.07.05-.11-.04-.42.18-.03.06-.02.27-.06.06h-.23s-.05,0-.05,0l-.04.04-.05.1-.05.05-.37.19.02.25-.13.25-.23.19-.27.08-.26-.06-1-.52-.16-.16-.1-.22-.04-.3.12-.15.53-.25.11-.2h-.07l-.16.1-.3.1-.29.02-.13-.12-.02-.07-.09-.13-.02-.09v-.07s.05-.11.05-.11l.1-.46.04-.11-.18.09-.12.22-.07.27v.24s.12.38.12.38l.16.28.03.07-.03.23v.13s.06.06.06.06l.04.05.03.12.03.24-.02.09-.09.15-.05.27-.06.07-.08.06-.09.09-.29.09-.43.14-.39.02-.17-.22-.09-.06-.18-.06-.13-.1.06-.17.09-.15.04-.19-.02-.18-.08-.15-.1.19-.09.08-.81.17h-.36s-.18-.01-.18-.01l-.14-.07-.06-.13.06-.15.23-.26.04-.2h-.06l-.14.23-.24.24-.22.09-.16-.38-.16-.24-.21-.22-.2-.11v.24s0,.3,0,.3l.05.28.08.2.15.14.24.13.27.09.24.02-.08.1-.72.42-.08.03v.06s-.01.06-.01.06l-.03.03-.05.02-.11.12-.07.04h-.08s-.27,0-.27,0l-.02-.07.05-.13.11-.08.15.08h.06v-.1s-.07-.07-.07-.07l-.08-.04-.1-.04-.12.08-.06-.11v-.19s.05-.16.05-.16l-.12.14-.14.08h-.12s-.06-.16-.06-.16l-.17.06h-.11s-.3-.12-.3-.12l-.04.04-.19-.05-.21-.12.16.18.6.33.11.19.07.28-.06.24-.25.06.12.03.11.05.09.07.05.11h-.37s-.18,0-.18,0l-.14-.07-.21.18-.23.42-.13.17-.1.07-.09.03-.1-.03-.12-.11-.05-.09-.04-.11-.05-.1-.09-.06v.13s0,.12,0,.12l.04.11.08.09-.17.04-.2.07-.17.02-.1-.12h-.06l-.04.09-.11.06-.14.03h-.12s-.07-.03-.07-.03v-.1s.04-.24.04-.24l-.16.03-.1-.12-.11-.37-.07.12-.11.13v.07s.03.1.03.1l.14.13.06.09-.47-.07h-.23s-.12.14-.12.14l.12-.05h.12s.26.05.26.05l-.1.06-.29.12-.06.05-.11.13-.48.34-.24.11-.13-.05.15-.07.11-.12.19-.32-.2-.06-.23-.1-.22-.07-.18.04-.06-.11h-.13s-.32.11-.32.11v.06h.13l-.04.05-.03.02.06.06.12-.06.14-.02.14.02.12.06-.39.13-.21.09-.17.1-.09-.05-.13-.02h-.3s0-.06,0-.06l.39-.12v-.06l-.03-.03-.03-.04-.07.06-.08.05-.09.03h-.09s-.08-.05-.08-.05v-.05s0-.05,0-.05l-.04-.05-.38-.17-.06-.09-.04.12-.11.06-.24.07.09.06.06.17.11.04-.12.21-.08.07-.12.03v.07h.15s.12-.05.12-.05l.08-.08.03-.1.06-.09.14-.05h.15s.09.11.09.11l-.23.03-.18.12-.3.3-.25-.07-.23.1-.22.15-.22.08-.03.02-.12.09-.07.03h0s-.16-.06-.16-.06l-.21-.03-.22-.09-.15-.02-.21.06-.23.14-.36.32-.14.16-.13.2-.11.22-.07.24h-.06l.04-.5.07-.21.14-.11h-.12s-.08.06-.08.06l-.06.09-.05.11v-.14s-.07-.09-.07-.09l-.04-.08.04-.14.08-.04.25-.06.19-.17.3-.04.29-.09.1-.29h-.06l-.3.24-.85.35-.18.33v.41s.03.1.03.1l.22.35-.06.21h-.18s-.39-.15-.39-.15l.02.06.03.05.04.05.04.04-1,.08-.17.05-.15.08-.15.11h-.06l.03-.13.08-.19.02-.12-.04-.11-.06-.09v-.07s.1-.04.1-.04v-.06s-.04-.03-.04-.03l-.04-.02-.05-.02h.03s.02,0,.02,0h.01s0-.05,0-.05h.06l.08.04.1.02.09.04.06.09h.06v-.08s.03-.05.03-.05l.04-.07v-.07h-.07l-.05.06h-.07s-.08-.04-.08-.04l-.11-.02v-.06l.39-.2v-.06h-.08s-.05,0-.05,0l-.04.03-.03.03v-.18l-.13.15-.09.17-.07.05-.09-.18v-.12s.12-.52.12-.52h-.06l-.11.19-.17-.09-.3-.35.09-.12.04-.04.06-.03v-.07l-.29.15.13.3.21.36-.05.33-.03-.03-.09-.04.06.13-.14-.03-.22-.12-.16-.03v.06l.12.05.14.1.09.12-.03.11v.06l.1.07.1.09.08.1.03.1.02.04.09.07.02.05v.08s-.03.06-.03.06l-.03.05v.03s-.02.14-.02.14l-.03.16-.05.13-.07.06-.1.04-.26.18-.13.16-.17.08-.32.11-.1.06-.44.53-.03.05-.08-.06-.04-.14-.02-.16v-.14s-.08.1-.08.1l-.05.12-.06.24-.06.13-.19.32-.13-.06v.06l.11.08v.14s-.04.18-.04.18l-.02.18.05.16.16.27.05.13-.09-.1-.03-.03h-.07l.04.08v.05s0,.05,0,.05l-.04.07h.04s.02,0,.02,0h0s0,.05,0,.05h.04s0-.02,0-.02v-.02s0-.03,0-.03h.06s.02.03.02.03h.03l.07-.03v.12l.19-.04h.7s.13-.11.13-.11l.18-.07h.15s.06.17.06.17l.06-.06.06.09.06.03.04-.02.03-.1.16.21.15.33.06.36-.12.3-.12.05-.13-.06-.12-.12-.07-.13v-.14s0-.38,0-.38l-.06-.17-.07.15-.05.06-.07.05.11.14v.1s-.1.07-.1.07l-.14.06.06.06h-.04s-.02.01-.02.01h0s0,.06,0,.06l.28.12-.07.17-.19.22-.07.25.06-.03.05-.04.04-.05.03-.06h.06v.12s0,.11,0,.11l-.04.09-.09.06.11.06h.12s.12-.06.12-.06l.1-.06v.2l.08-.11h.08s.08.08.08.08l.07.09-.05.09.05.11.1.09.15.05.17.09.08.03h.06s.14,0,.14,0h.06s.15.14.15.14l.15.24.21.46-.18.41-.12.2-.18.09-.07.05-.16.33-.48.53-.06.04-.22-.04h-.14s-.06.07-.06.07l-.1.17-.23.09-.24.06-.13.09-.14-.11-.09-.05-.1-.04h-.08s-.27,0-.27,0l-.11.03-.04.06v.06s-.05.03-.05.03l-.56.05-.17-.05-.15-.16-.07-.03h-.07s-.07-.04-.07-.04l-.06-.05-.02-.07-.03-.06-.08-.04h-.1s-.1,0-.1,0l-.05.04-.09.12-.05.03h-.05s-.05-.02-.05-.02l-.03-.02h0s-.25.04-.25.04l-.14.08-.06.15-.03.04-.07.07-.08.06h-.07s-.03-.1-.03-.1l.03-.11.04-.09.02-.03.04-.2.02-.22-.02-.08-.09-.15-.02-.09-.29-.13-.11-.09.15-.06-.25-.22.03-.03h.12s.08-.04.08-.04l.06-.06.02-.1h.07l.11.12.29.21.12.12.16.26.07.03.03-.19.06-.12.13-.15.09-.16-.05-.15-.24-.18-.11-.11-.07-.13-.02.06-.02.06-.02.06v.08s-.14-.09-.14-.09l-.04-.12-.02-.15-.06-.15v.32s-.04.15-.04.15l-.09.09-.02-.11-.05-.13-.06-.12-.06-.08-.12-.05-.31-.03-.13-.05-.07-.05-.05-.05-.02-.06v-.1s.06-.08.06-.08l.06-.02h.05s.04-.02.04-.02l.02-.09v-.22s.04-.13.04-.13h-.06l-.13.38h-.06l-.02-.32-.16-.25-.24-.14h-.28s.06-.13.06-.13v-.14s0-.12,0-.12l.13-.1.09-.02.04.02.05.04.11.02.08-.02.06-.05.14-.12.03.04.06.04.04.05.03-.05.04-.06.05-.05.04-.02.03-.04v-.07s-.07-.04-.07-.04l-.24.11h-.14s-.12.01-.12.01l-.07.14h-.06l-.25-.36-.04-.18.16-.16-.09-.09-.05-.15.02-.14.12-.06v-.07l-.2-.19v-.06h.07v-.06l-.06-.08-.07-.04-.07.02-.06.1.07.44-.1-.07-.13-.17-.09-.08.02.1.1.22-.26-.26-.22-.42-.04-.43.28-.29-.11-.14v-.19s.17-.43.17-.43l.03.02.07.03.03.02-.02-.22-.09-.24-.13-.22-.14-.15.06-.14.18-.3.08-.08.15-.05.07.05.07.08.15.05-.05-.14.08-.12.11-.11.06-.1-.03-.52-.04-.09v-.06l.07-.11v-.18s-.07-.35-.07-.35l.1.02.07.05.03.08v.1s.12-.04.12-.04l.03-.08v-.08s.04-.06.04-.06h.08s.24,0,.24,0l.77-.06v-.07l-.18-.19.12-.22.21-.22.1-.2-.17.04-.08-.11.03-.14.16-.06v-.07l-.24.04-.29.07h-.26s-.16-.24-.16-.24l-.13.13v.07h.07v.05l-.08.09-.03.05-.02.06h-.06l-.11-.14-.04-.24v-.52s-.15.08-.15.08l-.12-.05-.05-.11.07-.11v-.06l-.23.06h0s0,.28,0,.28l.12.31.12.17v.07h-.07v-.07h-.06l-.17.18-.3-.08-.55-.35.1-.07.08-.3.08-.14-.03-.07v-.13s-.03-.06-.03-.06l.03-.03.03-.03v-.05s0-.08,0-.08l-.17.08-.2.12-.11.15.1.16h-.06s-.06,0-.06,0l-.06-.03-.07-.04v-.06l.05-.07v-.11s-.02-.1-.02-.1l-.05-.04-.02-.04.12-.27-.19.15-.09.03-.04-.09v-.1s-.05-.08-.05-.08l-.06-.07-.08-.05.03-.18.03-.07-.06-.08.07-.12.13-.12.12-.07v-.06l-.1.02h-.08s-.05-.06-.05-.06l-.02-.09-.7.57.05.03.03.03.02.03.03.03h-.03s-.06,0-.06,0h-.03v.06l.06-.02.13-.02.06-.02v.18s-.13.07-.13.07h-.2s-.18-.06-.18-.06v.06l.6.2.1.08.02.07.28.35-.02.05-.06.03-.04.04v.29s0,.09,0,.09l-.04.05-.13.12-.03.05-.09.11-.42.16-.13.08-.05-.08v-.07s0-.07,0-.07l.04-.08-.08.06-.09.1-.07.11-.03.07-.06.06-.13.02h-.75s-.08-.05-.08-.05l-.13-.2-.05.2-.15.15-.2.06-.18-.07-.05.04-.03.02-.02.02-.02.04h-.06l-.02-.25.02-.25-.11.12-.07.22-.05.3h-.4l-.14-.06-.07-.14-.05.1v.09s.04.07.04.07l.07.06-.17.02-.39-.22-.18-.06-.25-.05-.1-.12.04-.15.15-.13.21-.06.25-.03.21-.06.09-.13v-.4s-.06-.46-.06-.46h-.06l-.04.11h-.08s-.08-.06-.08-.06l-.06-.11h-.06l-.07.09-.09.02-.07-.05-.03-.13h-.06l-.03.04-.09.08.03-.1.05-.07.11-.13v-.07l-.17.06-.32.2-.2.06-.21.03h-.1s-.13-.03-.13-.03l-.16-.05-.07-.06-.13-.27-.05-.13-.04-.06h-.06s-.15.01-.15.01h-.06s-.11-.12-.11-.12h-.02v-.1l.05-.03.06-.02.03-.05-.05-.24h-.03s.04-.07.04-.07h.02s.02-.02.02-.02l.06-.04.09-.04.29-.03.06-.08v-.04s-.05.02-.05.02h-.12s-.06.04-.06.04l.05-.13-.09.03-.07.04-.05.06-.05.07h-.06l-.07-.06v-.06l.05-.07.08-.25h-.06l-.1.13-.03.06-.05-.1v-.08s.05-.07.05-.07l.06-.07-.19.03-.37-.06-.2.03.09.04.3.09-.04.04v.03s-.01.04-.01.04l-.02.07.17-.02.09.15v.22s-.07.18-.07.18l-.06.05-.06.05h-.05s-.02-.14-.02-.14v-.11s-.02-.11-.02-.11l-.06-.06-.12.04.05.05.02.03v.11s-.04-.03-.04-.03h-.01s-.02-.01-.02-.01l-.06-.02.06.06-.03.04h-.03s-.03.02-.03.02h-.03s.19.01.19.01v.06h-.06v.06l.22.12.16.13.04.17-.16.23.2-.02h.09s.09.02.09.02l-.11.17-.15-.02-.17-.09-.18-.06-.08.02-.05.06-.04.06-.05.05-.09.03h-.16s-.07.04-.07.04l.06.12-.11-.09-.02-.16-.04-.14-.15-.05v-.07l.2-.05.07.02.05.09h.06v-.39l-.08.07-.02.04v.08h-.08l-.18-.16.03-.19.09-.19v-.16s-.06.03-.06.03l-.06-.03-.1.22-.06.1-.1.06-.08-.09-.19-.07-.05-.09h.17s.15-.06.15-.06v-.06l-.17-.05-.12.02h-.06s.03-.16.03-.16l.06-.11.09-.08.08-.1.04-.16h-.07l-.03.05-.06.08-.04.06-.06-.18v-.07h-.07v.12s0,.12,0,.12l-.02.11-.04.1h-.06l-.05-.09v-.04h-.08l.09.19.04.11v.09s-.32.06-.32.06v-.13s.03-.11.03-.11l.09-.2-.25.06-.1-.12.02-.17.12-.09.15-.08.2-.38.12-.12v-.06l-.12-.06-.26-.2v.06s-.02.04-.02.04l-.02.04-.02.05-.04-.03h-.04s-.12-.04-.12-.04l.03.03h.03s.03.02.03.02h.04s-.1.06-.1.06l-.09-.02-.06-.08v-.13s.04-.06.04-.06l.08-.04.06-.07v-.15h-.06v.03s0,.06,0,.06v.03h-.07v-.04s-.06-.08-.06-.08l-.02.15-.05.11-.07.09-.11.09-.04-.02-.15-.04v.06l.05.03.02.03.02.03.03.04-.16.04-.16.08-.06.1.12.09-.26-.06-.02-.22.16-.54-.07.04-.05.06-.04.07-.02.09v.27s-.09.21-.09.21l.06.16.13.15.14.1h-.03s-.1,0-.1,0v.04s.03.03.03.03l.02.03v.04s.11-.06.11-.06l.08.05.06.11.02.09-.03.11-.06.08-.04.1v.16l-.09-.03h-.06s-.05,0-.05,0l-.06.03.11.03.11.05.1.06.07.06v.06h-.13v.04s.02.03.02.03h0s.02,0,.02,0h-.01s-.02,0-.02,0h-.15v.06h.08s.09.05.09.05h.08v.07l-.03.04h0,.01s.03.08.03.08l.07-.27.07-.12.12-.06-.02.08-.04.04-.04.03-.03.04v.09s.02.08.02.08l-.02.08.05-.04.04-.02.03-.02.02-.05h.04s.01,0,.01,0v.06s.03-.05.03-.05l.1-.14h.06l.05.18-.08.06-.11.05-.06.15.09-.06h.04s-.06.12-.06.12l-.1.05h-.12s-.11-.06-.11-.06v.07h.05s.03.03.03.03l.04.02h.07s-.02.1-.02.1l-.03.06-.06.03h-.08s.04.11.04.11l.02.03-.26.11-.09.02v-.06s0-.11,0-.11l.07-.08.15.04v-.06l-.13-.13-.12.16-.06.05-.08.05.06.08v.05s-.03.03-.03.03l-.08.02v.06h.03s.09,0,.09,0v.06l-.48.05-.17-.03-.12-.14v-.19s.16-.05.16-.05l.13.06-.04.12h.14s.06-.11.06-.11l.05-.27h-.06l-.05.05h-.05s-.05,0-.05,0l-.06-.04v-.06l.05-.04.06-.04.07-.03h.08s-.02-.09-.02-.09l.06-.06.11-.04.11-.02v-.06l-.44.08h-.13s.13-.15.13-.15l.03-.08-.03-.1-.03.05-.07.08-.04.06v-.05h-.02l-.03-.02-.05.11h-.11l-.45-.23-.02-.09.05-.18-.18.15-.09.26v.28s.15.2.15.2h-.2l.04.1.03.04-.07.03-.05.05-.04.07-.03.09h.14s.05,0,.05,0v.07l-.06.04-.17.13-.03.06-.02.12-.06.04h-.08s-.1.06-.1.06l-.3.24-.14.07v-.12s.08-.15.08-.15l.24-.33.06-.16v-.06s0-.06,0-.06l-.03-.07-.07-.09-.14-.12v-.06s.11-.11.11-.11l-.2.08-.06.05v-.03s0-.1,0-.1h-.04s-.05.05-.05.05l-.03.02.07.05.04.06v.07l-.04.06v.06h.06l-.32.25-.17.04-.21-.1-.06.06.04.09-.04.02-.07-.03-.06-.08-.08.15h-.12s-.13-.04-.13-.04h-.12s.1.16.1.16l-.06.08h-.13s-.23-.14-.23-.14l-.14-.03h-.14s-.1.06-.1.06l.34.23.11.03h-.19s-.07.13-.07.13l.02.13.08.06.13-.02.11-.05.12-.03.18.03v.07l-.35.04-.25.11-.43.36h-.06v-.15s.08-.12.08-.12l.17-.18v-.05l-1.26-1.07-.22-.36-.51-.15h-.31s-.51.29-.51.29l-.72.18-.74-.03-.22.25-.46-.14-.04-.33-.29-.19-.72.49-.14-.12-.28-.71-.28-.28-.56.12-.37-.09-.99-.75-.59-.14-.15-.32.31-.44-.11-.33-.36-.08-.47.18-.52-.48-.78-.06-.49-.31-.5.43h-.15s-.1-.31-.1-.31l.22-.9-.3-.92.22-.3-.27-.8-.85-.33-.08-.54-.06-.32.47-1.46.28-.14.36.38.31-.1.62-1.54.42-.26-.02-.23h-.55s-.59-.66-.59-.66l-.53.14-.27-.39-.87-.28-.28.34-1.32.33h-.56s-.26-.2-.26-.2l-.23-.66-.65-.26h-1.24s-.35.4-.35.4l-.79.04-.21.22-.92-.94-.6-.36-1.29-.15-.15-.36-.13-.6-.44-.29-.45-.73-.62-.17-.44-.69h-.17s-.54.43-.54.43l-.33.61-.42-.12-.88.32-1.17.73-.38-.15-.23.06-.08.41-.59.32.24,1.5-.46.26-.55.64-.49.15-.49-.11-.2.15-.32-.27-.97.85-.81.49-.2.06-.96-.52.04-.77-1.44.3-.59.67-.36,1.79-.24.19-1.14-.89-1.76-1.83-.53.29-.4.63.03.48-.33.57-.27.03-.69-.84-.09-.59-.42-.36-.44-.11-.6,1.11-.96.57-.11.27.11.37-.91.48v.43s-.33.1-.33.1l-.99-.44-.66-1.14-.74-.24-.55-.42-.75-.19-.24-.23-.26.2h-.21s-.19-.47-.19-.47l-.45-.22-.23.03-.16.18-.29.6-.36.1.27.38-.56.59-.67.65-.32.79-.5-.14-.43.26-.31-.29-.84-.17-.96.16-.22.48-.24-.04-.54-.83-.28-.22-.39.04-.54.42-.1.76-.18.17-.21.65h-.47s-.33.29-.33.29l.43.65-.06.8.48,1.14.62.34.72,1.07-.21.92.24.26v.38s.46.21.46.21l.02.19-.12.17-.54.16.11.53-.17.37-.14,1.42.2.27.71.32.09.34-.15.16-.42.08.08.33-.12.16-.48.08-.46-.5-.68.13.02-.45-.62-.17-1.26.19-.83.43-.31-.03-.47-.61.11-.47-.12-.17.25-.45-.59-.37.14-1.23-.26-.16.09-.79-.38-.53-.08-.6-.34-.06-.84.52-1.47.5-1.22,1.31-.77.44-.46.13h-1.07l-.54-.6-.53-.11-.49.44-.95.51-.23-.08-.67-.86.05-.65.19-.28.26-.1v-.14s-.57-.28-.57-.28h-.8s-.43-.34-.43-.34l-.3-1.01.44-1.25-.29-.52.08-.25-.88-.09-.06.26-.19.09-.91-.49-.37.29-.47-.42-.88-.2-.45.02-.48-.18-.69.24-1.04-.04-1.01-.47.29-.14-.15-.15.78-1.46v-.48s.36-.18.36-.18l.7-.78-.13-.35.1-.7-.44-1.27.48-.28.52-.76v-.69s.94.2.94.2l.21-.16-.44-.8.02-.42-.83-.1-.65-.57-.18.03-.27.36-.64.29-.21-.36-1.29-.13-.27-.48-1.56-.18v-.31s.48-.79.48-.79l-.13-.24h-.4s.34-.42.34-.42v-.36s-.24-.56-.24-.56l-.14-.13h-.46s-.18-.49-.18-.49l.14-.23.5-.3.06-.18-.52-.77-.07-.61-1.2-.36.1-1.3-.15-.23,1.84-1.14.16-.29-.07-.29-1.39.23-1.22.42-.76-.42-.64-.08-.37.02-.6.27-1.39-.18-.71.16-2,.73-.67.6-.47.11-.66.55-.46.18-.21.2-.14-.34-.87-.56,1.78-1.7.14-.43-.2-.37.21-.29-.05-.34-.69-.23-.06-.24.48-.17-.46-.86-1.12.08-.05-.29.23-1.26-.02-1.37,1.19-.79.79.03.23-.26-.6-.67-.04-1.37.47-.37.44-1.15.21-.22.61.52.2-.02.62-.6.53-.27.39-.7.3-.12-.08-1.03.32-.32.06-.72.86.23.41.32.52-.13,1.2-2.12.34-.34.27-.07.78.36.63-.4.13-.33-.71-.94-.31-.03-.34-1.15.16-.24.53-.14.05.35.19.1.34-.25.23-.47-.27-.6-.32-.14.15-.53.52-.72.07-1.39.32-.8-.22-.83.17-.73-.33-.65.2-.34-.22-.9.23-.5-.43-.41-.18-.78.33-1.5-.31-.46.05-1.77-.3-.32-.64.19-.52-.6-.28.12-.76-.38-.25,1.19-.18.22-.33.09-.31-.13-.84-1.77-.07-.89-.53-.52.34-.18v-.14s-.65-.56-.65-.56l.19-1.23-.12-.36-.62-.52-.54-.13.02-.51-.89-.81-.36-.14-.57.24-.3-.08-.61-1.26-.27-.22-.53.27-.63-.53-.17.08-.77,1.36.02.79-.59.12-.14.29-.43.34-1.93-1.39-.35-.08-1.05.42-.63-.23-.12-.68-1.73-1.5-.79-.19-.52.23-.28.47-.14.97-.16.07-.64-.9.37-.42-.3-.44,1.52-.92-.2-.92-.61-.72-.17-.58-.37-.21.05-.23-.85-.39-.14-.57-.66.19-.8.47-.11-.9.25-.2.99-.24.46-.79-.27-.21-.64.35h-.3s-.55-.42-.55-.42l-.32-.76-1.75.09-.84.33-.62-.27-.48.12.02.62-.28.52-1.42-.25-.13.31-.32.03.06.67h-.43s-.08.14-.08.14l-.2-.59-.19.08-.14.44-.96-.06-.3.22.07.56-.53-.06-.24-.32-.77-.13-1.51-.57.31.42-1.25-.42-.72.03-.14-.07-.05-.52-.48-.5-.69-.32-.45.15-.63.76-1.1.13-.56.54-.45.02-.16.47.71.68-.9.85-.71.03-.36.3-1.49.58-.53.02-.09.33-1.09.44-.64.51-.44-.06-.46.29h-1.67s-2.1,1.22-2.1,1.22l-.6.43-.18.66-.4.54-1.24.9-.53.19-.5.54-.42.13-.24-.17-.94.58-.38.57v.13s.6.18.6.18l-.13.65-.55.48-.6.19-.38.33-.89.36-.32-.32-.23.48h-.17s-.19-.27-.19-.27l-.24.44-.6-.74-.1.51h-1.14s-1.22.78-1.22.78l-1.02-.03-.85-.32-1.31.04-.04-.87.23-.6-.14-.21-.55-.23-1.32-.23-.88-.38-.48-.57-.19.17-.7.02-.95.92-.38.08-.72-.18-.61-.47-1.43-.21-.82-.33-.86.23-.93-.06.1-.49,1.04-.71-.09-.3-1.87-.61h-.31l-.23.4-.35-.05-.28-.35v-.34l-.34-.21-.46.3-.98-.18-1.93.46-.76.62-.23.41-1.81.46-.43.49-.52.32-.39.55-.76,1.11-1.03.57-.18.56-.76,1.23-.21-.08-.48.14-.72.84.09.23-.3.55.43.95-.23.17-.53-.17-.21.14-1.11-.87-.3-1.14.6-1.15.45-1.75-.02-.31-.38-.47.07-.62-.35-.31-.42-.25-.78-.13-.54-.35-.86.72-.43-.02-.72.46-2.45.33-.17.4.19.4-.82-.3-.48.12-1.32-.26-.75.82-.28.12-.45-.05-.4-.1-.58.18-.39-.3-1.51.31.15-.42-.2-.05-.68.36-1.25-.09-.37-.18-.8-.87-.45-.12-.63.05-.69-.65-.94-.06-.07-.52-.65-.28-.46.25-.55-.22-.35.85v.38s-.18.31-.18.31l-.66.26-.58-.34-.33.06-.46-.41-.56-.11-.42-.72.13-.57-.28-.22-.81.74.41,1.39-.54.36-.85-.03-.06-.79-.54-.56-.33-1-1.2-.73-.32-.44-.06-.62-.13.02-.04.25-.71.52-.31-.23-.83-.03-.41-.17-.64.35-.47-.21-.64.14-.65-.34-.6.11-.26-.37-.04-.97.3-.22.13-.42.28-.19.07-.65-.99-.41-.93.6-.25.33-1.08-.03-.52-.41-.72-.18.05-.43-.47-.17-.15-.23-1.54-.37-.26-.61-.43-.46-.84-.23-.56-.38-.17-.25.23-.79-.52-.29-.4-.8.27-.45-.06-.13-.4-.02-.21-.44-.51.08-.21-.21-.34.06-.17-.24h-.41s-1.13.51-1.13.51l-.91.08-.38.61h-.66s-.56-.22-.56-.22l-.19-.72-1.02-.89-.05-.35-.28-.2-.02-.42-.25-.23-.6.11-.16-.2.13-.44-.81-.74-.75.06-.13.33h-.14s-.83-.78-.83-.78h-.41l-.3-.23-.59.27-1.36-1.13-.02-.44-.66-.11-.71-.78-.79-.29-.58-.46h-.44s-.26-.27-.26-.27l-.59-.07-.42-.23-.53.06-.24-.62.26-.53-.66-.46.08-.78-.19-.21-.97.08-.26-.24-.9-.16-.61.12-1.54-.55-.72.36-.26.47-.77-.41h-.36s-.18.66-.18.66l.09.64-.19.55-.32.37-.52.08v.49s-.38.2-.38.2l-.08.39-1.23-.18-.82-1.57.07-.15-.25-.39-1.81-.61-.55-.66-1.18-.63-.82-.02-2.38-.95-.68.05.22-.44-.34-.63.38-.11.16-.45-.63-.55-.6.18-.28-.1-.53-.58-.95-.4-.49-.6-1.04-.23-1.01.16-.49.22-.61-.26-.34-.44-.7-.09-.27-.66-.84-.41-.15-.69-.43-.2-.24-.95-.31-.09-.19-.41-.57-.36h-.59s-.36,1-.36,1l-.54-.32-.36.51-.88.1-.37-.18.16-1.27-.63-.4.04-.2,1.11-.9-.57-.55-.32-.06-.49-.9.69-1.8-.89-.67-1.27-1.59-.51-.2.04-.49-.26-.95.16-.31-.66-1.04.04-.18.22-.1,2.07-.18.77-.55.35.23-.13.62.32.78,1.6,1.07.79-.29.44.06.35-.95.19-.12.77-.21.74.12,1.31-1,.57-.71.04-.64-.48-.45-.33-.85-.73-.65.09-1.02.35-.57-.03-.34-1.06-.17-1.03-.42-.62.11-.25-.57-.81-.3-.52-.72-.87-.7-.4-.85.12-1.78-.22-1.19-.46-1.13.08-.79,1.61-.73.68-.55.09-.64-.26-.5-.32-.3-1.12-.4-1.28-1.04-2.65-.49-.78-.43-.79-2.08-.59-.88-.17-1.05-1.2-1.99.08-.73.43-.98-.11-.36-.54-.02-.96.59-.45-.19-.32-.4-.37-.03-.93.37-1.38-.19-1.2.06-.95-.52-1.3.03-.77-.51-1.33-.03-.67-.54-.61-.05-.94-.63-.99-.35-.18-.3.04-1.06-.17-.04-.34.29-.63.1-.27.27h-.51l-.34.2-.48-.08-.88.11-.26-.19-.22-1.07-.23-.34-.98-.16-.58-.34-.21-.3v-.47s.67-.38.67-.38v-.44s.4-.26.4-.26l-.42-.66.17-1.11-1.05-1.85-.78-.64-1.31-.61-.74-.12-.58.18-.14.25-.56-.02-.2-.23-.3-1.37-.6-.32-1.1-.19-.71-.39-1.64.13-.3.13-.35.52-.18-.48-.56-.52h-.68s-.53-.36-.53-.36l-1.12.3-.61-.57-.88-.41-.13-.38.82-.1.4-.5.84-.11.31.12.91-.62.68.78.91-.16.55-.47,1.09-.29.22-.62.67-.21-2.53-1.85-.05-.5.74-1.06-.15-.26-.59-.33.26-.47-.21-.16-.1-1.15-.66-.29-.18-.26-.18-1.96.12-.32.5-.5-.05-.78-.68-.53-.59-.04-.47-.35-2.9-.99-1.05.16-.91-.18-.36.52-.44.14.2.48-.28.18-.89-.02-1.08-.53-.74-1.26v-.73s-.52-.68-.52-.68l.34-.42.86-.13.15-.41-1.09-.82-.33-.72-.61-.6-.05-.27.39-1.07-.1-.9,1.91-.25.3-.66.48-.33-.26-1.19-.6-.34-.1-.36.13-.35.45-.38.12-.49.47-.48.3-.68,1.78-.59,1.55.12,1.33-.73.83-.69,1.31-.78,1.45.05-.08-.3-.62-.58.42-.81.44.03,1.15.54.58.03.69-.19.52.21,2.68-1.61.39-.18h.34s.43.6.43.6l.11.7.46.41-.27.6.4.88.84-.17,1.21.11.56-.54.83-.3.93.2.86-.68.27.06.37.84,1.52-.86.74-1.2.49-.29.36-1.56.25-.29.82-.48.04-.91.88-.64,1.37-.29,1.03.3,1.16.06.84-.14,1.59.37,1.37-.15,1.68-.61,2.1.27,1.11-.66.51-.63.41-.52.69-.39-.09-.69.19-.31,1.4-.72,1.01-.22.24-.42.25-.14,1.26-.37,1.01-.51.56-.08,1.05-.57,1-.25.8-.5,1.01.1,2.05-.88,1.27-.11.33-.24.27-.68.28-.22.82-.2,2.34.02.46-.12.24-.47-.43-.98.36-.14.18-.31-.67-1.83.13-.52-.45-.57-.17-.86.97-1.6h.8s1.32-.44,1.32-.44l.47-.04.2-.09.05-.19-.11-.17-1.57-.54-.17-.24.12-.26,2.33-.98,1.05.31.39-.11.19-.34-.42-1.17-.98-.48.48-.64.17-.6-2.2-4.2-.49-.58-.18-.72-.6-.68.32-1.02-.4-2.07.5-1.39-.26-.47.19-.17,1.08-.28v-.24s-2.3-.82-2.3-.82l-2.35.21-1.15-.52-.24-.23.14-.28,2.28-1.2,1.08.06.67-.19h.93s.51-.54.51-.54l.85.03,1.49-.4,1.46.16,6.4-1.55,1.15-.51.69.09.24.28.26,1.04.76.14.7.34,2.75-.81.9.25,1.25.83.59-.07.42-.49.27-.67.16-1.56-.15-.18-.96-.28-1.73-.26-.33-.37.05-.2.7-1.67,1.09-1.56.74-2.74.99-1.25,1.53-3.73,1.36-1.95.33-2.45.47-.12.73.06,3.48,1.34,3.54.87,1.53.09.82-.27,1-.07,1.45.07.92.22,1.33-.13.82.61-.02.33-.32.44.22.19,1.64-.33.56-.48.67-.17,1.65-1.12,2.54-.1.54-1.18.96-.26.18-.64-.08-1.02-.8-1.01.1-1.22-.74-2.76.66-2.06,1.23-2.02.6-.45,2.07-.2,1.73.11.51-.18.56-.43,1.15-.03,1.25-.39.38-.58,1.36-1.17-.12-.63.47-.52-.66-.68-.08-.39.32-.5.52-.32.56-.59,1.08.12,1.31-.35,1.93.41,1.07.1.41-.16.23-.27,2.89-.42.18.61-.13.67.47.23v.34s-1.07.44-1.07.44l-.18.47.54.28.23.48.8.27.63.03.78.45-.04.32-1.04.69.08.23,1.99.76h.65s.65.23.65.23l1.04.7h.8s.58.48.58.48l-.04.7.33.66,1.05.29.89.56h1.04l1.2,1.05,1.61.15,1.26-.58.66.16,1.08-.09.28.1.11.54.41.17.26.41.63.2.26.5h1.28l.42-.19.12-.36.91.03.36,1.15.75.43,1.69.48-.16.33.5.79.56.42.06.83.36.24-.17.64,2.27,2.74.28.21.8.09.53.35.48.75-.1.48.74.68.09.47-.17.89.46.41-1.02,1.93-.37.39.49,1.24.44.51.06.85-.15.27-.62.4-1.94,1.84-.55,2.41.95.67.4,1.19.65.37.06.63h.3s.65-.27.65-.27l.76-.02.73.18.46.41.6.22,1.09.14.47-.29h.2s.89.69.89.69l1.2.11.78-.12,2.75-.02,1.64.6.62-.09,1.77.21,2.58-.38h.88s.91.3.91.3h1.22s.83-.02.83-.02l.73.24.9-.03.74.28.97.04,1.52.56,2.22,2.03,1.22.2,1.15-.09.89.66.57.72.85.07,1.47.64,1.24.93,2.94.75,3.36-.24-.7,1.14-.03,1.31,1.78.35.23.2,1.46,3.04,1.31,2.06.39,1.5,4.13,3.14.44,1.74,7.67-.6,6.14.6,15.12,1.48,1.37-.31,3.25-.73h.42s11.18,1.36,11.18,1.36l1.79-.14,1.06.07,1.05.21.91.5,1.41,1.7,1.37.87,9.67,1.67,5.75,2.28,7.53-1.04.04,1.99,3.61.11.76.55.38-.09,1.73-1.37,1.46-.39,4.75-1.93,8.37-2.73,11.93-1.42,1.19-.14,1.33.2,2.02-.02,2.42.34.61-.1.92-.36,2.72.2,2.16-.22,1.7-.93,2.28-.74,1.37-.09.74-.41,2.48-.8.4-.64,1.48-1,.67-1.05,1.09-.85,1.64-1.55,1.14-.48,2.26-.67.58-.35,1.55-.25,1.73-1.49.86-.04.81-.28.1-.84-.98-1.42-1.9-1.18-.84-.84-.5-1.17-.74-.41-.13-.57.25-.56,1.06-1.26.12-1.02,1.74-2.54.97-.68,1.31-.44,1.14.18h2.84s1.03.69,1.03.69l.58.65,1.51.54,3.32.66,3.43.22.55.24h.95s2.37-1.52,2.37-1.52l1.19-.18.67-.32.56-.64,2.51-1.6.78-.95.29-.77,1.58-.39,2.19.5,1.74-.19h1.96s2.8-.46,2.8-.46l.51-.23.7-.57,2.18-1.35.71.02.61-.2,1-1.01-.42-.72.06-.25,1.34-1.84,1.56-1.13.53-.66,1.3-.29.86-.54,1.33.19,3.53.09.3-1.1.4-.46-.18-.44,1.08-.07.54-.23.53.63.45.18,1.16-.04.96-.81.98-.18.73-.38.79-.1.93-.41h.62s1.28.35,1.28.35h.74s.53-.19.53-.19l1.03.27.31-.13.58-.62.28-.07.56.52.56-.29.89.74,2.37.46,1.72-.15,1.14.11.53.23.56-.2.39-.39.67-.04.46-.46-.2-.41.12-1.35-.41-.11-.76-.77-.15-.94-.5-.61-1.05-.73-.58-.12-.46-.54-1.44-.91-.36-.07.33-.44-.07-.13-1.64-.48-.47-1.25-2.94-.88-2.09-1.96-.65-.22-1.79-.08-.91-.28-1.95.28-1.47-.06-.45.11-2.23,1.92-.84.52-.71.74-.41-.03-2.3-1.45-2.3-.62-3,.37-2.38-.25-.58.12-.9.4-1.04.91-.54.23-.57-.2-2.58-1.9-.57-2.06.21-.16,2.45-.87-.08-2.53,2.21-2.36.18-.3-.09-.66,6.02-8.87,3.47,1.4,1.82.47,2.05.08,2.66.94.72.03.35-.04.18-.31.34-.19.8-.26.83-.52.76-.27.38-.45,1.33-.53.19-.31.78-.15.41-.54,1.14-.56h.9s1.7-.34,1.7-.34l.62.11.94-.07,1.09-.27.86-.6.4-.58-.09-1.25.3-.32-.08-.28-1.69-.14-.35-.34.16-.18.48-.03.34-.28.47-1.43.74-.4.17-.27.48-.12.5-.48.17-.51-.16-.41.29-.29-.09-.35.8-.68.74-.35.25-.21v-.22s.29-.08.29-.08l.16-.8.25-.13-.22-.4h.49s.04-.56.04-.56l.38-.13.21-.27.3-.12-.19-.5.54-.13.28-.41-.05-.42.7-.61.04-.41.41-.59.6-.08,1.43-1,.83-.47.53-.13.26-.33.45-.07.23-.21.76-.05.59-.72-.13-.56.45-.26.32-.38-.2-1.12-.96-.57-.27-.44.6-.86.31-.96-2.51-.9-.8.2-.99.06-.79.25-.9-.06-.42-.33.18-.63-.18-.63.3-.21.84-.24,1.16-.53,1.58-1.33,1.53-.83.92-.82,1.02-.47.02-.25.18-.11,1.95-.15,1.38.12,1.28-.44.67.06.92-.12,1.2-.51,2.31-.42h1.26s.53.01.53.01l.81-.37,1.38-.25.79.42.65-.13,3.61-.09,1.33-.31,1.41-.05.76-.44.4-.08,1.9.48.12-.39.18-.02.31.2-.26.19.21.05.47-.41.21-.05.81.5,1.38.14,1.12.37,1.41.95.56-.24.66.03,1.21,1.2,1.09.3,1.41.05.64.56.76-.06.64.44.24-.09-.16-.34.17-.29,1.64-.25,3.75,1.2.42.38.93-.18,1.04.75-.13.33-.55.25-.14.32.21.06,1.57-.27.28.53,1.02.79.38-.16.65.06.15.2-.64.25.31.44-.8.25.07.62.35.19.29-.08.09-.18.13.02,1.2.56-.11.61.71.04.7.8-.33.56,1.15.38-1.18.44.04.26,1.99.44.23.2-.39.82-.44.1-.26.31,1.94,2.39.72.3-.17.21.15.46-.43.55,1.21.39.21.24-.35.46.07.37,1.01.26-.11.27-.5.12-.27.23.09.55.43.13.19-.18-.05-.29.3-.2.35-.05.25.19-.71.94.25,1.34,1.98,1.49.71,1.07.62.35v.71s.74.91.74.91l-.02.21-.71.83.65.47-.26.81.22.28,2.2.84-.19.73-.78.97.44.96-.25.73.3.51.98.21.33.26.22.73,1.41.7.61.04.44-.21.92.53,1.22.07.65-.18.72.1.36-.29,1.56-.08.72.12.4-.34,1.21.43-.02.31-.42.27.06.29,1.11-.08,1.11.36.64.74.45.12.73-.38h.22s1.14.45,1.14.45l.3-.27.05-.51.95.04.44.34.23.88,1.48.15.28.73.93.27v.54l.74.25.06.52,2.56,1.33.44.17,1.28-.3h.49s.94.4.94.4l.79-.19.48.16-1.37,2.24.84.52.06.73.83-.16.4.12-.15.69.76.87-.05.33-.42.35-.2.51-.73.5v.67l2.16,1.67.32.59v.95l.95.38h.56s.99-.3.99-.3l1.94-.31.83.2.89.56.93-.32,1.96.27.49-.21.55-.07,1.27.07.83-.33.76-.1,1.79.27.46-.3.02-.51.85-.81.06-.64.45-.08.78.21.55-.46.71-.38.86-.28.4-.41,1.38-.23.72.23,2.07.05.33-.17.32-.47.71-.24.63-.57,2.13-.26.84-.45,3.06-.5.79.39.66-.16.64.67,1,.2-.29.41-.04.78-.19.26-.71.44-.25.48.39.61-.13.17.65.36.17.58.87.78.03.28-.44.44-.3.13-.1.57-.54.36-.63.73-.67.38-.65-.08-.95.18-.63.61-.57.26-.27.65.68,1.3-.28.3-.68.14-.51.83-.06.69-.43.81.23.62-.4,1.07-.89.6-.1.42-.43.54.82.74-.07.18-.58.3.49.24-.21.1.08.4-.44.21.05.12-.29.25-.34-.16-.49.51-.5.16.3.73-.58,1.2-.38-.02-.3.56-.31-.11-.35.08-.35.55.32.39-.25.09-.13.37-.26.18.42.21.03.12-.32.23.19.2-.46.12-.13.39h-.36s-1.61.58-1.61.58l-.21.16-.43.69-.29,1.23.22,1.36-.25.31-.7.46-.66.32-.3-.03-.76-.29-8.11-1.63-.5-.24-.57-.72-.33.04-.3.26-.58.83-.89.16-.21.31.16.38-.12.32-1.63,1.19-.97-.06-.66.37-.77.23-.62-.15-.54.1-.25.43-.85.19,1.23,1.49,1.85,5.84-.48.44.04.91-.44,1.19.2,1.79-.29.52.86.59.2.17.06.66-.31.34-.09.73-.64.6.14.75-.98.83.23,1.13-.27.13h-.47s-.29.44-.29.44l-2.07-.16-.32.38-1.38.07-1.67.76-.26.36.22.18h.93s.63.52.63.52l.12.49-.5.36-.27-.75h-.16s-.27.24-.27.24l.15.14-.18.19-.23-.46-.96-.47-.58-.54-.18-.32.12-1.15-.16-.33-1.31-.18.3-.35-.08-.21-1.17.18-.8-.43-.28.12.25.18-.51.13-.84,2.01-.03.4.28.25-.1.28-.24.04-.09.13.2.21-.25.19-.07,1.02-.24.31-1.04-.05-.04.34-.23.07-.08.25-.18.07-.94-.66-.44.12-.43-.16.11.23-.24-.06-.21.35-.63.14v.47s-.39.05-.39.05l.32.19-.44.51.28.22-.85.66-.51-.04v.17s-.36.32-.36.32l-.59.12-.22.49-.53.05-1.51-.16-.11.16h-.94l-.41.27-.58.04-2.24-.34-2.12.36-.13.27.25.94.4.21.63,1.21.85.48.48.71-1.09,1.67-.37.26-.39-.03.13-.13-.13-.06-.37.1-.12-.3-.33.07-.13-.54-.25.19-.28-.19-.58.09-.3.28-1.73-.15-.23.16-.74-.26-.15-.31-.64-.07-.43.15-.45-.15-.69.04-.34-.1.19-.12-.08-.12-.69-.14-.26.27-.22-.13-.2.08-.28-.14.3-.3.4-.15-1.12-.54-.09-.32.26-.03-.32-.48-.4-.18-.5-.13-.15-.32-.4.15-.21.35-.52.16-.19.32-.57-.38h-.44s.45.33.45.33l-.55.32h-.48s-.48.49-.48.49l.1.49-.71,1.19.19.77-.32.07.13-.2h-.27s-.3.17-.3.17l-1.22,1.31-.32.51-1.41.72.13.17-.34.32.03.12-.26.11-.28.49-.5.15-.11.14h.27s-.02.13-.02.13l-.67.2-.48-.19-.59.26-.57-.15-.14.16-.39.08-.55.45.35.39-.68.07-.36-.22-.24.55-.63.06-.24.42-.25.02-.11.17-.02.19-1.12-.16-.35.31-2.15.75-.09.24.24.44-.99.05-.37-.26-.88.83-.55.22-.27.56-.65.15-.67.39-.21.29-1.66,1.14-.08.81-.63.72-.26.06-1.38.87-.28-.18-.3.2-.65.18-.41-.28-.51.17-.74-.14-.32.18-1.21-.56.13-.38-.24.14-.37,1.11-.26.14-.47-.27-.8.66-.18-.18.08-.73-.18.06-.11.27-.68.12-.65-.35.19.56h-.52s-.03.18-.03.18l.58.25-.43.26-.88.14-.19-.24-.46.14-.46-.05-.29.13.17.15-.3.36-.18-.07-.68.13-.21-.11-.64.53-.85.39-.37-.13-.56.61-.24-.18-.06.29-.8.37-.68.05-.99.56-.21.31-.15-.05-.11.35-1.17.79-.1.39.54.12-.33.04-.74.4-.05.37-.5-.03-.42.25-.51-.06.32.31-.89-.25.64.51-.22.28-.56-.21-.36-.46-.44-.08.13.27-.54-.07-.41.13.19.04-.03.25-.61.22.99.28.03.43-1.34.05-.63.45-1.31-.04-.53.25-.48-.1-.18.21h.25l-.61.51-.6-.44.23-.2-.23-.64.35-.26-.04-.12-.58-.06.3-.35.57-.1.37.13.67-.25h.4s0-.55,0-.55l.38-.17.49.28h.36s1.92-.68,1.92-.68l.06-.45-.36-.37-.46-.15.14-.08-.06-.19.29-.14-.4-.26.84-.1.52-.34-.05-.18.45-.38.54.06.98-.32-.11-.17-.77.28-1.31-.08.09.23-1.79.06-.32-.23-.52-1.11-.76-.12-.44.19-.77-.25.77-.65,1.34-.16.19-.16-.06-.13.32-.06.33.28-.07-.28.23-.24-.4-.15-.46-.5.25-.14-.13-.43.36-.13.24-.35.75-.09.19-.23.45-.24.83.02.33-.41.6-.24v-.23s-.44-.06-.44-.06l.5-.18.46-.33.03-.22.58-.21-.04-.59.44-.09.49-.29.13-.77.98-.66-.07-.43.43-.03v-.22s.36-.18.36-.18l.13-.27-.72-.71-.69-.24-.12-.19.28-.28-.08-.45-.35.2-.68-.61-1.84-.8-.24-1.08.46-.39-.06-.06-.39.2-.45.36.02.25-.38.55-1.53.07-1.99-.91-.58.37-.38-.2-.13.13-.18-.19-.46.04-.89.55-.11.55-.17.06-.42-.33-.32.14-.02.32-.3.26.03.14.76.2-.54.09-.21.17-1.07.16-.25.69-1.11.72-.18.36-.51.17-.06.4-.48.18-.06.18h.46s.03.14.03.14l-.83.38.03.72-.3.32-.34.18-1.18.14-.44.31-2.9.84-.32.19-.03.35-.58.11-.71.33-1.06.17-1.17.39-.15.3.1.41h-.6l-.92.62-.77,1.42h-.37s-.34.24-.34.24v.18s.32-.19.32-.19l-.13.32.31-.39.18.02-.23.76.45.56-.24.46-.22.17-.66.1-1.57,1.54-.83.55h-.3s.44-.26.44-.26l.26-.32-.83.19-.06-.38-.31.36-.42.22-1.64-.09-.27.12h-.59s.02.22.02.22l-1.89.87-.84-.21-1.29-1.39-.81-.15-1.15.16-1.19.81-.39.03.34.4.22.81-.68-.13.06.13-1.16,1.58-.38,1.77,1.61,2.26,1.13,1,.97.35.33.36.71.2v.18s.29.14.29.14l.32-.13.9.07,2.17.35.88.37,1.04-.72,1.72-.06,1.02.52-.23.37.67.88.89.47.23.55,1.17.78.15.5-.04.41-.35-.03-.91-.58-.47-.03-.3.17-.56,1.03-.18.74-.12,1.43.16.77,1.71,1.09,1.32.39,1.43.15.78-.17,2.29-.12.2-.27.98-.64-.48-.88.12-.15,1.87-.75,1.19-.66,1.02-.8.23-.32-.15-.3-.84-.18,1.42-.1.88-.49.86-.13,1.69-.67.92.17.38-.13.45.1.14.42.85.59.98.09.1.11-.17.35.17.13-.13.25.35.31,1.27-.04.62-.27-.19-.25.37.14.34.24-.29.02-.16.27.61.43.28.48.56.11.31.26.98-.1-.39-.22-.44.08.14-.17.3-.09.91.18,1.91-.02.18.04-.07.32h.36l-.1-.43.45-.53.43-.15-.04-.17.26.12.25-.12.28.28-.2.46.5.61.38-.37.2-.02.48.39,1.69-.07.86.23.39-.16.71.08-.09.33-.21-.09-.79.37.22.46-.42-.23.1.42.64.76-.51.07v.38l-.6-.1-.25.14-.11.28-.16-.41-.16.6.19.22-.51.42.2.17.11-.23h.96l-.07.95-.24.26-.08-.38-.39.17h-.47s.29.46.29.46l-.53.09-.23.3-.33.06-1.25-.25.11-.45h.64l-.96-.44.16-.56-.13-.08-.15.08-.06.55-.45-.05-.12.32-.45.17.15-.76-1.14-.13-.11.07.33.44-.32.17-1.2.27-.54.51-.73.18.32-.25-.43.11-.11.85-.29-.25-.64.13-.28-.19.06-.13.86-.35.11-.17-.56.08-.33.25-.48-.19.11.36-.16.3-.41.03-.29.21.22.18h-.81s-1.46.41-1.46.41l-.72.54-.44-.13-.08.37-.88-.12.04-.22-.77-.29-.93.32v.71s.26,0,.26,0l.44-.52.22-.08.72.67.34-.14-.25.48.13.35-.41.06-.07.38-.29.32-.38-.51.05-.21-.24-.08-.52.04-.34.28-.26.39.33.53-.56-.05-.17.13.57,1.55-.72.37-.71.03-.14.21-.58.02-1.12.45-.57-.2.65-1.21-.51-.77-.3.37v.28s.24.12.24.12l-.13.15-.64-.22.03-.21-.95.12-.19-.16-.11.16.22.19-.18.72.73.46.06.64.21.08.3-.14.12.24.39-.35.13.35-.67.29-.48.48.13-.51-.49.38-.36.03-.54.54-.33,1.07-.61-.31-.28.15.26.37-.32.31.03.44-.41.17-.24-.27.06-.21-.26.09-.63.67-.11-.42-.79.35-.9,1.9-.41.44-.78.18-.61,2.01-.72.19-.63.17-.18.54v2.63s.16,0,.16,0l.18-.38.77.04.33-.24.38.25.51.07.3.29-.16.29,1.78,1.4.76.09.9.5,1.06.12,1.29.75,1.66.61.63,1.86.43.7.39,1.29-.13.26.98,1.25.06.73-.16-.05-.11.12,1.4,1.7.31,1.32.77.52-.19.25.12.31-.12.04.72.62-.14.27.25.15.06.58.39-.02.26.17.08,1.87-.23.38-.26.15.07.62-.19-.32-.09.25.71.35.04.28.3.23,1.32.64.14.36.18-.09.35.11,1.83.75.33.28.28,1.25-.54.18.35.58.25.05.17.46.81.05,1.16.42,1.55,1.03,1.01,2.1-.14.19-.4.15-1.83-.31-3.62-1.55-1.59.88-.7-.21-.58.05-.35-.28v-.45s-1.21-1.21-1.21-1.21l-1.64-.51-1.34-.05-1.2.53-.88.72-.4.11-.86-.06-.74-.26-.56-.42-.74-1.01.09-.87-.2.18-.54-.94-.78-.26-.61.07-.48-.36-.26.04.67.58-.34.68-.4.21h.37s.42-.36.42-.36l.82.29.09.06-.22.51.19.27.66.25,1.4,1.27,1.16.35.92.03,1.03-.44.72-.12.35-.12v-.36s.13-.03.13-.03l1.25.31.8-.06.56.18.69,1.39-.16.18-.53-.14-.32-.34.13.44.93.34,1.69.32,1.21.54,1.83,1.8,3.58,1.95,1.41,1.7.94,1.71-.16.38-.49.16-2.57.19-.82.19-1.23.46-.72.6-.55.11-.67.24-.76.67-.69.09-.65.37-.43.66.07.48-.42.19.19.25-.25.06-.53.59-.41.11-.83-.93-2.04-.09-.45.13-.48,1.08-1.13-.23-1.03.92.3-.02.48-.33.18-.32.23-.07.71.34.32-.08.61-1.11,1.59-.04.28.12.44,1,.33.18-.97.9v.12s.49.35.49.35l.77-.02.25.19-.08-.22-.89-.08-.39-.27.98-.92.58.12.14.26.6.14.94-.38,1.07-.67.38-.4.33-.11.64-.1,1.15.22,1.2.98,1.41,1.88.69.37-.1.17.42-.12,1.37.51.19.29h1.12l.68-.15.07.18-.2.12-1.22.45-.75.66h-.27s-.1.42-.1.42l-.8.51-.67.75-.88.24-.33-.06-.4.39-.13-.33h-.3s-.38.2-.38.2l.11.33-.26.2.14.49.21-.05.14-.5.23-.08-.12.26.2.04-.02.13-.32.23.07.21.43-.25.36-.54.68-.19.63-.41.19.19.3-.12-.06.3.2.28.31-.19.17-.35.16.03-.03-.11-.29-.15-.64.07.03-.17.44-.36,1.11-.37.52.44v.23s-.28.17-.28.17l.08.12-.37.13.56.7-.13.38-.2-.18-.13.09-.06.64.14.23-.21.05.06.13-.14.06.37.32.32-.19.16.25-.36.07-.1.5-.95.32-.51-.06.13-1.28.38-.13-.09-.14-.29.14-.11-.09.11-.42h-.12s-.26.13-.26.13l.15.99-.47.67h-.67s-.12-.33-.12-.33l.14-.77-.13-.06-.15.05.04,1.05-.51-1.09-.11.09.11.17h-.45l.1.18-.29.46v.28s-.23-.17-.23-.17l-.22.34-.23-.1-.21.1.44.25-.51.25,2.04-.06-.06.51-.72-.03-.04.38h.15s-.08-.16-.08-.16l.17-.11.56.08.23-.1.44.32-.33.27.28.3.31.06-.31.32-.9-.45-.15.31-.31-.23-.36.05-.06.2.12-.06.12.21.59.24.28-.04.17.13-.05.32.43.16-.32.19.25.13-.41.27.03.24-.15.1-.96.23-1.41-.11-1.05-.48-.22-.4-.67-.36.16.3.43.14.24.36.63.35v.2s-.38.24-.38.24l.99-.19.15.13.3-.14.9.37.66,1.42-.56.03-.09.11.9.12-.22.32.45.59.02.3.21.07-.45.64-.28.09.02-.38-.75-.3-.25.02-.35.31-.25-.07-.12.19.19.26-.48.28-.1.35.19-.07v.21s-.22.24-.22.24h-.2s-.64-.74-.64-.74l-.34-.12.22-.29-.42-.58.13-.19.25.03.19-.16-.47.05-.42-.23v.23l-.23.15-.13.35-.54.13-.05-.18-.39.06.31.23.59-.04.03.45-.36.64-.71.59-.15.72-.26.36-.41.05-.38-.16-.56.09-.83-.43-1.16-.06-.27-.68-.16.03.19.21.08.59.79.05.72.43.79.18.31.68-.15.23-.42.22-.79,1.11-.17.03-.64-.47.35.48.03.48-.08.32-.65.51.2.5.54.2v.26s-.28.2-.28.2l-.1.6-.83-.22-.06.35-.32.19.41.22-.05.33-.24.21v.57l-.46.18-.08-.36-.35-.02-.02.15v.08s.09.23.09.23l-.21-.1-.29-.48-.27-.12-.13.02-.14.04h-.14s-.1-.06-.1-.06l-.04-.14.07-.11.12-.08.11-.05-.08-.03h0s0,0,0,0l-.04.03-.07-.07.06-.03.03-.03.03-.13-.19.08-.06.04-.04-.07-.04-.05-.11-.07.02.08v.04s.01.03.01.03l.04.04-.12.04-.1-.03-.1-.05-.13-.02.03.07.03.05.05.04.07.03v.06l-.17.14-.06-.02-.06-.11-.16-.14-.04.09v.09s.03.08.03.08v.06s-.04.06-.04.06l-.15.16v.09s.02.07.02.07l.04.04.09.02.09-.02.03-.06v-.06s.04-.04.04-.04l.28-.15.16-.06.07.04.06.12.26.12.08.11.12-.1.13-.08v.06h.06v-.04s.03-.03.03-.03l.04-.06.16.16v.14s-.16.27-.16.27l.21-.07.15.07.15.13.18.11v.06h-.14s-.2-.03-.2-.03l-.1.03.32.07v.06l-.25.07-.07-.07-.06.07.13.06v.06h-.07v.06h.2l-.16.07h-.18s-.7-.13-.7-.13l-.07-.03-.12-.13-.06-.03h-.11s.03.11.03.11l.05.07.06.06.05.08.13.32-.06.06-.13-.14-.12.07-.12.14-.15.06v.06l.24.03.13.15v.19s-.17.14-.17.14l-.07-.07-.13.05-.21.03h-.41s.36.17.36.17l.12.02.13-.02.11-.03h.09s.07.11.07.11l-.04.03-.04.06-.04.05.07.13-.08.04-.04.04-.05.03-.09.02-.08-.02-.3-.11-.2-.02h-.2s-.11.09-.11.09l.06.18-.1.05-.06.04-.07.03h-.12s-.04-.01-.04-.01l-.05-.04-.07-.04-.09-.02h-.22l.22.1-.1.12-.18.15v.21s.08.08.08.08l.13.06.14.04h.12s.08.05.08.05l.11.07.13.07.16.02-.08.12-.12.12-.09.12.02.14.11.07h.15s.13.03.13.03l.06.11-.05.1-.11.03h-.12s-.1.06-.1.06l-.05.11v.13s.08.14.08.14l.1.13.13-.07v.07l-.33.17-.08.06-.09.04-.05-.04v-.08s.11-.08.11-.08l-.06-.06-.48.29-.12.04h-.51l-.11.05-.07.12-.04.15v.15s-.49.35-.49.35h-.34s-.11-.08-.11-.08l-.03-.18.03-.1h.05s.06,0,.06,0l.05-.03v-.07s-.02-.18-.02-.18l.02-.07.14-.11.19-.07.38-.08.15-.06.22-.15.15-.05-.02-.04-.03-.11-.02-.04.09-.05.13-.26.11-.12v.02s.06.02.06.02l.1.02.04-.02v-.03s-.02-.04-.02-.04v-.03s.44-.53.44-.53l.02-.11-.11-.03-.49.1-.64-.06-.2.04v.1s.1.21.1.21l-.11.25-.21.21-.13.21.13.26-.21.04-.21.02-.03-.32-.03-.02-.2-.24-.09.03-.16.16-.1.06v-.16s.1-.58.1-.58l.09-.08.27-.13-.11-.05-.12-.02-.12.02-.11.05.05-.24.17-.09.18-.06.11-.18-.25.03-.2.07-.15.12-.11.17-.05.15v.09s.03.09.03.09l.02.14-.04.13-.09.07h-.12s-.12-.05-.12-.05v-.06l.02-.13-.06-.22-.13-.2-.18-.09-.06.05-.05.12-.04.13v.09s.01.12.01.12l.06.08.25.23.09.05.07.06.03.12-.05.06-.11-.02-.16-.08-.15-.13-.16-.17-.17-.12-.18.04-.06-.15.02-.11v-.09s-.16-.09-.16-.09h-.08s-.12.02-.12.02l-.08.06.04.11-.07.09-.13.07-.05.09-.02.11v.11s.04.1.04.1l.04.06.11.05h.12s.11,0,.11,0l.09.08.02.1-.02.13-.06.22-.3-.17-.08-.02-.13.04-.03.06.04.19.08.2.36.23.07.19h.06l.12-.16.18-.1.19-.08.16-.1.12.07.12.02.27-.02h-.07.12s.06.02.06.02v.06s-.05.1-.05.1l.11.03.22.04.12.06-.02.12v.05s.02.09.02.09l-.1-.08-.03-.04-.08.12.04.15.12.13.18.05-.03.04-.02.03-.03.03-.05.03.09.05.07.07.09.14.05.12v.08s0,.08,0,.08l-.04.1h-.03s-.12,0-.12,0h-.04s0,.04,0,.04v.12s0,.03,0,.03l-.18.06h-.09s-.09-.23-.09-.23l-.13-.11-.18-.08-.18-.03-.09-.04-.24-.3-.1-.06-.06.04-.06.11-.05.02-.1.08-.05.03-.14-.06h-.06s-.19.03-.19.03l-.08.05-.05.1.06.16.19.04.21-.04.1-.06.04-.04.08.04.08.06.06.08v.68s.1.14.1.14l.22.02-.02.04-.03.11-.02.04h.13s.37-.05.37-.05l.11-.05v-.29s.07-.12.07-.12l.15.06.09-.09.04-.11.03-.1.04-.08.06-.05.26-.14.08.14.11.09.05.09-.11.13h.15s.23.14.23.14l.14.04.13-.02.24-.09.14-.02v.07l-.57.43-.1.05-.21-.13h-.26s-.24.09-.24.09l-.15.19h.06s.14.06.14.06l-.12.06-.07-.03-.07-.06-.11-.03-.1.02-.19.09-.12.02h-.23l-.2.02-.18.07-.19.16.16.05.16.07-.03.1.03.1-.15.04-.14.06-.11.08-.04.12-.06.08-.12.06-.08.09.07.19-.36.19-.22.26-.18.3-.23.3-.19.33-.14.13h-.21s-.04-.02-.04-.02l-.09-.16-.06-.06-.1-.04-.2-.05-.09-.03-.28-.18-.15-.06-.46-.05-.15-.07-.26-.25-.16-.12-.14-.04-.37-.06-.09-.04-.29-.19-.15-.07-.09-.02v.06l.21.15.19.19.19.12.23-.07.13.1.05.11.08.3.08.13.18.21.06.11.03.26.08.04.38.06.31.12.16.04h.29s.3-.09.3-.09l.29-.13.46-.28.06-.07.03-.08.02-.18.02-.06.14-.08h.33s.11-.05.11-.05l.49.25.27.08.25-.06.19.18.05.07.02.09-.03.12-.22.43-.09.1-.1.08-.13.05-.16.02-.06.06-.16.45-.15-.3-.09-.07-.07.12.11.09v.2s.05.2.05.2l.19.09.05.05v.12s-.02.22-.02.22l.04.02.06.02.04.04-.04.07-.19.19-.02.09v.27s-.04.06-.04.06h-.03s-.03.04-.03.04l-.04.03h-.07s-.05-.02-.05-.02l-.03-.07-.27-.15h-.12l-.05.15h-.16s-.12.03-.12.03l-.09.07-.07-.04-.06-.02-.13-.02.06.22.04.29.07.18.15-.11-.04.23.02.19.11.15.23.07.05-.04.04-.09.07-.05.13.08.09.03.09-.05.07-.08.03-.06-.1.35.04.13.19.04-.05.07-.04.04-.06.02h-.1s.14.06.14.06h.08s.09,0,.09,0l-.12.09-.05.02h-.08v.08l.24-.05h.05s-.04.11-.04.11v.06h.11s.1.05.1.05l.05.07-.04.1-.09.11h.03s.08,0,.08,0l.08.04.11.21v.17s-.07.14-.07.14l-.16.12h.16s.07.03.07.03l.08.03-.48.11-.22.02.03-.08.05-.07.05-.06.06-.04-.1-.28-.1-.16.04-.06.07-.06.03-.07-.03-.03-.12-.18v-.04s-.07,0-.07,0l-.06.03-.05.04-.04.05-.04-.03h-.03s-.06-.04-.06-.04l-.03.11v.15s0,.14,0,.14l.06.06.13.02.02.05-.06.15-.07.11-.17.03h-.21l-.19.03.07-.11.06-.15.04-.16.02-.13-.02-.04-.05-.03-.04-.03v-.06s.01-.07.01-.07l.09-.08.02-.09.02-.02h-.02s-.36,0-.36,0l-.07.08-.05.15-.06.1-.11-.08-.02-.12.12-.28.03-.14-.07-.04-.71-.11-.09-.06-.03-.12.03-.1.23-.37-.11.06-.04.03-.04.05-.07-.07.03-.14-.12-.09-.19-.02-.16.06.15.16-.1.09-.3.07-.06.12-.03.29-.08.14-.21.28-.08.06-.13.04-.3.05-.11.07-.1.08-.3.18-.11.03-.13.06.06.12.44.41.08.12.03.15.05.08.09-.04.09-.12.03-.15h.07l.18.39-.2.1-.09.06-.1.1.11.13.03.11.04.03.14-.09.09-.1.08-.14.06-.17.02-.16.1.07.1.05h.08s.04-.12.04-.12l.1.05.04.03.05.05h-.06l.05.09.2.26.05.04.11.03.11.04.05.09-.08.15-.19.04-.4-.03-.08.09.15.4-.07.09-.24.03-.12-.13-.12-.03-.16.06-.18.04-.16.05-.1-.14-.11-.14-.11-.13-.24.07-.13.16.02.13.09.09.05.12.05.05.04.06.04.1.12-.05.06.04-.03.07-.15.06-.16-.02-.12-.06-.1-.02-.07.1.04.03.03.03.02.03.03.03-.09-.02-.23-.1.09-.19.05-.06-.13-.1-.11.05-.07.14v.17s-.16-.15-.16-.15l.05-.17.23-.26.1-.16v-.12s-.11-.08-.11-.08l-.21-.03-.44.05-.17-.04.1-.17.18-.09.23-.05.02-.18-.41-.05-.61.17-.1.06h-.11s-.19.14-.19.14l-.1.15.18.07.25.03.02.08-.04.12.06.15.05-.08.11-.06.14-.02.14.03.11.1-.02.1-.15.19-.06.14v.17s-.01.06-.01.06l-.04.04-.07.04-.13.03h-.17s-.17-.04-.17-.04l-.17.05-.09.02-.08.11v.12s.11.16.11.16l.17.15.17.07.37.1-.06.07.12.08.12.03h.12s.12-.08.12-.08l.1-.26.06-.12.06.03v.09s-.04.15-.04.15l-.06.14-.06.06-.03.06.04.14.09.24.15-.04.04-.02-.08.12-.15.1-.15.03-.06-.09-.06-.1-.14-.02-.34.03-.1.15.08.29.23.19.33-.12.03.05v.02s0,.02,0,.02l-.02.05h.03s.02.01.02.01h0s0,.06,0,.06l-.23.06h-.26s-.25-.05-.25-.05l-.19-.12-.1-.02-.27.1-.11.03-.12-.04-.09-.06-.1-.03-.13.06.02.16-.17.09-.24.06-.19.07-.09-.03-.06-.05-.02-.07.03-.11.06-.05.16-.05.04-.02v-.14s-.09-.15-.09-.15l-.12-.13-.11-.08.02.31-.02.07-.06.03-.04-.07v-.12s.03-.1.03-.1l-.05-.05-.05-.06-.09-.15-.06.12-.16.16-.03.08.06.06.14.1.11.11-.02.11-.18.07h-.25s-.26-.07-.26-.07l-.22-.1.38.27.06.11v.13s-.02.11-.02.11v.12s.13.26.13.26l.05.05.02-.06.03-.03h.07s.08,0,.08,0h.07s.17-.1.17-.1l.1-.08.04-.08.09.05.04.06v.08s0,.11,0,.11l.04.09h.08l.14-.06.15.07.03.05v.1s-.13.24-.13.24l-.02.04-.14.04-.11.1-.2.28-.12.09-.09-.05-.09-.11-.12-.1-.11.14-.06.14-.02.15v.18s.06.1.06.1h.13s.1.04.1.04l-.03.2-.14.2-.24.21-.28.16-.24.05-.04.02-.04.03h-.03s-.02-.11-.02-.11v-.07s0-.08,0-.08l.03-.07.07-.03.15-.04-.06-.08-.65-.36-.14-.02-.1-.03-.28-.14-.16-.02.04-.12.02-.13v-.29s-.03-.09-.03-.09l-.08.06-.1.12-.1.07.19.45-.16.17-.23.15-.26.07-.25-.07-.07.03h-.1s-.21-.1-.21-.1l-.04.12-.06.1-.09.04-.12-.06-.07.3-.21.02-.23-.14-.12-.18v-.2s.1-.03.1-.03l.12.02.1-.05v-.1s-.11-.06-.11-.06l-.15-.03h-.13s.09-.17.09-.17l.04-.14-.06-.14-.2-.19-.03.29-.06.04h-.05l-.03.02-.04.22-.06.13-.08.11-.09.09-.02.13h-.06s-.1-.13-.1-.13l-.45-.18-.07.18.07.2-.07.14-.15.05-.17-.07.06-.17-.16.08-.16.18.04.1.39.06.22.08.13.12-.13.17-.07.07-.09.03h-.12s-.04.02-.04.02l-.02.05-.07.09.07.05.12.1v.08s-.23-.01-.23-.01l-.78-.3-.41-.1-.39.08.19.05h.18s.18.06.18.06l.15.14-.8-.17-.23.04v.06l.78.6.3.11.76-.09.28-.11.1-.06.12.06.04.07v.09s-.06.22-.06.22l-.05.04-.05.03-.06.07-.07.22.08.03.12-.07.06-.09.08-.06.17-.02.18.07.08.2.03.05.13.09.03.05v.18s.03.08.03.08l.04.08h-.17s-.22.12-.22.12l-.12-.05-.12.09-.19.24-.13.12-.07.03-.18.05-.07.04-.03.06-.04.17-.03.06-.1.02-.05-.13-.04-.27-.14-.09-.11.04-.11.11-.12.1.23.07.05.16-.07.19-.27.4-.05.11-.02.12.02.12.03.1v.1s-.05.11-.05.11l-.29-.07-.22.11-.38.4-.24.2-.06.11-.02.17-.04.13-.1.07h-.11s-.07-.11-.07-.11l.08-.29.5-.48.06-.19-.11-.06-.23.12-.04-.09.12-.06.06-.06-.02-.07-.04-.06-.06-.18h-.06l-.06.31-.24.03-.3-.12-.24-.15.04.14.08.08.12.04h.15s-.19.35-.19.35v.17s.06.24.06.24l-.22.21-.21.21-.14.33-.07.32v.26s.13.17.13.17l-.18.18-.06.11-.19.24-.02-.18-.02-.2.14-.2-.02-.32-.02-.17-.06-.17-.09-.17-.1-.13-.13-.09-.18-.06h-.58s-.18-.06-.18-.06l-.23-.17-.12-.03-.09.13.02.18.16.03.21-.03h.18s.29.37.29.37l-.09.39-.25.41-.27.12-.48-.18-.12.02-.07.06-.06.08-.08.08-.24.06-.14-.13-.11-.13-.14.07.14.19-.06.14-.13.24.04.31-.08.07-.04.23.14.18-.2.19-.17.1-.03-.18v-.15s.08-.16.08-.16l-.08-.13-.06-.2-.04.07-.15.18.08.12.03.12v.1s-.32.08-.32.08l-.11.04-.84.61-.15-.94-.42-.07-.68.45-.31-.25.22-.19-.23-.04-.41.52.1.44-.31.45.21.35-.06.22-.87.94-1.07-.05-.83-.34-.24-.28-.19.03v.38l.46.5.64.05.18-.17.28-.02.17.18.36-.06.27.8.26.04-.19.22-.73-.6-.36-.04.44.35-.41.27-.23.48-.29-.14-.04-.56-.39-.08-.57.12.17.31.34-.21.38.12-.55.6-.11.33.28.84-.38.19-.25.55-.34-.07-.73.17-.84-.47-.7-.04-.12.09.75.14-1.27,1.02-.46.2-.04-.4.3-.24-.76-.36.42.4-.1.2-.74.29-.36.3-.69.09-.68.45-.2-.48.24.2-.08-.36-.63-.34h-.37s.06-.17.06-.17l-.18-.08.08-.21.27-.04.08-.28-.36.05-.36.33-.7.15-.16.26-.26-.12.14-.31-.39-.02-.51-.32-.19.13-.23-.06.2.23.34-.11.18.09.1.38-.24.11.85.12.49-.25-.79.9-.03.24.3.25.11-.3.21.09-.26.29.12.35h-.36s-.66-.3-.66-.3l-.85.06-.32-.36.11-.13.68-.14-.12-.24-.44.23-.31-.23h-.9s0-.16,0-.16l.81-.42-.03-.5-.23.09-.43.56-.67.13.07.34-.44-.25-.63.14-.44.55.1.27-.41.18-.29-.13-.12-.47-.14-.07-.09.16-.5-.18.18.15v.24s.42.04.42.04l.37.38-.6.73.16.35-.22.12-.15-.11.06-.3-.19-.1-1.04.11-.1-.18-.06-.55.15-.23-.11-.37.74-.54-.34-.24-.28.32-.55-.1-.54.35-.69.21.07.28-.46-.03-.14.55.71-.08.07.11-.88.76.13.12.31-.18.69.51-.95.57-.29-.14-.05-.72-.66-.61-.85.09-.09.16-.29-.02-.43.3-.53-.07-.23.24-.62.08" vector-effect="none"/>
  <path class="st4" d="M353.16,331.07l-.03.15-.41.15-.06.31-.25.25.13.17.44.1.1-.83.29.89-.61.08-.49.99-.75-.02.7-.16-.13-.13-.83.38-.35-.05-1.39,1.04-.31.48-.5-.07.45.32-.13.64-.22-.29.07.47-.12.07-.67-.07v-.15l.42-.03.06-.39-.13.2-.13-.13v.13l-.1-.06-.16.18-.62.02-.58.3-.37-.21-.46.09-.13,1.14-.25-.18-.32.18.64.13-.1.32-.25.19-.22-.38-.66.34.09.3-.51.06.06-.22-.19-.26.13-.35-.3.29.04.16-.22-.03-.3.19-.13-.11.42-.25-.03-.2-.13.07-.49-.41-2.07-.15-.52.17-.25-.68-1.35-.07-1.82-1.1-1.03-.27-.1-.37.16-.46.02-1.07-.65-1.2.3-.88-.38-1.47.45-.51h.19l-.18-.5-.39-.07.15-.29-.06-.35.42-.38-.07-.15.16-.32.71-.1.25-.32.74-.32.51-.45.19.13-.04-.21.63-.77,1.38-.49.33-.27.18-.43.44-.06.45.19-.3-.43.18-.02-.07-.13.19-.13-.32-.06-1.02.64.03-.75.76-.59.06-.27.45-.22.17.28.44.02.41.26.29-.11.2.36.58-.26.51.06-.57-.25-.04-.21.39-.11-.24-.12-.04-.2.64-.39,1.15-.16v.49s.17-.19.17-.19l.65.25.08-.37.18.17v.4s.33-.21.33-.21l.12-.29.55-.06.31.54h-.22s.36.25.36.25l.15-.04-.13-.14.21-.14v-.15s.5-.2.5-.2l.39.13.12-.09.25-.3-.32.2h-.44l.57-.26.25-.51.97.32.78-.23.3.29-.08.18.46.78-.08-.53-.24-.3v-.63l.39.31.96.25-.06.13.28.17.12.04.11-.14.28.71.16-.16v-.29l-.21-.46-.28-.09-.04-.36.25-.35.55-.09.24-.43.31.82.72.6.76.12.47-.14.13.16.4,1.2.16,1.6.37.48-.64.06-1,.94-.27-.16-.11-.36.41-.17-.14-.13-.38.09-.11.11.25.44-.24.65-.33.25-.02.25-.55.13-.26.33.08.44-.34.2-.18.76-.38.7-.65.05-.29-.18.26.34.36-.07.08.49.25-.58-.18.88-.42.58-.05.74" vector-effect="none"/>
  <path class="st1" d="M410.66,135.73c0,1.56-1.27,2.83-2.83,2.83s-2.83-1.27-2.83-2.83,1.27-2.83,2.83-2.83,2.83,1.27,2.83,2.83" vector-effect="non-scaling-stroke"/>
  <path class="st1" d="M381.92,134.02c0,1.56-1.27,2.83-2.83,2.83s-2.83-1.27-2.83-2.83,1.27-2.83,2.83-2.83,2.83,1.27,2.83,2.83" vector-effect="non-scaling-stroke"/>
  <path class="st1" d="M449.7,215.82c0,1.56-1.27,2.83-2.83,2.83s-2.83-1.27-2.83-2.83,1.27-2.84,2.83-2.84,2.83,1.27,2.83,2.84" vector-effect="non-scaling-stroke"/>
  <path class="st1" d="M457.95,216.51c0,1.57-1.27,2.83-2.83,2.83s-2.83-1.27-2.83-2.83,1.27-2.83,2.83-2.83,2.83,1.27,2.83,2.83" vector-effect="non-scaling-stroke"/>
  <path class="st1" d="M381.66,291.94c0,1.57-1.27,2.83-2.83,2.83s-2.83-1.27-2.83-2.83,1.27-2.83,2.83-2.83,2.83,1.27,2.83,2.83" vector-effect="non-scaling-stroke"/>
  <path class="st1" d="M175.55,231.13c0,1.57-1.27,2.83-2.83,2.83s-2.83-1.27-2.83-2.83,1.27-2.83,2.83-2.83,2.83,1.27,2.83,2.83" vector-effect="non-scaling-stroke"/>
  <path class="st1" d="M154.76,234.84c0,1.56-1.27,2.83-2.83,2.83s-2.83-1.27-2.83-2.83,1.27-2.83,2.83-2.83,2.83,1.27,2.83,2.83" vector-effect="non-scaling-stroke"/>
  <path class="st1" d="M412.88,131.96c0,1.56-1.27,2.83-2.83,2.83s-2.83-1.27-2.83-2.83,1.27-2.83,2.83-2.83,2.83,1.27,2.83,2.83" vector-effect="non-scaling-stroke"/>
  <rect class="st0" x="-117.03" y="-150.23" width="841.71" height="595.05"/>
  <text class="st2" transform="translate(328.47 289.41)"><tspan x="0" y="0">Guangzhou</tspan></text>
  <text class="st2" transform="translate(413.05 129.43)"><tspan x="0" y="0">Mutianyu</tspan></text>
  <text class="st2" transform="translate(114.26 232.31)"><tspan x="0" y="0">Shigatse</tspan></text>
  <text class="st2" transform="translate(413.17 219.49)"><tspan x="0" y="0">Suzhou</tspan></text>
  <text class="st2" transform="translate(346.07 131.6)"><tspan x="0" y="0">Datong</tspan></text>
  <text class="st2" transform="translate(387.06 146.07)"><tspan x="0" y="0">Beijing</tspan></text>
  <text class="st2" transform="translate(175.59 228.71)"><tspan x="0" y="0">Lhasa</tspan></text>
  <g>
    <path class="st3" d="M285.01,225.31h3.48c.29,0,.54.08.73.23s.34.35.44.59c.1.24.15.5.15.77,0,.32-.06.62-.19.91-.13.29-.31.55-.53.78-.23.23-.49.4-.78.53.32.11.57.31.75.6.18.29.26.62.26,1,0,.33-.07.64-.2.94-.14.29-.32.55-.57.77-.24.22-.51.39-.8.52-.29.12-.59.19-.9.19h-3.49l1.66-7.81ZM286.93,232.61c.23,0,.45-.05.67-.16.22-.11.41-.25.58-.43.17-.18.3-.39.41-.62s.15-.46.15-.69-.04-.45-.13-.64c-.08-.19-.21-.35-.36-.47s-.35-.18-.57-.18h-2.99l-.68,3.2h2.92ZM287.5,228.94c.23,0,.45-.05.65-.16.21-.11.39-.25.56-.43.16-.18.29-.38.39-.6s.14-.46.14-.7c0-.34-.09-.64-.26-.87-.18-.24-.43-.36-.75-.36h-2.76l-.66,3.12h2.69Z"/>
    <path class="st3" d="M289.6,235.12c.3-.05.55-.12.74-.22.19-.1.36-.23.52-.41.16-.18.34-.42.53-.73l.4-.59-1.22-5.76h.57l1.03,5.17.53-.83c.33-.53.61-.99.83-1.38.22-.4.42-.75.58-1.08.16-.32.3-.63.4-.93.11-.3.21-.61.3-.94h.55c-.1.35-.2.68-.31.99-.11.31-.25.63-.42.96-.17.33-.37.71-.62,1.13-.25.42-.55.92-.92,1.5l-.9,1.42c-.26.41-.49.75-.69,1.01-.2.27-.4.48-.58.65-.19.16-.38.28-.58.36-.2.08-.43.13-.68.15l-.07-.45Z"/>
    <path class="st3" d="M301.77,225.31h.48l1.46,7.81h-.59l-.45-2.57h-3.55l-1.55,2.57h-.6l4.81-7.81ZM302.59,230.08l-.72-4.09-2.47,4.09h3.19Z"/>
    <path class="st3" d="M305.92,227.41h.52l-.3,1.37c.21-.29.46-.55.75-.76.29-.21.59-.38.92-.51s.65-.19.97-.19c.29,0,.53.05.71.16.18.11.31.26.4.46.08.21.13.45.13.75,0,.17-.01.35-.04.54-.03.19-.06.4-.1.61l-.69,3.28h-.55l.67-3.18c.04-.2.08-.39.09-.56.02-.17.03-.32.03-.46,0-.37-.08-.65-.23-.83s-.38-.27-.69-.27-.61.08-.93.23c-.32.15-.62.36-.9.63-.28.27-.5.57-.67.9l-.75,3.53h-.55l1.21-5.71Z"/>
    <path class="st3" d="M312.98,233.23c-.42,0-.78-.11-1.08-.33-.3-.22-.54-.52-.7-.88s-.25-.76-.25-1.18c0-.45.09-.88.26-1.29.18-.42.41-.79.71-1.12.3-.33.64-.6,1.02-.79.38-.2.78-.3,1.2-.3.48,0,.87.13,1.18.39.31.26.53.58.66.94l.26-1.25h.56l-1.06,4.91s-.01.04-.02.07c0,.02,0,.04,0,.07,0,.11.06.16.19.16l-.11.5s-.08,0-.12.01c-.04,0-.07,0-.1,0-.13,0-.23-.05-.3-.12-.07-.07-.1-.16-.1-.26,0-.04,0-.08.01-.12,0-.04.02-.11.04-.21.02-.1.05-.24.08-.43-.29.38-.65.68-1.07.91s-.84.34-1.26.34ZM313.18,232.73c.21,0,.42-.04.65-.12.23-.08.46-.19.67-.33.22-.14.41-.31.57-.49.17-.19.28-.38.36-.58l.4-1.87c-.04-.27-.13-.52-.29-.74-.15-.23-.35-.41-.59-.55-.24-.14-.5-.21-.8-.21-.34,0-.68.09-1,.26s-.6.41-.85.69c-.25.29-.44.6-.58.95-.14.35-.21.7-.21,1.05s.07.68.21.98c.14.3.34.53.59.72.25.18.54.27.86.27Z"/>
    <path class="st3" d="M323.27,233.17c-.46,0-.87-.09-1.21-.27-.35-.18-.64-.43-.88-.74s-.42-.65-.54-1.04c-.12-.39-.18-.78-.18-1.18,0-.44.07-.88.21-1.33.14-.44.34-.87.59-1.27.26-.4.57-.76.92-1.07.36-.31.76-.56,1.21-.74s.93-.28,1.45-.28c.69,0,1.23.16,1.63.48.4.32.66.73.79,1.22l-.48.24c-.1-.36-.26-.65-.46-.86-.2-.21-.44-.36-.7-.45-.26-.08-.54-.13-.85-.13-.57,0-1.09.12-1.55.37-.46.25-.86.58-1.18.98s-.58.85-.76,1.34c-.18.49-.27.97-.27,1.45s.09.95.28,1.36c.19.42.45.75.8,1.01.35.25.77.38,1.27.38.29,0,.6-.05.92-.16s.63-.27.94-.5.58-.52.82-.88l.44.23c-.26.4-.57.74-.93,1.01s-.74.47-1.14.61c-.39.13-.78.2-1.15.2Z"/>
    <path class="st3" d="M329.49,233.23c-.42,0-.78-.11-1.08-.33-.3-.22-.54-.52-.7-.88s-.25-.76-.25-1.18c0-.45.09-.88.26-1.29.18-.42.41-.79.71-1.12.3-.33.64-.6,1.02-.79.38-.2.78-.3,1.2-.3.48,0,.87.13,1.18.39s.53.58.66.94l.26-1.25h.56l-1.06,4.91s-.01.04-.02.07c0,.02,0,.04,0,.07,0,.11.06.16.19.16l-.11.5s-.08,0-.12.01c-.04,0-.07,0-.1,0-.13,0-.23-.05-.3-.12-.07-.07-.1-.16-.1-.26,0-.04,0-.08.01-.12,0-.04.02-.11.04-.21.02-.1.05-.24.08-.43-.29.38-.65.68-1.07.91-.42.23-.84.34-1.26.34ZM329.69,232.73c.21,0,.42-.04.65-.12.23-.08.45-.19.67-.33.22-.14.41-.31.57-.49.17-.19.28-.38.36-.58l.4-1.87c-.04-.27-.13-.52-.29-.74-.15-.23-.35-.41-.59-.55-.24-.14-.5-.21-.8-.21-.34,0-.68.09-1,.26-.32.17-.6.41-.85.69-.25.29-.44.6-.58.95-.14.35-.21.7-.21,1.05s.07.68.21.98c.14.3.34.53.59.72s.54.27.86.27Z"/>
    <path class="st3" d="M335,227.41h.53l-.31,1.41c.29-.42.63-.76,1-1,.37-.25.75-.38,1.12-.4.05,0,.1,0,.14,0,.04,0,.08,0,.11,0l-.11.5c-.48.01-.94.17-1.37.46-.43.29-.77.69-1.02,1.19l-.76,3.57h-.55l1.21-5.71Z"/>
    <path class="st3" d="M339.57,233.23c-.48,0-.89-.11-1.21-.32-.32-.22-.56-.5-.72-.87-.16-.36-.24-.76-.24-1.19,0-.49.09-.95.27-1.38s.42-.8.73-1.12c.31-.32.66-.57,1.06-.76.4-.18.82-.27,1.25-.27.48,0,.89.11,1.21.33.32.22.56.51.72.87.16.36.24.76.24,1.2,0,.48-.09.93-.26,1.36s-.42.8-.73,1.12c-.31.32-.66.58-1.06.76-.4.18-.82.27-1.26.27ZM339.67,232.73c.34,0,.66-.07.98-.22.32-.15.6-.35.85-.62s.45-.58.6-.93c.15-.35.22-.74.22-1.16,0-.37-.06-.71-.19-1.01-.13-.3-.32-.54-.57-.72-.25-.18-.56-.27-.94-.27-.34,0-.66.07-.98.22-.32.15-.6.36-.85.63-.25.27-.45.58-.6.94s-.22.74-.22,1.16c0,.37.06.7.19,1,.12.3.31.54.57.71.25.17.57.26.94.26Z"/>
    <path class="st3" d="M344.51,233.23c-.25,0-.44-.07-.58-.21s-.21-.32-.21-.56c0-.04,0-.09.01-.14,0-.05.01-.09.02-.14l1.5-7.1h.55l-1.46,6.94s-.01.07-.02.1c0,.03,0,.06,0,.1,0,.33.18.5.54.5.08,0,.18-.01.29-.03.11-.02.21-.05.31-.08v.44c-.12.04-.28.08-.46.12-.18.04-.34.06-.47.06Z"/>
    <path class="st3" d="M347.46,227.41h.55l-1.21,5.71h-.55l1.21-5.71ZM347.95,225.1h.55l-.21,1.01h-.55l.21-1.01Z"/>
    <path class="st3" d="M349.67,227.41h.52l-.3,1.37c.21-.29.46-.55.75-.76.29-.21.59-.38.92-.51s.65-.19.97-.19c.29,0,.53.05.71.16.18.11.31.26.4.46.08.21.13.45.13.75,0,.17-.01.35-.04.54-.03.19-.06.4-.1.61l-.69,3.28h-.55l.67-3.18c.04-.2.08-.39.09-.56s.03-.32.03-.46c0-.37-.08-.65-.23-.83s-.38-.27-.69-.27-.61.08-.93.23c-.32.15-.62.36-.9.63-.28.27-.5.57-.67.9l-.75,3.53h-.55l1.21-5.71Z"/>
    <path class="st3" d="M356.73,233.23c-.42,0-.78-.11-1.08-.33-.3-.22-.54-.52-.7-.88s-.25-.76-.25-1.18c0-.45.09-.88.26-1.29.18-.42.41-.79.71-1.12.3-.33.64-.6,1.02-.79.38-.2.78-.3,1.2-.3.48,0,.87.13,1.18.39s.53.58.66.94l.26-1.25h.56l-1.06,4.91s-.01.04-.02.07c0,.02,0,.04,0,.07,0,.11.06.16.19.16l-.11.5s-.08,0-.12.01c-.04,0-.07,0-.1,0-.13,0-.23-.05-.3-.12-.07-.07-.1-.16-.1-.26,0-.04,0-.08.01-.12,0-.04.02-.11.04-.21.02-.1.05-.24.08-.43-.29.38-.65.68-1.07.91-.42.23-.84.34-1.26.34ZM356.93,232.73c.21,0,.42-.04.65-.12.23-.08.45-.19.67-.33.22-.14.41-.31.57-.49.17-.19.28-.38.36-.58l.4-1.87c-.04-.27-.13-.52-.29-.74-.15-.23-.35-.41-.59-.55-.24-.14-.5-.21-.8-.21-.34,0-.68.09-1,.26-.32.17-.6.41-.85.69-.25.29-.44.6-.58.95-.14.35-.21.7-.21,1.05s.07.68.21.98c.14.3.34.53.59.72s.54.27.86.27Z"/>
    <path class="st3" d="M365.62,225.31h.56l1.88,5.59,4.27-5.59h.55l-1.66,7.81h-.56l1.44-6.75-4.01,5.27h-.35l-1.77-5.27-1.44,6.75h-.56l1.66-7.81Z"/>
    <path class="st3" d="M375.29,233.23c-.48,0-.89-.11-1.21-.32-.32-.22-.56-.5-.72-.87-.16-.36-.24-.76-.24-1.19,0-.49.09-.95.27-1.38s.42-.8.73-1.12c.31-.32.66-.57,1.06-.76.4-.18.82-.27,1.25-.27.48,0,.89.11,1.21.33.32.22.56.51.72.87.16.36.24.76.24,1.2,0,.48-.09.93-.26,1.36s-.42.8-.73,1.12c-.31.32-.66.58-1.06.76-.4.18-.82.27-1.26.27ZM375.38,232.73c.34,0,.66-.07.98-.22.32-.15.6-.35.85-.62s.45-.58.6-.93c.15-.35.22-.74.22-1.16,0-.37-.06-.71-.19-1.01-.13-.3-.32-.54-.57-.72-.25-.18-.56-.27-.94-.27-.34,0-.66.07-.98.22-.32.15-.6.36-.85.63-.25.27-.45.58-.6.94s-.22.74-.22,1.16c0,.37.06.7.19,1,.12.3.31.54.57.71.25.17.57.26.94.26Z"/>
    <path class="st3" d="M380.43,227.41h.53l-.31,1.41c.29-.42.63-.76,1-1,.37-.25.75-.38,1.12-.4.05,0,.1,0,.14,0,.04,0,.08,0,.11,0l-.11.5c-.48.01-.94.17-1.37.46-.43.29-.77.69-1.02,1.19l-.76,3.57h-.55l1.21-5.71Z"/>
    <path class="st3" d="M385.06,233.23c-.45,0-.84-.11-1.17-.33s-.58-.51-.75-.88-.27-.77-.27-1.21c0-.45.07-.88.23-1.29.16-.42.38-.79.68-1.12.3-.33.65-.6,1.04-.79s.84-.29,1.31-.29c.34,0,.66.06.94.18.28.12.51.29.67.51s.25.52.26.87c0,.58-.23.99-.72,1.24-.49.25-1.24.37-2.25.37-.25,0-.52,0-.81-.02s-.62-.03-.99-.06l.1-.41c.37.02.7.04.97.05s.53.02.77.02c.62,0,1.1-.05,1.45-.14.35-.09.6-.23.75-.41s.22-.4.21-.65c0-.26-.07-.47-.2-.63-.14-.16-.31-.28-.52-.36-.21-.08-.44-.11-.68-.11-.39,0-.75.09-1.07.26-.33.17-.61.4-.85.69-.24.29-.42.61-.54.96-.12.35-.19.71-.19,1.06,0,.38.08.72.21,1.04s.33.56.59.74.57.27.95.27c.43,0,.81-.1,1.16-.31s.61-.49.8-.84l.47.14c-.16.29-.37.54-.63.76s-.55.39-.87.51c-.32.12-.67.18-1.05.18Z"/>
    <path class="st3" d="M389.74,227.41h.52l-.3,1.37c.21-.29.46-.55.75-.76.29-.21.59-.38.92-.51s.65-.19.97-.19c.29,0,.53.05.71.16.18.11.31.26.4.46.08.21.13.45.13.75,0,.17-.01.35-.04.54-.03.19-.06.4-.1.61l-.69,3.28h-.55l.67-3.18c.04-.2.08-.39.09-.56s.03-.32.03-.46c0-.37-.08-.65-.23-.83s-.38-.27-.69-.27-.61.08-.93.23c-.32.15-.62.36-.9.63-.28.27-.5.57-.67.9l-.75,3.53h-.55l1.21-5.71Z"/>
    <path class="st3" d="M396.92,233.23c-.48,0-.89-.11-1.21-.32-.32-.22-.56-.5-.72-.87-.16-.36-.24-.76-.24-1.19,0-.49.09-.95.27-1.38s.42-.8.73-1.12c.31-.32.66-.57,1.06-.76.4-.18.82-.27,1.25-.27.48,0,.89.11,1.21.33.32.22.56.51.72.87.16.36.24.76.24,1.2,0,.48-.09.93-.26,1.36s-.42.8-.73,1.12c-.31.32-.66.58-1.06.76-.4.18-.82.27-1.26.27ZM397.02,232.73c.34,0,.66-.07.98-.22.32-.15.6-.35.85-.62s.45-.58.6-.93c.15-.35.22-.74.22-1.16,0-.37-.06-.71-.19-1.01-.13-.3-.32-.54-.57-.72-.25-.18-.56-.27-.94-.27-.34,0-.66.07-.98.22-.32.15-.6.36-.85.63-.25.27-.45.58-.6.94s-.22.74-.22,1.16c0,.37.06.7.19,1,.12.3.31.54.57.71.25.17.57.26.94.26Z"/>
  </g>
  <text class="st6" transform="translate(91.27 168.51)"><tspan x="0" y="0">China travel journal</tspan></text>
  <rect class="st5" x="117.19" y="182.37" width="285.31" height="20.99"/>
  <text class="st7" transform="translate(121.93 196.94)"><tspan x="0" y="0">Costs, expenses and lifelong memories</tspan></text>
</svg>