<?xml version="1.0" encoding="UTF-8"?>
<svg id="Layer_1" xmlns="http://www.w3.org/2000/svg" xmlns:inkscape="http://www.inkscape.org/namespaces/inkscape" xmlns:cc="http://creativecommons.org/ns#" baseProfile="tiny" version="1.2" viewBox="0 0 1200 720">
  <!-- Generator: Adobe Illustrator 29.6.1, SVG Export Plug-In . SVG Version: 2.1.1 Build 9)  -->
  <path d="M762.46,619.68l-.06.03v.07s-.22.03-.22.03l-.17.09-.06.19h-.24l-.06-.07h0s-.04-.06-.04-.06h0s-.31-.16-.31-.16l-.35-.15-.22-.02-.06-.03h-.25l-.13-.08-.06.18-.16.09-.05.24v.2s-.02.19-.02.19l-.22.03-.2.03-.18-.03-.03.02-.06.03v.15s-.36.47-.36.47l-.17-.39-.13-.09-.12-.31-.03-.31.29-.05.22-.13-.26-.29-.66-.47-.18-.18-.21-.29-.17-.32-.25-.5-.1-.57-.38-.2-.15-1.17-.12-.35-.25-.14-.59-.04-.23.04-.08.07-.07.11-.12.09h-.23l-.34-.22.05-.34.11-.39-.13-.39-.21-.28-.2-.36-.28-.69-.11.26v.27s.04.26.04.26l.08.23-.21-.21-.06-.36.05-.39.1-.32-.14.13-.09.15-.04.17-.07-.16.35-.84.1-.41.04-.43.09-.37.26-.67h-.14l-.26.51-.08.25-.05.6-.13.6-.09.23-.03-.21v-.28l.06-.29.11-.24-.03-.27.04-.26.22-.63-.33.48-.23,1.04-.19.27.11-.35.03-.39v-.8s-.36.46-.36.46l-.19.17-.22.02-.17-.17-.07-.28v-.51s.14-.47.14-.47l.37-.39.47-.26,1.01-.2,1-.44.52-.1.2.08.24.14.26.08.48-.19.3.06.53.2-.31-.23-.28-.08-.68-.07-.29-.1-.47-.23-.3-.04-.54.13-.87.61-.6.14-.1.08-.68.34-.16.03-.09.21-.23.15-.28.09h-.27s-.9-.51-.9-.51l-.51-.14-.34.26.38.33.59.06.55.2.39.58.03.57-.23.67-.19.34.06.12v.09s-.19.12-.19.12h-.11s-.39-.19-.39-.19l-.3-.05-1.71.63-.53.07-1.73-.33v.14l.4.09.43.03.1.06.35.26.17.06.37-.07.35-.12.34-.04.32.17,1.06,1.21.26.22.99.55-.56.23-.21.13-.23.29-.25-.19-.89-.33.32.36,1.07.42.23.17.18.31.73.53.68.62.19.45.65.73-.08.97-.59.8-.29.8.09.78.12.28.43.18.53.02-.2.37-.04.17v.29s-.09.18-.09.18l-.17.12-.17.17.02.29.04.34.12.06.11.19-.04.29-.49.08-.15.27-.26-.05-.28.16.12.19h0s-.03.05-.03.05l-.12.16-.44.37-.25.31-.45-.05-.62-.52-.12-.42-.13-.31-.87-.79-.04-.13-.04-.34-.06-.16-.1-.12-.88-.66-.49-.53-.38-.6-.24-1-.2-.4-1-1.59-.22-.21-.13,1.29.03.36.1.16.43.3.69.69,1.39,2.16.28.39.19.39.47.46.19.25.69.94-.72.15h-.22l-.46-.23-.23-.04-.19.05-.09.12-.06.17-.17.27-.07.15-.07.09-.09.04-.19.02-.23.4-.08.23.17.39v.22s-.08.19-.08.19l-.08.12-.3.21-.3-.04-.35-.02-.3.1-.38.3-.33-.23-.38-.54-.15-.62.08-.26.17-.33-.12-.24.17-.32-.15-.21-.11-.29-.05-.31v-.28s-.46.22-.46.22l-.14,1.13-.36.49-.57-.41-.11.32.03.46-.08.36-.03.45.04.42v.26l.08.35-.03.33-.04.14.04.09.14.2-.06.22-.17.13-.27.07h-.13s-.1.03-.1.03l-.04.16-.02.15-.09.25-.02.11-.13.17-.29.31-.51.19-.32.17-.59-.35-.15-.35-.22-.73-.14-.29-.19-.24-.27-.1-.2.09-.13.16-.13.11-.22-.09-.82.37-.07.12-.05.53-.13.12-.45-.03-.1.03-.08.09-.1.2-.1.1-.74.39.04.5-.26.51-.46.39-.53.15-.52-.11-1.97-1.04-.32-.31-.2-.43-.07-.61.24-.31,1.05-.51.22-.4h-.14l-.32.19-.6.19-.58.05-.26-.24-.04-.14-.18-.26-.04-.18.02-.15.08-.23.2-.93.09-.23-.35.19-.24.45-.14.54-.02.48.25.77.32.56.06.14-.05.47v.26s.11.11.11.11l.07.11.06.25.06.49-.04.19-.17.3-.09.54-.12.14-.16.11-.17.17-.57.17-.84.28-.76.04-.33-.43-.18-.11-.36-.13-.26-.2.12-.33.18-.3.08-.38-.04-.37-.15-.31-.19.38-.17.16-1.6.35-.7.02-.35-.04-.28-.13-.11-.26.11-.3.45-.52.07-.4h-.13l-.28.45-.47.48-.44.19-.32-.77-.32-.47-.41-.43-.39-.22-.03.49.03.59.09.57.16.4.3.28.47.26.52.18.46.03-.15.2-1.42.83-.16.06-.03.13v.13l-.07.06-.09.05-.21.25-.14.09-.16.03-.53-.03-.04-.13.1-.26.21-.16.29.17h.13l-.03-.21-.1-.13-.17-.09-.2-.08-.25.16-.12-.22v-.39s.1-.33.1-.33l-.23.27-.28.16-.24-.02-.11-.29-.33.12h-.22s-.59-.25-.59-.25l-.09.08-.37-.11-.42-.24.32.37,1.19.66.22.38.13.56-.11.48-.49.12.25.07.22.09.18.14.1.22-.73.03-.36-.03-.28-.13-.41.37-.45.84-.26.33-.2.14-.18.06-.2-.06-.24-.22-.1-.18-.08-.21-.1-.19-.17-.12-.02.26.02.24.08.22.17.18-.33.07-.39.14-.34.03-.2-.25h-.11l-.08.18-.22.12-.28.07-.24.02-.15-.09-.02-.21.1-.47-.32.06-.2-.23-.22-.74-.15.24-.22.26-.02.15.08.2.28.26.13.19-.92-.14h-.46s-.24.27-.24.27l.25-.11h.25s.51.11.51.11l-.2.13-.56.24-.12.11-.22.26-.95.69-.46.21-.26-.1.29-.14.21-.25.38-.64-.39-.13-.44-.2-.43-.13-.36.07-.11-.22-.26.02-.63.2v.13h.25l-.07.09-.05.05.12.13.23-.12.27-.03.27.04.23.12-.77.26-.42.17-.33.2-.17-.11-.26-.03h-.58s0-.13,0-.13l.77-.25v-.12l-.06-.06-.05-.08-.13.11-.17.1-.18.06h-.17s-.17-.1-.17-.1v-.09s0-.1,0-.1l-.07-.1-.75-.33-.12-.18-.08.25-.21.13-.47.14.18.11.12.33.22.08-.23.43-.17.14-.23.05v.14h.29s.23-.1.23-.1l.16-.15.06-.21.12-.19.28-.1.3.02.18.2-.46.06-.34.24-.59.59-.5-.15-.45.2-.44.3-.44.15-.07.04-.23.17-.14.06v-.03s-.32-.08-.32-.08l-.41-.06-.43-.18-.29-.04-.41.12-.44.28-.72.64-.27.33-.25.4-.21.45-.14.47h-.11l.07-1.01.15-.42.27-.21h-.24s-.17.11-.17.11l-.12.17-.1.22-.02-.29-.11-.17-.07-.16.09-.28.15-.08.49-.13.38-.33.59-.08.56-.19.2-.59h-.12l-.6.48-1.68.71-.34.66-.02.83.08.19.43.71-.12.42h-.36s-.77-.31-.77-.31l.04.12.06.11.07.09.09.08-1.96.16-.34.09-.29.16-.3.23h-.13l.05-.27.16-.38.03-.24-.07-.23-.12-.19-.02-.14.21-.08-.03-.11-.05-.07-.07-.05-.09-.04h.06s.05-.01.05-.01l.03-.02v-.08s.11,0,.11,0l.16.07.19.04.18.08.12.19h.11l.02-.16.04-.09.08-.13v-.14h-.14l-.1.11h-.13s-.17-.07-.17-.07l-.22-.04v-.12l.76-.39v-.13l-.16-.02-.09.03-.07.05-.07.06v-.37l-.26.31-.17.33-.15.1-.17-.37v-.24s.24-1.04.24-1.04h-.11l-.21.38-.34-.18-.59-.71.17-.24.08-.07.12-.06v-.14l-.57.31.25.61.41.73-.09.66-.07-.05-.17-.07.11.26-.27-.07-.43-.25-.31-.07v.13l.25.1.28.2.17.25-.06.23v.12l.2.13.2.18.16.2.07.2.04.08.17.14.04.11v.16s-.06.13-.06.13l-.06.09-.02.07v.28s-.07.32-.07.32l-.1.26-.15.11-.2.08-.51.36-.25.32-.34.16-.64.22-.2.13-.87,1.05-.06.1-.16-.13-.08-.28-.03-.33v-.28s-.15.2-.15.2l-.09.23-.12.47-.12.26-.38.64-.26-.12v.12l.22.16v.28s-.07.35-.07.35l-.03.36.09.33.32.55.1.27-.18-.2-.06-.07h-.13l.07.16.02.11-.02.11-.07.14.07.02h.04l.02.02v.09s.09,0,.09,0v-.02s0-.04,0-.04l.03-.05.13.02.05.03h.06l.15-.05v.24l.37-.09,1.38-.03.25-.19.34-.14.3.02.11.31.13-.13.12.17.11.07.09-.05.06-.19.31.43.3.67.12.73-.23.61-.25.09-.26-.12-.23-.24-.14-.26-.03-.28.02-.77-.12-.35-.15.29-.09.11-.13.11.21.29v.2s-.19.15-.19.15l-.27.13.12.13-.07.02h-.03v.02s-.02.09-.02.09l.54.25-.15.35-.38.43-.15.51.13-.06.1-.09.09-.11.06-.13h.12l.03.25-.02.22-.08.18-.17.12.21.11h.25s.23-.11.23-.11l.2-.13v.39l.17-.23h.16s.16.15.16.15l.14.19-.09.17.1.21.2.18.3.11.33.17.16.06h.12s.27-.01.27-.01h.11s.3.29.3.29l.3.47.42.92-.34.81-.24.41-.36.18-.13.11-.31.66-.95,1.06-.12.08-.43-.08h-.27s-.12.15-.12.15l-.2.34-.45.18-.47.13-.25.19-.27-.21-.17-.1-.2-.07-.16-.03-.53.03-.21.06-.07.13-.03.13-.06.06-1.11.09-.33-.09-.3-.33-.14-.05-.15-.02-.15-.06-.11-.1-.05-.13-.07-.11-.16-.07-.2-.03h-.19s-.1.09-.1.09l-.18.25-.1.06h-.09s-.1-.05-.1-.05l-.07-.04v-.03s-.47.1-.47.1l-.27.16-.12.3-.06.08-.14.14-.17.11-.14-.02-.05-.17.05-.21.08-.18.04-.07.08-.4.04-.43-.04-.16-.17-.29-.04-.19-.58-.26-.22-.18.29-.12-.5-.44.05-.07.24-.02.17-.06.11-.12.04-.2h.14l.21.23.56.43.23.25.31.52.14.06.06-.39.13-.24.25-.3.17-.32-.1-.29-.48-.36-.21-.21-.13-.26-.04.12-.05.11-.03.12v.16s-.27-.17-.27-.17l-.08-.25-.03-.29-.12-.31-.02.65-.05.31-.18.19-.05-.23-.09-.26-.12-.25-.12-.15-.25-.1-.6-.06-.26-.1-.14-.1-.1-.09-.05-.13.03-.2.08-.16.11-.03h.1s.08-.05.08-.05l.04-.19.02-.45.06-.27h-.12l-.25.77h-.12l-.04-.65-.31-.51-.48-.28-.55.03.11-.29-.03-.28.02-.25.26-.2.17-.03.09.05.1.07.22.04.16-.03.12-.1.28-.25.05.08.12.08.08.09.05-.1.08-.12.09-.11.08-.04.06-.07-.03-.14-.1-.08-.46.23h-.28s-.24.03-.24.03l-.13.28h-.13l-.49-.73-.07-.37.31-.32-.18-.18-.09-.3.04-.28.24-.12v-.14l-.39-.39v-.13h.14v-.12l-.12-.16-.14-.07-.14.04-.11.19.14.88-.2-.13-.26-.35-.17-.16.05.19.2.45-.52-.52-.43-.85-.08-.87.55-.58-.22-.28.03-.39.31-.86.06.04.14.05.06.04-.04-.44-.18-.48-.26-.44-.28-.31.11-.28.35-.59.16-.15.29-.1.15.11.15.16.29.09-.1-.29.15-.25.22-.22.11-.21-.05-1.04-.09-.18v-.13l.14-.22v-.36s-.14-.7-.14-.7l.19.04.14.1.07.16v.21s.23-.08.23-.08l.07-.15v-.17s.08-.11.08-.11l.16-.03.46.03,1.51-.13v-.14l-.35-.38.24-.43.42-.44.2-.39-.33.09-.17-.21.05-.27.31-.11v-.14l-.48.07-.57.14-.51-.02-.32-.45-.25.26v.14h.14v.11l-.16.18-.06.1-.05.13h-.13l-.21-.28-.07-.47.03-1.04-.32.15-.24-.1-.09-.22.15-.22v-.13l-.46.13h0s0,.55,0,.55l.23.63.24.34v.14h-.14v-.14h-.11l-.33.36-.6-.17-1.08-.7.19-.14.15-.59.16-.28-.07-.13-.03-.27-.03-.12.06-.06.06-.07.02-.1-.02-.15-.34.16-.39.25-.22.3.2.32-.13.03-.12-.02-.12-.05-.15-.08v-.13l.09-.14v-.22s-.04-.19-.04-.19l-.1-.08-.04-.09.23-.55-.38.29-.17.06-.07-.17-.02-.19-.08-.16-.12-.13-.16-.09.06-.37.06-.13-.13-.16.13-.24.25-.23.24-.15v-.12l-.2.03-.16-.02-.1-.09-.03-.18-1.37,1.15.1.06.05.07.04.06.06.06h-.06s-.13,0-.13,0h-.06v.13l.12-.04.26-.05.12-.04.02.36-.27.15h-.4s-.36-.13-.36-.13v.13l1.19.41.2.16.05.13.54.71-.03.1-.11.07-.07.08.02.59-.02.19-.07.1-.25.25-.05.1-.18.21-.82.32-.25.16-.1-.17-.02-.15.04-.15.08-.16-.15.12-.17.21-.14.22-.06.15-.11.13-.26.05-1.47-.02-.16-.09-.26-.41-.1.39-.3.29-.39.12-.34-.14-.09.08-.07.04-.05.04-.05.09h-.11l-.03-.51.03-.51-.22.25-.13.43-.09.59h-.78l-.27-.12-.14-.28-.09.21v.18s.08.15.08.15l.14.12-.33.04-.77-.44-.35-.12-.5-.11-.19-.24.07-.3.3-.26.41-.11.5-.07.42-.12.18-.27v-.81s-.13-.92-.13-.92h-.12l-.09.23h-.15s-.17-.13-.17-.13l-.11-.21h-.12l-.13.18-.18.05-.15-.1-.06-.26h-.12l-.07.08-.18.16.06-.21.09-.15.22-.27v-.13l-.34.13-.63.4-.39.12-.41.05h-.2s-.26-.05-.26-.05l-.31-.11-.13-.13-.26-.54-.09-.27-.08-.12-.11-.02-.29.05-.11-.02-.22-.23-.04-.03v-.17l.09-.07.11-.04.05-.1-.09-.49-.05-.03.08-.12.04-.03.04-.02.11-.08.18-.07.56-.07.11-.17.03-.07-.13.05-.23.03-.12.05.1-.26-.17.05-.14.08-.1.11-.09.13h-.12l-.15-.12v-.13l.1-.13.16-.5h-.12l-.2.26-.06.11-.1-.19v-.17s.1-.14.1-.14l.11-.13-.38.07-.72-.13-.4.06.17.08.59.19-.07.08-.02.06v.08s-.04.14-.04.14l.34-.05.18.29.02.43-.16.36-.11.11-.12.1-.1-.02-.05-.25v-.21s-.04-.21-.04-.21l-.11-.12-.24.09.1.11.03.06v.22s-.07-.07-.07-.07l-.03-.02h-.04s-.11-.04-.11-.04l.11.13-.06.08-.06.02h-.06s-.06.04-.06.04h.37v.13h-.13v.12l.43.25.32.26.08.33-.32.45.39-.05h.17s.17.05.17.05l-.21.33-.29-.04-.34-.18-.35-.11-.17.04-.1.11-.07.13-.1.1-.18.05h-.31s-.13.09-.13.09l.12.24-.22-.18-.04-.31-.07-.29-.3-.1v-.14l.4-.09.13.04.09.19h.11v-.78l-.17.14-.04.08-.03.16h-.13l-.35-.32.05-.39.17-.39v-.31s-.13.06-.13.06l-.12-.06-.2.45-.12.19-.2.13-.16-.19-.37-.15-.09-.18h.17l.15-.03.3-.1v-.12l-.33-.1-.24.03-.11-.02.05-.29.12-.21.17-.17.15-.2.07-.32h-.13l-.05.11-.12.15-.08.12-.12-.36v-.14h-.13v.24s0,.24,0,.24l-.05.22-.08.2h-.12l-.1-.17-.03-.08h-.12l.18.38.08.22v.18s-.63.12-.63.12v-.27s.06-.22.06-.22l.18-.4-.49.13-.2-.25.03-.34.24-.17.3-.16.39-.76.25-.25v-.12l-.24-.11-.51-.4v.12s-.04.08-.04.08l-.05.07-.04.1-.08-.05-.07-.02-.23-.05.07.06.06.02h.06s.07.04.07.04l-.19.08-.18-.04-.12-.15v-.26s.08-.11.08-.11l.16-.08.13-.14v-.3h-.12v.06s0,.13,0,.13v.06h-.14l-.03-.07-.1-.17-.04.3-.09.22-.15.17-.22.19-.08-.04-.3-.07v.12l.1.05.05.06.04.07.06.09-.31.09-.31.16-.12.2.24.19-.51-.13-.05-.45.31-1.08-.14.09-.1.11-.08.14-.05.17v.55s-.17.42-.17.42l.13.32.26.3.27.2h-.06s-.19,0-.19,0l.02.08.03.06.04.05.03.07.19-.13.16.11.11.22.04.18-.06.21-.11.15-.09.2v.33l-.17-.06h-.11s-.1,0-.1,0l-.13.05.22.07.21.09.19.11.15.13v.12h-.25v.08s.05.05.05.05h.02s.05,0,.05,0h-.02s-.04,0-.04,0h-.3v.13l.16.02.18.08.16.02v.13l-.07.09h0l.02.02.05.14.15-.54.13-.23.24-.12-.05.17-.08.09-.08.06-.05.07v.17s.04.16.04.16l-.04.17.1-.08.07-.04.06-.04.04-.1h.07s.03.02.03.02v.11s.07-.11.07-.11l.2-.27h.13l.1.37-.15.13-.22.11-.11.3.17-.12.08-.02-.11.27-.2.1-.23-.02-.21-.09v.13l.1.03.07.04.08.03h.14s-.05.2-.05.2l-.07.12-.11.06-.17.03.09.19.04.07-.51.22-.17.03-.02-.11.03-.22.13-.15.29.09v-.12l-.25-.26-.24.32-.12.11-.15.09.12.16.02.11-.08.07-.17.05v.13h.05s.18,0,.18,0v.12l-.94.1-.33-.05-.23-.28v-.38s.31-.09.31-.09l.26.11-.08.23.28-.02.13-.2.09-.55h-.11l-.09.1-.09.02-.09-.04-.11-.09v-.13l.09-.09.11-.08.14-.06.16-.03-.04-.15.12-.11.21-.08.21-.04v-.13l-.87.15-.25-.02.25-.28.06-.15-.06-.2-.05.1-.14.15-.07.13-.03-.1h-.02l-.07-.03-.1.23h-.22l-.88-.46-.03-.17.1-.36-.36.3-.18.52.02.56.27.4h-.39l.08.2.05.07-.14.06-.1.1-.08.14-.06.19h.28s.09,0,.09,0v.14l-.12.07-.33.26-.06.11-.04.25-.11.09-.16.03-.19.09-.59.49-.28.13v-.24s.15-.29.15-.29l.47-.65.13-.33v-.13s0-.13,0-.13l-.06-.14-.14-.18-.27-.24.02-.12.19-.22-.39.16-.12.09v-.06s0-.19,0-.19l-.08.02-.09.07-.07.04.13.11.08.13v.14l-.08.13v.12h.11l-.62.51-.34.08-.42-.19-.12.13.07.18-.08.05-.13-.06-.11-.16-.17.3h-.24s-.26-.08-.26-.08l-.23.02.2.31-.11.17h-.26s-.45-.29-.45-.29l-.27-.06h-.27s-.2.13-.2.13l.67.47.22.05-.38.03-.14.23.05.26.16.13.26-.05.21-.09.25-.05.36.05v.14l-.68.08-.49.21-.84.72h-.13l.03-.29.14-.24.34-.37v-.11l-2.48-2.14-.43-.73-1-.31-.6-.03-1,.61-1.41.36-1.46-.06-.43.51-.9-.27-.07-.65-.57-.39-1.43.98-.27-.25-.56-1.42-.56-.55-1.11.25-.73-.18-1.95-1.51-1.15-.28-.29-.64.62-.89-.21-.66-.7-.15-.93.35-1.02-.95-1.53-.13-.96-.63-.99.86h-.29s-.2-.62-.2-.62l.44-1.81-.6-1.84.43-.6-.53-1.61-1.68-.67-.16-1.09-.11-.65.92-2.93.56-.27.71.77.62-.2,1.22-3.08.82-.52-.03-.47h-1.09s-1.15-1.31-1.15-1.31l-1.05.27-.52-.79-1.72-.56-.55.68-2.6.66-1.11-.02-.52-.39-.45-1.33-1.28-.52h-2.44s-.69.79-.69.79l-1.56.08-.41.44-1.82-1.88-1.18-.72-2.54-.29-.3-.73-.26-1.2-.87-.59-.88-1.47-1.21-.34-.87-1.39h-.34s-1.06.86-1.06.86l-.64,1.23-.83-.24-1.73.64-2.3,1.46-.74-.3-.45.13-.16.82-1.16.64.47,3.01-.9.52-1.08,1.29-.96.3-.97-.23-.39.3-.64-.55-1.91,1.7-1.6.98-.4.12-1.89-1.04.08-1.54-2.83.61-1.15,1.35-.7,3.58-.48.38-2.25-1.79-3.47-3.66-1.04.58-.78,1.26.05.97-.65,1.15-.53.06-1.36-1.69-.17-1.18-.82-.71-.87-.22-1.19,2.23-1.89,1.15-.22.54.22.75-1.79.96v.86s-.65.19-.65.19l-1.95-.88-1.29-2.29-1.46-.48-1.08-.85-1.47-.39-.47-.46-.51.39-.42-.02-.37-.92-.88-.44-.46.06-.31.37-.56,1.21-.72.2.52.77-1.1,1.19-1.32,1.3-.63,1.58-.98-.27-.84.52-.6-.59-1.66-.34-1.89.33-.43.95-.46-.09-1.06-1.66-.55-.43-.77.07-1.07.85-.2,1.52-.36.34-.41,1.3h-.92s-.65.59-.65.59l.84,1.29-.11,1.6.94,2.29,1.23.68,1.42,2.15-.42,1.84.48.52.02.77.87.42.04.38-.23.33-1.05.32.22,1.05-.34.75-.27,2.85.39.54,1.39.64.17.69-.3.31-.83.16.15.66-.23.32-.95.15-.9-1.01-1.35.26.04-.91-1.22-.34-2.49.38-1.63.87-.6-.06-.93-1.23.21-.95-.24-.35.5-.91-1.16-.75.28-2.46-.51-.33.18-1.59-.76-1.07-.16-1.21-.66-.13-1.65,1.04-2.89,1.01-2.4,2.63-1.51.89-.91.26h-2.11l-1.05-1.19-1.05-.21-.96.88-1.87,1.03-.45-.15-1.33-1.73.09-1.31.38-.57.51-.2v-.28s-1.12-.55-1.12-.55l-1.57-.03-.85-.65-.59-2.02.87-2.5-.58-1.04.15-.5-1.73-.18-.11.52-.38.17-1.79-.99-.73.59-.92-.85-1.73-.41-.89.04-.95-.37-1.35.47-2.05-.07-1.99-.95.56-.28-.29-.3,1.54-2.92v-.97s.72-.35.72-.35l1.37-1.56-.25-.7.2-1.41-.86-2.55.94-.55,1.02-1.53-.02-1.38,1.87.41.42-.33-.87-1.6.05-.85-1.64-.2-1.27-1.15-.36.06-.53.72-1.25.57-.41-.72-2.55-.26-.52-.95-3.07-.35.02-.62.93-1.59-.26-.48-.79-.03.67-.8v-.73s-.48-1.12-.48-1.12l-.27-.26h-.9s-.35-.98-.35-.98l.28-.47.99-.61.11-.36-1.02-1.55-.13-1.23-2.37-.72.2-2.61-.29-.45,3.61-2.29.32-.57-.14-.58-2.74.45-2.39.85-1.5-.85-1.25-.17-.72.04-1.19.53-2.73-.36-1.4.32-3.94,1.47-1.32,1.2-.92.22-1.3,1.11-.91.35-.42.4-.27-.68-1.71-1.12,3.5-3.4.28-.86-.39-.74.41-.57-.1-.67-1.36-.46-.11-.48.94-.34-.91-1.73-2.2.16-.1-.58.45-2.53-.05-2.76,2.34-1.58,1.55.06.45-.53-1.19-1.35-.09-2.74.92-.74.86-2.32.42-.45,1.19,1.04.39-.03,1.21-1.21,1.05-.54.77-1.4.6-.24-.16-2.07.63-.65.11-1.43,1.69.47.81.64,1.02-.27,2.36-4.25.68-.67.52-.15,1.53.71,1.24-.8.26-.66-1.39-1.88-.62-.05-.68-2.3.32-.48,1.03-.27.09.7.37.2.67-.51.45-.93-.52-1.2-.64-.28.29-1.06,1.02-1.45.14-2.79.63-1.61-.43-1.66.34-1.46-.66-1.3.4-.68-.43-1.81.46-1-.85-.82-.34-1.55.64-3.01-.61-.92.09-3.56-.59-.65-1.26.38-1.03-1.21-.55.24-1.5-.76-.5,2.4-.35.44-.65.17-.62-.26-1.65-3.56-.15-1.79-1.03-1.04.67-.36v-.28s-1.28-1.12-1.28-1.12l.38-2.47-.24-.72-1.21-1.04-1.06-.27.03-1.02-1.74-1.62-.71-.27-1.13.49-.59-.16-1.2-2.53-.53-.43-1.04.54-1.24-1.05-.34.17-1.51,2.73.05,1.59-1.16.24-.27.58-.85.67-3.81-2.78-.68-.16-2.06.83-1.24-.45-.24-1.37-3.41-3-1.56-.38-1.02.47-.55.94-.28,1.95-.32.14-1.25-1.81.74-.85-.59-.88,2.98-1.84-.39-1.84-1.2-1.44-.34-1.16-.74-.42.1-.45-1.67-.78-.28-1.14-1.29.38-1.57.94-.21-1.81.49-.41,1.95-.49.91-1.59-.53-.42-1.27.71h-.6s-1.08-.84-1.08-.84l-.63-1.53-3.45.17-1.66.66-1.23-.54-.94.23.05,1.25-.55,1.04-2.8-.51-.26.62-.64.06.11,1.34-.85.02-.16.26-.39-1.18-.38.16-.27.88-1.88-.11-.6.44.13,1.12-1.04-.13-.46-.65-1.52-.26-2.97-1.14.61.83-2.46-.85-1.42.06-.27-.15-.09-1.04-.95-1.01-1.35-.65-.88.31-1.24,1.53-2.17.26-1.11,1.07-.88.03-.31.93,1.4,1.37-1.78,1.7-1.4.05-.7.61-2.94,1.17-1.03.03-.18.65-2.14.88-1.27,1.02-.87-.12-.9.57h-3.29s-4.14,2.44-4.14,2.44l-1.19.87-.34,1.31-.79,1.08-2.43,1.8-1.03.38-.98,1.08-.82.26-.48-.33-1.84,1.17-.76,1.14.03.27,1.15.37-.25,1.3-1.09.97-1.18.39-.75.65-1.76.73-.64-.65-.46.97-.33.02-.38-.57-.46.88-1.18-1.48-.19,1.02h-2.24s-2.41,1.57-2.41,1.57l-2.02-.06-1.67-.64-2.58.08-.09-1.74.45-1.2-.27-.43-1.09-.47-2.61-.46-1.74-.77-.94-1.14-.37.35-1.37.04-1.87,1.84-.75.17-1.41-.36-1.2-.94-2.82-.42-1.61-.65-1.69.46-1.83-.12.19-.98,2.05-1.42-.18-.61-3.68-1.23h-.6l-.45.81-.69-.1-.54-.71v-.67l-.67-.43-.9.61-1.93-.37-3.81.92-1.5,1.25-.46.83-3.56.93-.85.99-1.03.64-.76,1.1-1.49,2.23-2.04,1.15-.35,1.13-1.49,2.47-.41-.16-.94.29-1.43,1.69.18.47-.58,1.11.84,1.91-.46.35-1.04-.35-.42.29-2.18-1.74-.58-2.3,1.17-2.31.88-3.52-.04-.63-.75-.95.13-1.25-.69-.62-.82-.51-1.53-.26-1.06-.69-1.69,1.45-.85-.05-1.41.91-4.82.66-.33.81.38.8-1.62-.61-.94.24-2.6-.52-1.47,1.64-.54.24-.88-.11-.78-.19-1.15.35-.77-.6-2.98.62.3-.85-.4-.11-1.34.73-2.47-.18-.72-.35-1.57-1.74-.89-.24-1.23.1-1.36-1.3-1.85-.13-.15-1.03-1.28-.56-.91.5-1.08-.44-.68,1.71v.76s-.35.63-.35.63l-1.31.52-1.14-.68-.65.12-.91-.82-1.11-.21-.84-1.43.26-1.15-.55-.43-1.6,1.49.81,2.8-1.07.73-1.68-.06-.11-1.58-1.07-1.12-.64-2-2.36-1.46-.64-.89-.13-1.24-.25.04-.07.5-1.39,1.04-.62-.46-1.64-.07-.81-.34-1.26.7-.92-.43-1.27.27-1.28-.68-1.18.23-.5-.74-.08-1.94.58-.44.25-.84.56-.38.13-1.31-1.94-.81-1.83,1.2-.48.67-2.13-.06-1.03-.81-1.43-.36.1-.86-.92-.34-.3-.47-3.03-.75-.51-1.22-.85-.92-1.66-.47-1.11-.76-.34-.5.45-1.59-1.03-.59-.79-1.61.54-.91-.11-.26-.79-.05-.41-.89-1,.17-.42-.42-.67.13-.33-.48h-.8s-2.22,1.02-2.22,1.02l-1.79.16-.74,1.23-1.3-.03-1.1-.4-.38-1.44-2.01-1.78-.11-.7-.55-.4-.03-.85-.5-.46-1.17.23-.31-.4.25-.89-1.6-1.48-1.47.12-.25.66-.27.02-1.63-1.59h-.81l-.59-.45-1.16.53-2.67-2.26-.04-.88-1.29-.23-1.4-1.55-1.55-.58-1.15-.91h-.86s-.52-.53-.52-.53l-1.16-.15-.83-.46-1.04.12-.48-1.24.52-1.06-1.29-.92.15-1.56-.37-.42-1.91.16-.51-.48-1.77-.32-1.2.25-3.02-1.1-1.41.71-.5.94-1.52-.82-.71-.03-.36,1.36.18,1.28-.38,1.1-.64.75-1.02.16.02.99-.77.4-.16.79-2.42-.37-1.62-3.16.13-.29-.5-.79-3.56-1.23-1.07-1.32-2.32-1.27-1.61-.05-4.68-1.92-1.34.11.43-.88-.67-1.27.74-.22.32-.9-1.24-1.1-1.19.35-.54-.19-1.04-1.17-1.88-.8-.97-1.2-2.04-.46-1.99.31-.96.45-1.19-.52-.66-.89-1.37-.18-.54-1.32-1.65-.82-.3-1.38-.85-.4-.48-1.9-.62-.17-.38-.82-1.12-.72-1.16.03-.7,1.97-1.06-.64-.72,1.03-1.73.21-.72-.37.32-2.56-1.23-.8.08-.41,2.19-1.81-1.11-1.11-.62-.13-.97-1.81,1.35-3.62-1.75-1.35-2.49-3.2-1.01-.41.09-.98-.52-1.9.32-.62-1.3-2.08.07-.36.43-.2,4.07-.37,1.52-1.11.69.46-.26,1.25.63,1.57,3.15,2.15,1.55-.57.86.12.69-1.9.37-.24,1.51-.42,1.45.25,2.57-2.01,1.12-1.42.08-1.28-.94-.91-.66-1.7-1.44-1.31.18-2.04.69-1.15-.06-.69-2.09-.33-2.03-.84-1.21.21-.5-1.14-1.59-.61-1.02-1.43-1.71-1.4-.79-1.71.23-3.57-.44-2.4-.9-2.28.16-1.58,3.17-1.47,1.34-1.1.17-1.29-.52-1-.64-.61-2.21-.79-2.51-2.08-5.22-.98-1.53-.86-1.55-4.18-1.16-1.77-.33-2.1-2.36-3.99.16-1.46.84-1.97-.21-.73-1.07-.04-1.88,1.17-.89-.39-.62-.81-.73-.05-1.83.75-2.72-.38-2.35.12-1.88-1.05-2.56.05-1.52-1.03-2.62-.05-1.32-1.09-1.2-.09-1.84-1.26-1.94-.7-.36-.61.08-2.13-.34-.09-.68.58-1.25.21-.53.55h-.99l-.68.4-.94-.15-1.73.22-.51-.38-.43-2.15-.45-.68-1.93-.33-1.14-.67-.41-.59.03-.94,1.28-.77-.03-.89.81-.52-.83-1.33.34-2.22-2.06-3.7-1.54-1.28-2.58-1.23-1.45-.24-1.15.36-.28.5-1.11-.04-.39-.45-.6-2.74-1.18-.65-2.17-.38-1.4-.79-3.23.26-.58.27-.7,1.04-.35-.97-1.11-1.05-1.34-.02-1.04-.71-2.2.61-1.2-1.15-1.72-.81-.26-.76,1.62-.19.79-1.01,1.65-.22.61.24,1.8-1.25,1.33,1.56,1.8-.32,1.08-.94,2.14-.58.43-1.24,1.33-.41-4.99-3.71-.11-1.01,1.45-2.13-.29-.52-1.16-.66.51-.94-.42-.31-.19-2.32-1.29-.59-.35-.53-.36-3.92.24-.64.99-1.01-.1-1.57-1.33-1.05-1.17-.07-.92-.69-5.71-1.98-2.07.32-1.8-.37-.71,1.04-.86.29.39.96-.55.37-1.76-.04-2.13-1.06-1.46-2.52v-1.47s-1.02-1.36-1.02-1.36l.67-.85,1.69-.26.3-.83-2.14-1.65-.65-1.44-1.21-1.21-.1-.53.76-2.16-.2-1.81,3.77-.51.59-1.33.94-.66-.51-2.39-1.17-.68-.2-.73.25-.7.89-.77.23-.99.93-.97.6-1.37,3.5-1.17,3.04.24,2.62-1.47,1.63-1.39,2.57-1.57,2.86.1-.15-.61-1.22-1.16.82-1.63.86.06,2.26,1.08,1.14.07,1.35-.38,1.02.42,5.27-3.23.77-.36h.66s.84,1.19.84,1.19l.23,1.41.9.82-.52,1.19.8,1.77,1.65-.35,2.38.21,1.11-1.09,1.63-.61,1.83.41,1.7-1.36.54.13.73,1.69,2.98-1.73,1.46-2.42.97-.59.7-3.13.48-.57,1.62-.96.08-1.82,1.72-1.28,2.69-.58,2.03.61,2.28.12,1.64-.28,3.12.74,2.69-.3,3.31-1.23,4.14.54,2.18-1.33,1.01-1.26.81-1.04,1.36-.78-.19-1.38.38-.62,2.76-1.44,1.99-.44.47-.85.5-.27,2.48-.75,1.99-1.02,1.11-.16,2.06-1.14,1.96-.5,1.58-1.01,1.99.2,4.03-1.77,2.5-.23.66-.47.54-1.36.55-.45,1.61-.4,4.6.04.9-.24.46-.94-.85-1.96.71-.29.35-.62-1.32-3.67.26-1.05-.88-1.15-.34-1.72,1.91-3.2h1.57s2.6-.89,2.6-.89l.93-.08.4-.19.11-.38-.21-.33-3.1-1.09-.34-.48.24-.52,4.58-1.97,2.07.62.77-.22.37-.68-.82-2.35-1.93-.95.94-1.28.34-1.2-4.33-8.42-.97-1.16-.35-1.43-1.19-1.36.63-2.04-.78-4.14.98-2.8-.51-.93.37-.35,2.12-.57v-.49s-4.53-1.64-4.53-1.64l-4.63.42-2.25-1.04-.47-.45.28-.56,4.49-2.4,2.12.11,1.31-.38h1.82s1.01-1.08,1.01-1.08l1.68.06,2.94-.79,2.87.32,12.6-3.11,2.26-1.02,1.36.19.47.57.52,2.09,1.5.27,1.37.68,5.41-1.63,1.77.5,2.45,1.67,1.17-.15.83-.99.54-1.34.32-3.12-.3-.37-1.88-.57-3.4-.52-.66-.74.1-.4,1.37-3.35,2.14-3.13,1.45-5.5,1.94-2.51,3.01-7.49,2.68-3.92.66-4.92.92-.24,1.44.13,6.85,2.7,6.97,1.74,3.01.18,1.62-.54,1.97-.13,2.86.13,1.82.44,2.61-.26,1.61,1.23-.04.66-.62.88.44.38,3.23-.67,1.09-.96,1.33-.35,3.25-2.26,5-.19,1.07-2.37,1.88-.52.35-1.28-.16-2.04-1.57-2.03.2-2.45-1.47-5.53,1.3-4.13,2.42-4.06,1.19-.91,4.08-.41,3.4.21,1-.36,1.11-.85,2.26-.05,2.47-.77.74-1.17,2.68-2.34-.24-1.27.92-1.04-1.31-1.37-.16-.78.63-1,1.02-.64,1.11-1.18,2.13.24,2.58-.7,3.8.83,2.1.2.8-.32.44-.55,5.68-.84.35,1.22-.25,1.34.92.46v.67s-2.11.89-2.11.89l-.35.95,1.07.55.46.96,1.58.55,1.24.05,1.54.89-.08.65-2.05,1.38.17.45,3.92,1.52h1.28s1.27.46,1.27.46l2.04,1.4,1.58.03,1.14.93-.07,1.4.64,1.32,2.07.58,1.76,1.13h2.04l2.36,2.11,3.17.3,2.48-1.15,1.3.32,2.13-.18.55.2.21,1.09.81.34.51.82,1.25.4.51,1.01h2.52l.83-.37.23-.73,1.79.06.7,2.31,1.47.86,3.32.96-.32.66.99,1.58,1.1.85.12,1.66.72.48-.34,1.29,4.46,5.49.56.43,1.57.18,1.04.7.94,1.5-.2.96,1.45,1.36.17.94-.34,1.78.9.81-2,3.87-.73.78.96,2.5.86,1.02.12,1.72-.3.54-1.23.8-3.82,3.69-1.09,4.84,1.87,1.35.79,2.39,1.28.73.12,1.26h.59s1.28-.54,1.28-.54l1.5-.05,1.43.37.9.82,1.19.45,2.15.29.92-.59h.4s1.75,1.39,1.75,1.39l2.37.22,1.53-.24,5.42-.04,3.23,1.21,1.21-.18,3.48.41,5.09-.76,1.74-.02,1.79.62h2.39s1.64-.03,1.64-.03l1.44.49,1.77-.06,1.46.56,1.92.07,2.98,1.12,4.38,4.07,2.4.4,2.26-.18,1.75,1.33,1.11,1.45,1.68.14,2.89,1.28,2.43,1.87,5.79,1.51,6.61-.48-1.37,2.28-.07,2.63,3.5.71.46.4,2.88,6.1,2.57,4.14.76,3.02,8.14,6.29.87,3.49,15.09-1.2,12.08,1.2,29.75,2.97,2.7-.62,6.4-1.47h.83s22.01,2.73,22.01,2.73l3.52-.28,2.09.13,2.06.41,1.79,1.01,2.77,3.42,2.71,1.75,19.03,3.36,11.32,4.58,14.82-2.08.08,4,7.1.22,1.49,1.1.75-.19,3.4-2.75,2.88-.79,9.35-3.88,16.47-5.47,23.48-2.85,2.34-.28,2.61.4,3.97-.05,4.77.69,1.2-.2,1.8-.72,5.35.4,4.25-.44,3.34-1.86,4.49-1.49,2.7-.18,1.46-.83,4.89-1.6.78-1.29,2.91-2,1.32-2.11,2.14-1.7,3.23-3.11,2.24-.95,4.44-1.34,1.15-.69,3.05-.51,3.41-3,1.69-.07,1.6-.55.2-1.68-1.93-2.85-3.74-2.37-1.66-1.69-.98-2.35-1.46-.81-.25-1.15.5-1.13,2.09-2.53.24-2.05,3.43-5.1,1.92-1.37,2.59-.89,2.25.37,5.59.03,2.03,1.36,1.14,1.3,2.98,1.09,6.53,1.32,6.75.44,1.09.47,1.88-.02,4.66-3.02,2.34-.35,1.32-.64,1.1-1.28,4.93-3.2,1.53-1.9.58-1.54,3.1-.78,4.32,1,3.43-.39h3.86s5.5-.93,5.5-.93l1-.46,1.37-1.14,4.3-2.72,1.4.04,1.19-.4,1.97-2.03-.82-1.45.11-.51,2.64-3.69,3.07-2.26,1.04-1.33,2.56-.57,1.7-1.08,2.63.38,6.95.17.58-2.21.79-.91-.34-.87,2.13-.13,1.06-.47,1.05,1.27.88.37,2.28-.08,1.89-1.63,1.92-.36,1.43-.77,1.56-.19,1.83-.83h1.22s2.52.7,2.52.7h1.45s1.05-.38,1.05-.38l2.03.54.61-.27,1.14-1.25.56-.14,1.11,1.05,1.1-.58,1.74,1.48,4.66.92,3.38-.3,2.24.22,1.04.46,1.1-.4.77-.79,1.32-.08.91-.92-.39-.82.25-2.72-.81-.23-1.5-1.54-.3-1.89-.99-1.22-2.06-1.47-1.14-.23-.9-1.09-2.84-1.83-.71-.15.66-.88-.14-.26-3.23-.96-.92-2.5-5.79-1.77-4.12-3.92-1.27-.43-3.53-.16-1.79-.56-3.84.57-2.89-.13-.88.22-4.39,3.86-1.66,1.05-1.39,1.49-.8-.06-4.53-2.91-4.53-1.23-5.9.75-4.68-.5-1.14.25-1.78.8-2.04,1.83-1.07.47-1.13-.4-5.07-3.81-1.13-4.14.41-.33,4.83-1.74-.16-5.07,4.34-4.74.36-.6-.18-1.31,11.84-17.79,6.83,2.81,3.58.94,4.03.15,5.24,1.9,1.43.07.68-.08.36-.62.68-.39,1.58-.53,1.64-1.05,1.5-.55.75-.9,2.63-1.07.38-.63,1.53-.3.81-1.08,2.25-1.13,1.78.03,3.34-.72,1.22.23,1.86-.14,2.14-.53,1.7-1.21.78-1.17-.18-2.5.58-.65-.17-.56-3.32-.29-.69-.68.32-.35.95-.07.68-.57.92-2.87,1.46-.81.33-.55.94-.24.99-.97.34-1.02-.32-.82.56-.58-.18-.71,1.58-1.37,1.45-.71.49-.42v-.45s.56-.17.56-.17l.32-1.61.5-.26-.42-.81.97-.02.08-1.1.75-.27.42-.54.59-.24-.37-.99,1.05-.26.55-.83-.1-.84,1.38-1.22.07-.83.8-1.19,1.19-.16,2.81-2.01,1.63-.93,1.03-.26.52-.66.88-.14.46-.42,1.49-.11,1.16-1.44-.25-1.13.88-.52.62-.76-.39-2.24-1.89-1.15-.53-.89,1.18-1.72.61-1.92-4.94-1.81-1.58.41-1.95.12-1.56.51-1.77-.12-.84-.66.35-1.26-.36-1.26.6-.42,1.65-.48,2.28-1.06,3.11-2.66,3.01-1.66,1.82-1.64,2.01-.94.04-.5.36-.22,3.83-.31,2.72.25,2.52-.88,1.32.12,1.81-.23,2.36-1.03,4.54-.85h2.49s1.04.02,1.04.02l1.6-.74,2.71-.5,1.55.84,1.28-.26,7.11-.17,2.62-.62,2.77-.11,1.49-.88.78-.17,3.74.96.24-.78.36-.04.6.41-.51.38.41.11.92-.82.41-.1,1.6.99,2.72.28,2.21.74,2.77,1.91,1.1-.48,1.3.06,2.39,2.42,2.14.61,2.77.09,1.26,1.12,1.49-.12,1.26.88.48-.18-.31-.68.34-.59,3.22-.5,7.38,2.4.82.77,1.83-.37,2.05,1.5-.25.66-1.08.5-.27.64.41.13,3.09-.54.55,1.07,2.01,1.58.75-.32,1.28.13.29.39-1.26.51.61.88-1.57.5.15,1.24.68.37.57-.17.17-.37.26.04,2.37,1.13-.22,1.23,1.39.07,1.37,1.61-.64,1.13,2.26.76-2.33.88.08.53,3.92.88.46.41-.77,1.64-.86.2-.51.63,3.82,4.79,1.42.61-.33.43.3.93-.85,1.11,2.39.79.42.49-.69.92.14.75,2,.52-.22.54-.99.23-.53.46.17,1.11.85.26.38-.37-.1-.59.59-.41.68-.09.49.39-1.39,1.88.49,2.69,3.89,2.99,1.4,2.15,1.22.69.03,1.42,1.43,1.82-.04.43-1.39,1.66,1.28.95-.51,1.62.44.55,4.32,1.68-.37,1.47-1.53,1.95.86,1.93-.5,1.46.58,1.02,1.94.43.66.52.43,1.47,2.77,1.41,1.21.07.86-.41,1.82,1.06,2.4.14,1.27-.37,1.41.2.71-.59,3.07-.17,1.42.25.79-.67,2.38.86-.04.62-.83.55.11.59,2.18-.16,2.18.72,1.26,1.49.89.24,1.44-.76.44-.02,2.25.93.59-.54.1-1.03,1.87.07.86.68.44,1.76,2.92.3.56,1.46,1.83.53v1.08l1.45.51.11,1.05,5.04,2.67.87.34,2.52-.59h.97s1.85.8,1.85.8l1.55-.39.94.32-2.69,4.5,1.66,1.04.11,1.46,1.64-.31.79.25-.29,1.38,1.5,1.75-.1.67-.84.7-.39,1.02-1.43,1v1.34l4.25,3.35.64,1.19v1.92l1.87.76h1.1s1.95-.6,1.95-.6l3.81-.62,1.64.39,1.75,1.12,1.83-.65,3.86.53.96-.42,1.08-.15,2.5.15,1.63-.66,1.5-.21,3.52.54.91-.6.04-1.02,1.68-1.63.12-1.29.88-.16,1.53.42,1.08-.92,1.39-.77,1.69-.56.78-.82,2.72-.47,1.42.46,4.08.11.65-.33.62-.95,1.4-.48,1.24-1.14,4.18-.51,1.66-.91,6.03-1.01,1.56.77,1.3-.32,1.26,1.34,1.96.41-.57.81-.08,1.57-.37.51-1.4.87-.5.96.77,1.22-.25.34,1.28.73.34,1.16,1.71,1.56.05.57-.86.89-.6.27-.19,1.14-1.07.71-1.23,1.46-1.33.77-1.28-.17-1.87.36-1.24,1.21-1.12.52-.54,1.3,1.34,2.62-.55.61-1.33.27-1.01,1.67-.12,1.39-.84,1.63.46,1.25-.79,2.15-1.76,1.2-.19.83-.85,1.09,1.61,1.49-.14.36-1.15.6.96.49-.41.21.16.8-.86.42.1.24-.57.5-.67-.32-.96,1.03-.98.32.6,1.46-1.13,2.41-.74-.03-.58,1.12-.61-.23-.69.17-.68,1.1.62.78-.49.19-.26.74-.51.36.82.43.07.25-.64.46.38.39-.91.23-.26.78h-.7s-3.16,1.16-3.16,1.16l-.41.33-.85,1.39-.57,2.47.43,2.72-.49.63-1.37.92-1.29.63-.59-.07-1.49-.58-15.95-3.26-.99-.49-1.13-1.45-.64.09-.6.52-1.14,1.67-1.75.31-.41.63.31.76-.24.63-3.21,2.4-1.91-.12-1.29.74-1.51.46-1.21-.3-1.07.2-.49.87-1.67.39,2.42,2.98,3.64,11.72-.94.89.08,1.83-.86,2.38.4,3.6-.57,1.04,1.69,1.19.39.34.12,1.32-.6.67-.18,1.46-1.26,1.19.27,1.51-1.93,1.66.45,2.27-.53.26h-.92s-.58.89-.58.89l-4.08-.32-.63.77-2.72.13-3.28,1.53-.51.72.44.36h1.84s1.25,1.04,1.25,1.04l.23.99-.99.72-.54-1.5h-.32s-.53.48-.53.48l.29.29-.34.38-.45-.93-1.88-.95-1.14-1.09-.36-.65.25-2.31-.32-.66-2.57-.36.58-.71-.17-.42-2.3.37-1.58-.87-.54.23.5.37-1.01.26-1.66,4.03-.07.79.55.5-.2.55-.47.08-.17.26.39.43-.49.39-.14,2.04-.47.63-2.04-.11-.07.68-.45.14-.17.51-.35.13-1.85-1.33-.87.24-.85-.32.22.46-.47-.11-.42.69-1.24.28v.94s-.77.1-.77.1l.62.39-.86,1.02.56.43-1.68,1.31-1.01-.08-.02.33-.68.64-1.15.25-.43.99-1.04.1-2.97-.32-.22.33h-1.86l-.8.55-1.13.09-4.4-.69-4.17.73-.26.53.5,1.89.79.41,1.25,2.43,1.68.97.95,1.43-2.15,3.34-.73.52-.77-.05.26-.26-.26-.12-.73.21-.25-.6-.65.14-.25-1.07-.5.38-.55-.38-1.15.18-.6.55-3.41-.29-.44.32-1.45-.53-.29-.62-1.26-.14-.85.29-.89-.29-1.35.08-.66-.19.38-.25-.15-.24-1.36-.27-.51.54-.43-.26-.39.16-.55-.28.59-.6.79-.3-2.21-1.08-.18-.65.51-.05-.62-.97-.79-.36-.98-.26-.3-.65-.78.3-.41.7-1.02.32-.37.64-1.12-.77-.87.02.89.65-1.08.64-.94.02-.94.97.19.98-1.39,2.38.38,1.54-.63.14.25-.4h-.53s-.58.33-.58.33l-2.4,2.62-.64,1.03-2.77,1.44.26.35-.68.65.05.24-.52.23-.55.98-.98.31-.21.27h.54s-.04.26-.04.26l-1.31.41-.94-.38-1.16.52-1.12-.3-.27.33-.77.17-1.09.91.69.78-1.33.14-.7-.44-.46,1.1-1.24.13-.47.85-.49.04-.21.35-.03.39-2.2-.31-.68.63-4.23,1.5-.18.49.48.88-1.94.1-.73-.52-1.73,1.68-1.09.44-.53,1.12-1.28.3-1.31.78-.41.59-3.27,2.29-.16,1.62-1.23,1.45-.51.13-2.71,1.75-.55-.35-.6.41-1.28.37-.8-.57-1,.33-1.46-.27-.63.36-2.38-1.12.25-.77-.47.29-.72,2.23-.51.29-.92-.54-1.57,1.33-.35-.36.16-1.47-.34.12-.21.54-1.33.25-1.27-.71.38,1.12h-1.02s-.07.37-.07.37l1.15.51-.84.52-1.74.27-.37-.47-.91.29-.9-.11-.58.26.34.31-.59.71-.35-.15-1.35.26-.42-.23-1.26,1.07-1.68.78-.73-.26-1.11,1.22-.47-.37-.12.57-1.57.74-1.35.11-1.95,1.12-.42.62-.29-.11-.21.71-2.3,1.58-.19.78,1.06.24-.64.08-1.46.8-.1.74-.99-.06-.83.5-1-.12.63.63-1.76-.51,1.25,1.03-.44.57-1.1-.41-.71-.91-.87-.15.26.53-1.07-.14-.81.26.37.09-.06.51-1.19.43,1.95.57.05.87-2.63.09-1.24.9-2.57-.09-1.04.5-.94-.2-.35.43h.5l-1.19,1.02-1.19-.88.45-.4-.45-1.28.69-.52-.07-.24-1.14-.13.59-.7,1.12-.2.73.26,1.33-.51.78-.02v-1.08s.74-.33.74-.33l.97.55h.72s3.79-1.37,3.79-1.37l.13-.9-.71-.75-.91-.3.28-.16-.12-.38.58-.28-.79-.52,1.65-.21,1.02-.68-.09-.35.89-.77,1.06.13,1.93-.65-.21-.33-1.51.56-2.58-.16.18.45-3.51.13-.62-.46-1.02-2.23-1.5-.25-.87.38-1.52-.5,1.52-1.29,2.63-.32.38-.32-.13-.26.63-.13.64.57-.13-.56.44-.49-.79-.29-.91-1.01.5-.29-.26-.86.72-.26.47-.7,1.47-.19.37-.47.89-.48,1.64.03.65-.83,1.18-.49.02-.46-.88-.12.98-.35.9-.67.07-.45,1.14-.42-.08-1.17.86-.18.97-.57.26-1.55,1.92-1.31-.14-.87.85-.06.03-.44.67-.35.25-.55-1.41-1.42-1.36-.47-.24-.38.56-.55-.16-.9-.69.4-1.33-1.23-3.63-1.61-.46-2.16.9-.78-.13-.12-.76.4-.89.73.04.51-.74,1.1-3.01.14-3.91-1.83-1.14.75-.75-.39-.25.27-.36-.39-.9.09-1.76,1.11-.21,1.11-.34.11-.82-.66-.63.28-.04.64-.59.52.06.28,1.49.39-1.07.19-.41.34-2.1.32-.49,1.39-2.19,1.45-.36.71-1.01.35-.12.8-.95.37-.12.37.9-.03.05.32-1.64.76.06,1.45-.6.65-.66.37-2.32.27-.87.62-5.7,1.68-.64.38-.06.71-1.13.22-1.39.67-2.08.33-2.3.78-.29.61.2.81h-1.17l-1.81,1.24-1.52,2.85h-.72s-.68.48-.68.48v.36s.63-.38.63-.38l-.25.65.6-.78.34.05-.45,1.53.89,1.13-.47.91-.43.34-1.3.2-3.1,3.08-1.64,1.1-.58-.02.87-.51.51-.64-1.64.39-.12-.77-.61.71-.82.44-3.23-.17-.53.24-1.16-.02.04.46-3.72,1.75-1.66-.41-2.55-2.79-1.59-.3-2.27.33-2.35,1.62-.77.06.66.81.44,1.62-1.35-.26.13.26-2.29,3.16-.74,3.55,3.16,4.53,2.22,2.01,1.91.69.66.73,1.39.4-.02.37.6.28.63-.26,1.77.14,4.27.69,1.72.74,2.05-1.44,3.39-.13,2.01,1.03-.46.74,1.31,1.77,1.76.94.45,1.11,2.31,1.56.3,1-.07.82-.69-.06-1.79-1.16-.93-.06-.6.35-1.1,2.07-.34,1.48-.25,2.86.31,1.54,3.37,2.18,2.6.78,2.82.31,1.53-.34,4.51-.24.39-.53,1.93-1.29-.94-1.76.23-.31,3.68-1.5,2.34-1.33,2.01-1.61.46-.65-.3-.61-1.66-.35,2.8-.2,1.74-.99,1.7-.26,3.33-1.35,1.81.33.75-.26.88.2.28.84,1.68,1.19,1.93.17.19.22-.34.7.34.26-.26.51.68.63,2.5-.08,1.22-.55-.38-.51.72.29.67.48-.58.04-.31.54,1.19.87.55.96,1.1.22.61.52,1.94-.2-.77-.43-.86.16.28-.34.6-.17,1.79.36,3.76-.05.36.09-.14.64h.7l-.19-.86.88-1.05.85-.31-.09-.34.51.25.49-.25.55.55-.4.92.98,1.22.75-.74.39-.03.94.78,3.32-.14,1.7.45.77-.32,1.39.16-.17.65-.42-.19-1.56.75.44.92-.83-.46.19.84,1.26,1.53-1,.14v.77l-1.18-.2-.5.28-.22.55-.31-.82-.32,1.2.38.44-1,.83.4.33.22-.45h1.9l-.14,1.9-.46.52-.16-.76-.77.34-.93-.03.56.96-1.04.17-.45.61-.65.12-2.47-.51.21-.9h1.26l-1.89-.89.31-1.12-.25-.15-.29.16-.13,1.11-.89-.1-.25.64-.88.35.3-1.53-2.25-.26-.21.14.64.88-.64.35-2.37.54-1.06,1.03-1.44.37.63-.5-.85.21-.22,1.7-.57-.51-1.25.26-.54-.39.13-.26,1.69-.71.22-.35-1.11.17-.64.51-.95-.38.21.73-.32.6-.81.06-.57.42.44.36h-1.6s-2.87.82-2.87.82l-1.42,1.09-.87-.26-.17.75-1.73-.23.08-.44-1.52-.57-1.83.64v1.42s.51,0,.51,0l.87-1.04.44-.15,1.41,1.34.66-.28-.5.95.25.7-.8.13-.15.76-.57.64-.75-1.03.1-.43-.46-.16-1.03.09-.67.57-.51.78.65,1.05-1.11-.11-.34.26,1.12,3.11-1.41.74-1.4.05-.28.41-1.15.04-2.2.91-1.12-.39,1.27-2.42-1.01-1.55-.6.75.03.57.43.23-.26.29-1.25-.43.05-.43-1.87.23-.37-.31-.21.32.43.38-.36,1.44,1.45.93.12,1.28.41.15.59-.27.24.49.77-.69.26.7-1.32.59-.94.96.25-1.03-.97.77-.71.06-1.07,1.08-.66,2.15-1.19-.63-.54.3.51.75-.62.63.05.88-.81.35-.48-.55.11-.42-.52.18-1.24,1.35-.21-.84-1.55.69-1.77,3.8-.8.89-1.53.35-1.21,4.04-1.42.39-1.24.35-.36,1.07v5.27s.31,0,.31,0l.36-.77,1.51.09.64-.48.75.51,1,.14.59.57-.32.57,3.5,2.82,1.49.18,1.78,1,2.08.23,2.54,1.5,3.27,1.23,1.25,3.74.85,1.41.77,2.59-.25.52,1.93,2.5.13,1.47-.31-.1-.21.23,2.76,3.41.6,2.65,1.52,1.04-.37.51.25.63-.25.07,1.41,1.25-.27.54.49.31.13,1.16.76-.04.52.35.17,3.75-.45.76-.51.3.15,1.24-.37-.65-.18.51,1.4.71.09.55.6.46,2.6,1.29.27.71.35-.17.68.22,3.61,1.51.64.56.55,2.51-1.07.35.69,1.17.49.09.34.93,1.6.11,2.28.85,3.05,2.06,1.98,4.22-.28.38-.78.29-3.6-.62-7.13-3.12-3.14,1.76-1.38-.43-1.14.09-.68-.56v-.9s-2.38-2.43-2.38-2.43l-3.23-1.02-2.63-.11-2.37,1.06-1.73,1.43-.79.22-1.69-.12-1.45-.52-1.11-.84-1.46-2.02.18-1.75-.4.36-1.07-1.89-1.54-.52-1.2.13-.94-.73-.51.08,1.33,1.16-.67,1.36-.79.42.72.03.83-.75,1.61.57.18.11-.44,1.03.37.55,1.29.51,2.76,2.55,2.28.71,1.81.07,2.04-.89,1.41-.25.69-.24v-.73s.25-.07.25-.07l2.47.63,1.57-.13,1.11.37,1.36,2.79-.31.36-1.03-.28-.63-.68.26.88,1.84.67,3.33.65,2.39,1.09,3.6,3.62,7.04,3.91,2.78,3.41,1.84,3.44-.32.76-.96.32-5.06.39-1.62.38-2.42.91-1.41,1.2-1.08.22-1.32.49-1.49,1.35-1.36.19-1.28.74-.85,1.31.15.95-.82.39.37.5-.49.11-1.03,1.18-.81.22-1.63-1.87-4.01-.18-.89.26-.94,2.18-2.22-.46-2.03,1.85.58-.03.94-.66.36-.64.44-.14,1.39.69.63-.17,1.2-2.22,3.14-.07.55.25.86,2.01.65.37-1.91,1.81.03.24.93.7,1.51-.03.5.39-.16-.43-1.75-.16-.76-.54,1.93-1.84,1.14.23.28.53,1.18.28,1.86-.77,2.1-1.34.75-.8.65-.22,1.26-.2,2.26.44,2.37,1.96,2.77,3.76,1.36.74-.19.34.84-.24,2.7,1.02.38.58h2.21l1.34-.31.13.36-.4.24-2.41.91-1.48,1.32-.53-.02-.19.86-1.58,1.03-1.32,1.51-1.74.49-.64-.12-.79.78-.25-.67-.6.02-.75.38.22.65-.51.4.27.98.41-.11.27-1.01.46-.17-.24.52.4.08-.03.26-.62.47.13.41.85-.5.7-1.07,1.34-.39,1.25-.81.37.39.6-.24-.12.59.39.55.61-.39.34-.71.31.07-.05-.22-.56-.3-1.27.14.07-.33.87-.71,2.19-.75,1.02.89v.46s-.55.33-.55.33l.16.24-.72.26,1.11,1.41-.25.77-.39-.37-.25.18-.12,1.29.28.47-.41.1.13.26-.28.12.72.65.63-.38.31.51-.7.14-.19,1.01-1.87.65-1.01-.13.26-2.56.75-.26-.18-.28-.57.28-.21-.18.21-.85h-.24s-.51.26-.51.26l.29,1.98-.92,1.34h-1.32s-.24-.65-.24-.65l.28-1.55-.26-.13-.29.1.08,2.11-1-2.18-.22.17.22.34h-.88l.19.37-.58.92-.02.56-.43-.34-.44.67-.46-.21-.42.21.87.51-1,.51,4.02-.13-.12,1.03-1.43-.06-.09.76.3-.02-.17-.3.33-.22,1.1.17.45-.21.87.64-.66.53.55.61.62.13-.62.64-1.77-.91-.3.62-.62-.47-.72.1-.11.39.24-.13.24.42,1.15.48.55-.08.33.26-.1.65.85.32-.62.38.49.26-.81.54.06.49-.29.21-1.88.45-2.78-.21-2.07-.97-.43-.81-1.32-.72.32.6.85.27.46.72,1.25.7v.4s-.75.49-.75.49l1.96-.39.3.26.6-.27,1.77.74,1.31,2.85-1.11.07-.17.22,1.76.23-.44.64.89,1.18.03.6.41.15-.89,1.29-.55.19.05-.76-1.48-.6-.49.04-.68.63-.5-.14-.25.39.38.52-.94.57-.2.71.38-.14v.42s-.43.49-.43.49l-.39-.02-1.25-1.46-.67-.25.43-.58-.84-1.16.26-.38.49.06.38-.32-.93.1-.83-.45v.47l-.45.3-.26.71-1.06.26-.1-.37-.76.13.61.46,1.17-.08.05.91-.71,1.29-1.4,1.18-.29,1.44-.52.72-.8.1-.76-.32-1.1.18-1.62-.87-2.29-.12-.53-1.37-.32.05.38.43.16,1.18,1.55.09,1.41.86,1.55.37.6,1.37-.3.45-.82.44-1.55,2.22-.34.06-1.26-.94.68.97.06.97-.17.64-1.28,1.03.4,1.01,1.07.4.02.53-.58.41-.2,1.21-1.64-.44-.11.71-.64.38.81.44-.09.66-.48.43v1.15l-.91.36-.16-.71-.69-.03-.05.29.02.16.16.45-.41-.2-.56-.97-.53-.25-.26.04-.28.08-.27.02-.2-.13-.08-.28.13-.22.23-.16.22-.11-.15-.06-.02-.03v.02s-.07.07-.07.07l-.14-.13.13-.05.06-.06.05-.26-.37.17-.12.09-.08-.14-.08-.09-.22-.14.03.15v.08s.02.06.02.06l.08.08-.24.08-.19-.07-.19-.1-.26-.04.07.14.06.11.09.08.15.07v.13l-.33.28-.12-.04-.11-.23-.31-.27-.07.19.02.18.05.15v.13s-.08.13-.08.13l-.29.32v.19s.04.13.04.13l.09.09.18.03.17-.05.07-.12.02-.12.05-.09.54-.3.32-.11.14.08.11.25.51.24.16.22.24-.2.26-.17v.12h.11l.03-.08.03-.05.08-.13.32.33v.29s-.32.54-.32.54l.42-.13.3.15.29.27.36.23v.12h-.28s-.4-.06-.4-.06l-.2.06.62.13v.13l-.49.14-.14-.14-.12.14.26.12v.13h-.14v.12h.39l-.32.14h-.36s-1.37-.26-1.37-.26l-.15-.06-.24-.26-.12-.06h-.21s.07.21.07.21l.09.14.11.13.1.16.26.65-.13.12-.25-.28-.23.13-.24.27-.29.13v.13l.46.06.26.31v.38s-.34.28-.34.28l-.14-.14-.26.1-.42.05h-.81s.7.33.7.33l.23.04.26-.04.22-.07.18.02.15.21-.08.05-.08.13-.09.09.14.26-.16.08-.08.08-.09.06-.17.04-.16-.04-.59-.22-.39-.03-.39.03-.22.16.13.36-.2.1-.12.08-.13.05h-.23s-.08-.02-.08-.02l-.1-.09-.14-.09-.18-.04h-.43l.43.19-.2.24-.35.31v.41s.16.15.16.15l.26.12.28.08.25.03.16.07.21.14.26.13.32.03-.16.24-.23.23-.17.25.05.29.22.13h.3s.26.06.26.06l.11.22-.09.21-.21.05h-.25s-.2.11-.2.11l-.1.23.03.26.12.27.19.27.25-.14v.14l-.65.33-.16.12-.18.09-.09-.08.02-.16.18-.17-.13-.13-.95.57-.24.08h-1.01l-.21.1-.14.24-.08.31-.02.3-.94.7h-.68s-.21-.15-.21-.15l-.06-.36.06-.21.1-.02.12.03.1-.06.02-.14-.05-.36.03-.14.27-.22.37-.13.74-.16.29-.12.43-.29.29-.11-.04-.09-.06-.21-.04-.08.17-.11.26-.52.21-.25v.04s.11.04.11.04l.19.04.08-.03v-.07s-.03-.09-.03-.09l.02-.07.84-1.06.04-.21-.22-.07-.96.2-1.26-.13-.39.09-.03.21.22.41-.21.5-.41.42-.26.42.25.52-.41.08-.42.03-.06-.64-.06-.03-.39-.48-.17.07-.31.33-.2.12v-.32s.19-1.16.19-1.16l.17-.17.52-.26-.21-.11-.23-.04-.23.04-.21.11.1-.49.33-.17.36-.13.21-.37-.49.05-.39.15-.3.24-.21.34-.1.31v.19s.07.18.07.18l.03.29-.08.26-.18.13h-.24s-.24-.1-.24-.1v-.11l.04-.27-.12-.43-.26-.4-.36-.17-.12.1-.1.23-.07.26-.02.17.05.25.11.17.49.45.18.1.13.12.05.25-.1.13-.21-.04-.31-.15-.29-.26-.31-.35-.33-.24-.35.08-.11-.31.04-.22v-.18s-.31-.19-.31-.19h-.15s-.24.04-.24.04l-.17.12.07.22-.14.19-.25.14-.1.18-.03.22.02.22.06.19.08.13.22.09h.24s.22,0,.22,0l.18.16.04.21-.03.26-.12.44-.58-.35-.17-.03-.26.07-.06.12.08.38.16.39.7.45.14.39h.11l.24-.33.34-.21.37-.16.31-.21.23.14.25.05.54-.05h-.14.23s.13.05.13.05v.13s-.1.19-.1.19l.22.06.42.08.24.12-.05.24v.1s.05.17.05.17l-.2-.17-.06-.09-.17.25.08.3.25.26.35.09-.06.08-.03.07-.05.05-.1.06.17.09.15.14.18.27.1.24.02.17-.04.16-.08.2h-.06s-.24,0-.24,0h-.07s-.01.08-.01.08l.02.25v.06s-.37.12-.37.12h-.18s-.18-.46-.18-.46l-.26-.23-.34-.15-.36-.06-.17-.08-.46-.61-.2-.11-.12.08-.11.22-.09.05-.19.16-.09.06-.27-.12h-.11s-.37.06-.37.06l-.15.1-.09.2.12.32.38.08.41-.07.19-.13.08-.08.17.08.16.13.11.16.02,1.37.18.29.43.05-.04.09-.05.21-.03.09h.26s.72-.1.72-.1l.21-.1.02-.58.11-.25.3.13.17-.19.08-.21.05-.21.08-.17.11-.09.51-.29.17.27.21.18.09.18-.21.26.29.02.44.27.27.08.25-.03.48-.18.28-.03v.13l-1.13.86-.2.1-.42-.26h-.51s-.47.19-.47.19l-.3.39.11.02.27.1-.24.12-.15-.06-.15-.12-.22-.06-.2.04-.38.17-.24.04h-.45l-.39.05-.35.15-.37.32.32.1.31.15-.07.19.07.19-.29.07-.28.11-.22.16-.08.24-.13.15-.25.11-.15.18.15.39-.71.39-.43.52-.35.6-.45.6-.38.67-.27.27-.42.02-.07-.07-.18-.32-.12-.13-.19-.09-.4-.09-.17-.07-.55-.37-.3-.11-.91-.09-.29-.14-.51-.51-.32-.23-.27-.08-.73-.13-.17-.08-.58-.38-.3-.13-.18-.05v.12l.41.31.37.38.38.23.44-.15.25.21.1.22.16.61.15.27.36.42.11.21.07.52.15.07.76.12.61.24.31.07.56-.02.59-.16.57-.26.9-.57.13-.14.06-.16.03-.36.05-.13.27-.16.65-.02.22-.09.97.5.53.15.49-.13.37.37.09.14.03.19-.06.24-.44.87-.17.2-.2.15-.26.11-.31.04-.13.13-.31.91-.29-.61-.18-.15-.14.24.21.18.02.39.07.39.37.18.09.1v.24s-.04.44-.04.44l.07.03.13.05.08.08-.08.15-.37.39-.05.18v.53s-.07.12-.07.12l-.05.02-.05.06-.08.05h-.13s-.09-.04-.09-.04l-.06-.14-.53-.3h-.23l-.1.29h-.31s-.25.05-.25.05l-.18.14-.14-.07-.11-.03-.26-.03.12.44.07.57.13.36.3-.22-.07.45.03.39.21.29.45.15.09-.09.08-.18.14-.09.26.17.17.06.17-.1.14-.16.07-.13-.2.7.07.26.38.07-.1.14-.08.08-.11.04h-.19s.28.12.28.12l.15.02h.18s-.23.17-.23.17l-.1.05-.17.03v.13l.47-.09.09.03-.07.19v.12h.21s.2.1.2.1l.1.15-.09.21-.17.22.05.03h.16s.16.07.16.07l.21.43v.33s-.15.27-.15.27l-.31.24.32.03.15.03.17.07-.95.22-.43.03.07-.16.09-.15.1-.12.11-.08-.2-.56-.19-.32.08-.13.14-.12.06-.14-.06-.07-.25-.37v-.09s-.15.02-.15.02l-.12.06-.1.08-.07.1-.07-.06-.05-.03-.12-.05-.05.21-.02.3.03.27.11.12.26.04.04.11-.11.3-.14.22-.34.06h-.42l-.37.05.15-.23.12-.3.08-.31.03-.26-.04-.07-.09-.05-.08-.07-.03-.13.06-.13.17-.15.04-.18.04-.04h-.05s-.71,0-.71,0l-.15.16-.09.31-.11.21-.21-.15-.04-.24.23-.57.07-.28-.13-.08-1.39-.21-.17-.12-.07-.24.06-.2.45-.75-.22.11-.08.05-.08.09-.14-.14.06-.28-.25-.17-.37-.03-.32.12.29.32-.2.18-.6.13-.11.24-.06.57-.15.28-.42.56-.15.13-.26.09-.58.1-.21.14-.19.16-.6.35-.22.07-.26.12.13.25.87.82.15.25.06.29.09.16.18-.08.17-.24.06-.3h.15l.36.78-.4.19-.18.13-.19.19.21.26.07.22.08.07.27-.18.17-.19.16-.28.12-.33.03-.33.2.14.2.1.16-.02.08-.22.2.09.09.06.09.1h-.13l.1.17.4.52.09.08.21.05.22.08.1.17-.16.3-.37.08-.78-.07-.16.18.3.79-.14.18-.47.06-.23-.26-.25-.06-.31.13-.36.08-.32.11-.2-.28-.21-.29-.21-.26-.48.13-.26.32.04.26.18.18.1.23.09.1.08.13.08.19.24-.1.12.08-.06.15-.29.13-.31-.03-.24-.13-.19-.04-.14.2.08.06.05.06.05.06.07.07-.18-.05-.45-.21.17-.39.09-.12-.26-.2-.21.09-.14.27-.03.34-.28-.29.09-.34.45-.52.19-.32v-.25s-.21-.15-.21-.15l-.42-.05-.87.11-.33-.08.2-.35.36-.17.46-.1.04-.35-.8-.09-1.19.35-.19.11-.21.02-.38.26-.2.29.35.14.5.06.05.16-.08.25.11.3.1-.16.22-.13.28-.05.27.07.21.21-.05.19-.3.38-.12.28v.34s-.03.11-.03.11l-.08.08-.14.08-.26.05-.33-.02-.33-.07-.33.11-.18.04-.16.22v.24s.21.32.21.32l.33.3.33.13.72.21-.13.14.23.15.24.07.24-.03.24-.13.19-.53.13-.25.12.06v.18s-.08.3-.08.3l-.11.29-.13.13-.06.13.08.28.18.49.29-.09.08-.04-.16.24-.3.19-.29.05-.13-.18-.12-.2-.28-.04-.68.06-.19.29.16.57.44.39.66-.24.06.09v.04s-.01.03-.01.03l-.04.09.05.02h.04v.02s.02.1.02.1l-.44.13h-.51s-.49-.1-.49-.1l-.38-.24-.19-.05-.53.2-.22.05-.24-.07-.18-.12-.19-.06-.26.11.04.32-.33.18-.47.13-.37.14-.18-.06-.11-.09-.03-.15.07-.22.11-.11.32-.11.08-.04v-.29s-.17-.3-.17-.3l-.24-.27-.22-.17.03.63-.03.15-.13.06-.07-.14v-.23s.06-.2.06-.2l-.09-.09-.1-.12-.17-.3-.11.24-.32.31-.07.16.13.13.27.19.21.22-.04.23-.36.14-.5-.02-.51-.13-.44-.19.75.55.13.23v.27s-.03.22-.03.22v.23s.26.52.26.52l.1.1.05-.12.06-.07h.14s.17,0,.17,0h.13s.34-.2.34-.2l.2-.16.08-.16.17.1.08.13.02.15v.21s.07.17.07.17h.16l.27-.11.3.14.06.1.02.21-.28.49-.03.09-.27.08-.22.2-.39.55-.25.18-.17-.09-.17-.22-.23-.2-.22.28-.11.28-.04.3v.37s.12.2.12.2h.25s.19.09.19.09l-.05.41-.27.41-.48.43-.54.33-.47.1-.07.03-.08.07h-.06s-.04-.22-.04-.22v-.15s0-.17,0-.17l.06-.13.13-.05.3-.08-.13-.16-1.28-.73-.28-.05-.2-.07-.54-.27-.32-.04.08-.25.04-.26v-.57s-.07-.19-.07-.19l-.16.13-.2.24-.19.14.38.9-.31.33-.46.31-.51.14-.49-.15-.14.06-.19-.02-.42-.18-.08.25-.12.19-.18.08-.25-.11-.15.61-.42.04-.45-.28-.24-.37v-.4s.19-.06.19-.06l.25.04.2-.1v-.2s-.22-.13-.22-.13l-.29-.06h-.25s.17-.34.17-.34l.07-.27-.11-.28-.39-.39-.05.58-.12.07h-.1l-.07.03-.08.43-.12.26-.16.23-.17.19-.05.26h-.13s-.2-.26-.2-.26l-.88-.37-.14.37.15.41-.14.29-.3.1-.34-.14.12-.34-.31.17-.32.35.07.19.77.11.42.15.26.23-.25.33-.14.13-.17.05h-.24s-.08.05-.08.05l-.04.09-.14.18.15.1.24.2.02.17-.47-.02-1.54-.6-.81-.2-.77.17.37.1.36.03.34.09.3.29-1.57-.34-.44.08v.13l1.53,1.2.6.21,1.5-.18.55-.22.19-.12.24.11.08.14v.18s-.12.45-.12.45l-.09.09-.1.05-.11.13-.15.45.15.06.24-.14.13-.17.16-.12.34-.03.34.13.16.41.06.1.26.18.06.1.02.37.04.16.07.16-.33.02-.44.23-.24-.11-.23.17-.38.47-.26.25-.14.07-.36.11-.13.08-.05.11-.07.34-.07.13-.2.04-.09-.26-.08-.55-.27-.18-.21.09-.21.21-.25.19.46.15.1.31-.13.38-.53.79-.1.23-.04.25.03.23.06.2v.19s-.09.23-.09.23l-.58-.13-.43.22-.75.81-.48.4-.12.22-.04.34-.08.26-.19.15h-.21s-.14-.22-.14-.22l.16-.58.98-.95.12-.38-.21-.12-.45.25-.08-.19.23-.12.12-.11-.04-.15-.07-.12-.13-.35h-.11l-.13.62-.48.07-.58-.24-.46-.3.07.27.16.17.23.07h.3s-.37.7-.37.7l-.02.35.15.48-.43.41-.42.41-.27.65-.15.64v.52s.25.34.25.34l-.36.36-.12.23-.38.48-.04-.36-.04-.4.27-.39-.04-.65-.03-.35-.11-.35-.18-.34-.2-.26-.26-.19-.35-.12-1.15-.03-.36-.09-.45-.34-.25-.06-.17.26.05.37.32.06.42-.06.34.03.57.71-.17.78-.49.83-.53.23-.95-.36-.25.05-.15.13-.12.16-.17.16-.48.13-.28-.26-.21-.26-.28.13.27.38-.12.29-.25.47.08.63-.15.14-.08.46.28.36-.4.39-.33.19-.06-.35v-.29s.15-.33.15-.33l-.16-.26-.11-.4-.08.15-.3.37.16.23.06.23-.02.2-.61.16-.21.09-1.65,1.23-.29-1.88-.82-.14-1.33.9-.61-.51.43-.39-.45-.07-.81,1.04.2.88-.61.91.42.7-.11.44-1.71,1.88-2.12-.1-1.63-.68-.47-.56-.37.05v.77l.91,1,1.26.09.35-.34.56-.03.33.36.72-.13.52,1.6.51.08-.38.44-1.44-1.2-.7-.09.87.7-.8.54-.45.97-.58-.29-.07-1.13-.76-.15-1.12.24.34.63.68-.42.74.25-1.09,1.21-.21.66.54,1.69-.76.38-.5,1.1-.66-.15-1.44.34-1.66-.93-1.38-.07-.23.18,1.47.29-2.5,2.06-.9.41-.08-.79.6-.49-1.5-.71.83.8-.2.41-1.45.58-.71.6-1.36.19-1.35.91-.4-.96.47.4-.16-.72-1.24-.68-.73.02.12-.35-.35-.15.15-.42.52-.08.17-.55-.7.1-.7.66-1.38.31-.32.52-.51-.24.27-.63-.77-.04-1-.64-.38.26-.44-.13.39.46.68-.21.34.19.2.77-.48.21,1.67.25.97-.51-1.56,1.8-.06.47.58.51.21-.61.42.19-.51.59.24.7h-.72s-1.31-.61-1.31-.61l-1.67.13-.64-.73.22-.26,1.35-.28-.24-.49-.87.46-.61-.46h-1.78s0-.31,0-.31l1.6-.85-.05-1.01-.46.17-.85,1.12-1.33.26.13.68-.87-.5-1.23.29-.87,1.1.2.54-.8.36-.56-.27-.24-.94-.27-.13-.18.32-.99-.36.35.29-.02.49.85.08.73.76-1.18,1.46.31.69-.42.25-.29-.22.12-.59-.38-.2-2.05.23-.19-.37-.11-1.11.3-.45-.22-.74,1.45-1.08-.67-.47-.55.64-1.09-.2-1.06.7-1.36.41.15.57-.9-.07-.28,1.11,1.39-.16.14.21-1.74,1.53.26.24.62-.37,1.36,1.03-1.87,1.15-.56-.29-.1-1.45-1.3-1.22-1.68.17-.18.31-.57-.04-.85.6-1.03-.15-.45.48-1.22.16" vector-effect="none" fill="#850000" fill-rule="evenodd" stroke="#ffd000" stroke-linecap="square" stroke-linejoin="bevel" stroke-width="3"/>
  <path d="M697.08,687.18l-.06.29-.8.3-.12.63-.5.5.25.33.87.2.19-1.66.57,1.8-1.2.16-.97,1.99-1.48-.05,1.38-.31-.25-.26-1.63.77-.68-.1-2.74,2.09-.6.96-.99-.14.89.64-.26,1.29-.43-.58.15.93-.23.15-1.31-.14v-.29l.83-.06.12-.78-.26.39-.25-.26v.26l-.19-.12-.31.36-1.23.04-1.15.6-.73-.43-.91.17-.26,2.29-.5-.36-.63.36,1.26.27-.2.64-.49.39-.44-.77-1.3.67.17.61-1,.13.12-.44-.37-.52.25-.7-.58.58.08.32-.43-.06-.59.39-.25-.21.82-.5-.06-.41-.25.14-.97-.82-4.07-.31-1.02.33-.49-1.37-2.66-.14-3.57-2.2-2.03-.53-.2-.74.31-.93.05-2.15-1.28-2.41.6-1.77-.76-2.94.88-1.02h.37l-.36-1-.77-.15.29-.59-.12-.69.84-.77-.15-.3.32-.64,1.4-.21.5-.64,1.46-.65,1-.9.37.26-.08-.41,1.24-1.55,2.72-.98.65-.54.35-.87.87-.13.89.38-.6-.86.35-.04-.13-.26.38-.26-.63-.13-2.01,1.29.07-1.51,1.5-1.18.12-.55.89-.43.33.55.87.05.8.52.57-.22.39.73,1.13-.52,1,.12-1.12-.5-.08-.43.77-.22-.48-.24-.08-.4,1.26-.78,2.26-.32-.02.99.36-.39,1.28.5.15-.74.35.33v.79s.65-.42.65-.42l.24-.59,1.09-.12.6,1.09-.44.03.7.47.3-.08-.26-.28.41-.29v-.31s.98-.39.98-.39l.77.26.24-.18.49-.6-.63.41h-.86l1.13-.52.5-1.02,1.91.64,1.53-.46.59.59-.16.35.91,1.57-.16-1.06-.48-.61v-1.27l.76.63,1.89.51-.13.26.55.34.25.07.21-.27.56,1.42.32-.33v-.58l-.41-.92-.55-.18-.08-.73.5-.7,1.08-.18.48-.87.6,1.65,1.42,1.21,1.49.25.93-.28.25.32.78,2.41.32,3.2.74.97-1.26.12-1.96,1.89-.53-.32-.21-.73.81-.33-.27-.26-.76.18-.22.21.5.88-.47,1.3-.66.5-.05.51-1.09.26-.52.65.15.89-.67.41-.36,1.53-.76,1.41-1.28.1-.57-.36.51.69.71-.14.16.98.5-1.17-.35,1.76-.83,1.16-.1,1.49" vector-effect="none" fill="#850000" fill-rule="evenodd" stroke="#ffd000" stroke-linecap="square" stroke-linejoin="bevel" stroke-width="3"/>
  <path d="M810.26,295.26c0,3.14-2.5,5.69-5.58,5.69s-5.58-2.55-5.58-5.69,2.49-5.69,5.58-5.69,5.58,2.55,5.58,5.69" vector-effect="non-scaling-stroke" display="none" fill="#b7484b" fill-rule="evenodd" stroke="#232323" stroke-linecap="square" stroke-linejoin="bevel" stroke-width=".24"/>
  <path d="M753.7,291.82c0,3.14-2.5,5.69-5.58,5.69s-5.58-2.55-5.58-5.69,2.5-5.69,5.58-5.69,5.58,2.55,5.58,5.69" vector-effect="non-scaling-stroke" display="none" fill="#b7484b" fill-rule="evenodd" stroke="#232323" stroke-linecap="square" stroke-linejoin="bevel" stroke-width=".24"/>
  <path d="M887.1,455.94c0,3.14-2.49,5.69-5.58,5.69s-5.58-2.55-5.58-5.69,2.5-5.69,5.58-5.69,5.58,2.55,5.58,5.69" vector-effect="non-scaling-stroke" display="none" fill="#b7484b" fill-rule="evenodd" stroke="#232323" stroke-linecap="square" stroke-linejoin="bevel" stroke-width=".24"/>
  <path d="M903.33,457.33c0,3.14-2.5,5.69-5.58,5.69s-5.58-2.54-5.58-5.69,2.5-5.69,5.58-5.69,5.58,2.55,5.58,5.69" vector-effect="non-scaling-stroke" display="none" fill="#b7484b" fill-rule="evenodd" stroke="#232323" stroke-linecap="square" stroke-linejoin="bevel" stroke-width=".24"/>
  <path d="M753.19,608.67c0,3.14-2.5,5.69-5.58,5.69s-5.58-2.54-5.58-5.69,2.49-5.69,5.58-5.69,5.58,2.55,5.58,5.69" vector-effect="non-scaling-stroke" display="none" fill="#b7484b" fill-rule="evenodd" stroke="#232323" stroke-linecap="square" stroke-linejoin="bevel" stroke-width=".24"/>
  <path d="M347.52,486.66c0,3.14-2.5,5.69-5.58,5.69s-5.58-2.54-5.58-5.69,2.49-5.69,5.58-5.69,5.58,2.55,5.58,5.69" vector-effect="non-scaling-stroke" display="none" fill="#b7484b" fill-rule="evenodd" stroke="#232323" stroke-linecap="square" stroke-linejoin="bevel" stroke-width=".24"/>
  <path d="M306.61,494.11c0,3.14-2.5,5.69-5.58,5.69s-5.58-2.55-5.58-5.69,2.5-5.69,5.58-5.69,5.58,2.55,5.58,5.69" vector-effect="non-scaling-stroke" display="none" fill="#b7484b" fill-rule="evenodd" stroke="#232323" stroke-linecap="square" stroke-linejoin="bevel" stroke-width=".24"/>
  <path d="M814.64,287.7c0,3.14-2.5,5.69-5.58,5.69s-5.58-2.55-5.58-5.69,2.5-5.69,5.58-5.69,5.58,2.54,5.58,5.69" vector-effect="non-scaling-stroke" display="none" fill="#b7484b" fill-rule="evenodd" stroke="#232323" stroke-linecap="square" stroke-linejoin="bevel" stroke-width=".24"/>
  <rect x="-228.31" y="-278.47" width="1656.63" height="1193.87" display="none" fill-opacity="0"/>
  <text transform="translate(648.5 603.59) scale(.98 1)" display="none" fill="#ffd000" font-family="Raleway-Regular, Raleway" font-size="17.81" isolation="isolate"><tspan x="0" y="0">Guangzhou</tspan></text>
  <text transform="translate(814.97 282.62) scale(.98 1)" display="none" fill="#ffd000" font-family="Raleway-Regular, Raleway" font-size="17.81" isolation="isolate"><tspan x="0" y="0">Mutianyu</tspan></text>
  <text transform="translate(226.9 489.02) scale(.98 1)" display="none" fill="#ffd000" font-family="Raleway-Regular, Raleway" font-size="17.81" isolation="isolate"><tspan x="0" y="0">Shigatse</tspan></text>
  <text transform="translate(815.2 463.31) scale(.98 1)" display="none" fill="#ffd000" font-family="Raleway-Regular, Raleway" font-size="17.81" isolation="isolate"><tspan x="0" y="0">Suzhou</tspan></text>
  <text transform="translate(683.14 286.98) scale(.98 1)" display="none" fill="#ffd000" font-family="Raleway-Regular, Raleway" font-size="17.81" isolation="isolate"><tspan x="0" y="0">Datong</tspan></text>
  <text transform="translate(763.81 316.01) scale(.98 1)" display="none" fill="#ffd000" font-family="Raleway-Regular, Raleway" font-size="17.81" isolation="isolate"><tspan x="0" y="0">Beijing</tspan></text>
  <text transform="translate(347.61 481.82) scale(.98 1)" display="none" fill="#ffd000" font-family="Raleway-Regular, Raleway" font-size="17.81" isolation="isolate"><tspan x="0" y="0">Lhasa</tspan></text>
  <g display="none">
    <path d="M562.96,474.98h6.84c.58,0,1.06.15,1.44.46.38.31.67.71.87,1.19.19.49.29,1,.29,1.54,0,.63-.13,1.24-.38,1.82s-.6,1.1-1.05,1.56c-.45.46-.96.81-1.54,1.06.63.22,1.13.62,1.47,1.2.35.58.52,1.25.52,2,0,.66-.13,1.29-.4,1.88-.27.59-.64,1.1-1.11,1.54-.48.44-1,.79-1.58,1.04s-1.17.38-1.78.38h-6.86l3.27-15.67ZM566.75,489.63c.45,0,.89-.11,1.32-.32.43-.21.82-.5,1.15-.87.33-.37.6-.78.8-1.24s.3-.92.3-1.39-.08-.9-.25-1.29c-.17-.39-.4-.71-.71-.95s-.68-.36-1.11-.36h-5.89l-1.34,6.42h5.74ZM567.85,482.26c.45,0,.88-.11,1.29-.32.41-.21.78-.5,1.09-.86.32-.36.57-.76.76-1.21.19-.45.28-.92.28-1.4,0-.69-.17-1.28-.52-1.75-.35-.48-.84-.72-1.47-.72h-5.43l-1.3,6.27h5.3Z" fill="#dfb600"/>
    <path d="M571.99,494.67c.59-.1,1.08-.25,1.45-.44.38-.19.72-.47,1.03-.83s.66-.85,1.05-1.46l.78-1.19-2.4-11.56h1.13l2.04,10.37,1.04-1.67c.65-1.06,1.19-1.98,1.63-2.77s.82-1.51,1.14-2.16.58-1.27.79-1.87c.21-.6.41-1.23.59-1.89h1.08c-.19.7-.39,1.36-.62,1.98s-.5,1.26-.82,1.93c-.32.67-.73,1.42-1.21,2.27-.48.84-1.09,1.85-1.81,3l-1.78,2.84c-.51.82-.96,1.5-1.35,2.04-.4.54-.78.97-1.15,1.3s-.75.57-1.15.73c-.4.15-.84.25-1.33.3l-.13-.9Z" fill="#dfb600"/>
    <path d="M595.96,474.98h.95l2.88,15.67h-1.17l-.89-5.16h-6.99l-3.06,5.16h-1.19l9.46-15.67ZM597.57,484.56l-1.42-8.21-4.86,8.21h6.28Z" fill="#dfb600"/>
    <path d="M604.12,479.19h1.02l-.58,2.75c.42-.59.91-1.1,1.47-1.53.56-.43,1.17-.77,1.82-1.02s1.28-.37,1.91-.37c.58,0,1.04.11,1.4.32.35.21.61.52.78.93.17.41.25.91.25,1.5,0,.34-.03.7-.08,1.08-.05.38-.12.79-.21,1.23l-1.36,6.57h-1.08l1.32-6.37c.09-.41.15-.78.18-1.12s.05-.64.05-.92c0-.75-.15-1.3-.44-1.66-.3-.36-.75-.54-1.35-.54s-1.21.15-1.84.46-1.22.73-1.76,1.26c-.54.53-.98,1.14-1.31,1.81l-1.47,7.08h-1.08l2.38-11.45Z" fill="#dfb600"/>
    <path d="M618.02,490.87c-.82,0-1.53-.22-2.13-.67-.6-.45-1.06-1.04-1.39-1.77-.32-.73-.49-1.52-.49-2.37,0-.89.17-1.76.52-2.59.35-.84.81-1.59,1.4-2.25.58-.67,1.25-1.2,2-1.59.75-.4,1.54-.59,2.36-.59.94,0,1.71.26,2.32.79.61.53,1.04,1.16,1.3,1.89l.52-2.51h1.1l-2.08,9.85s-.03.09-.03.13-.01.09-.01.13c0,.22.12.33.37.33l-.22.99c-.09,0-.17,0-.24.02s-.14.01-.19,0c-.26-.01-.46-.09-.58-.24s-.19-.32-.19-.52c0-.07,0-.15.02-.24.01-.09.04-.23.08-.42.04-.2.09-.48.16-.86-.58.76-1.28,1.37-2.11,1.83-.83.45-1.66.68-2.48.68ZM618.41,489.87c.4,0,.83-.08,1.29-.24.46-.16.89-.38,1.32-.67.43-.29.8-.61,1.13-.99.33-.37.56-.76.7-1.17l.78-3.76c-.07-.54-.26-1.04-.56-1.49-.3-.45-.69-.82-1.16-1.11-.47-.29-.99-.43-1.57-.43-.68,0-1.33.18-1.96.53s-1.18.81-1.67,1.38c-.48.57-.87,1.2-1.15,1.9-.28.7-.42,1.4-.42,2.1s.14,1.37.42,1.97c.28.59.67,1.07,1.16,1.44.49.37,1.05.55,1.69.55Z" fill="#dfb600"/>
    <path d="M638.26,490.76c-.91,0-1.71-.18-2.39-.55-.69-.37-1.26-.86-1.73-1.48-.47-.62-.82-1.31-1.06-2.09s-.36-1.56-.36-2.37c0-.88.14-1.77.41-2.66.27-.89.66-1.74,1.17-2.55.5-.81,1.11-1.53,1.82-2.15s1.5-1.12,2.38-1.49c.88-.37,1.83-.55,2.86-.55,1.36,0,2.43.32,3.21.97.79.65,1.3,1.46,1.55,2.45l-.95.49c-.2-.72-.5-1.29-.9-1.72-.4-.43-.86-.72-1.38-.89-.52-.17-1.08-.25-1.67-.25-1.13,0-2.14.25-3.05.75-.91.5-1.69,1.16-2.33,1.96-.64.81-1.14,1.7-1.49,2.68-.35.98-.53,1.95-.53,2.9s.18,1.9.55,2.74c.37.84.89,1.51,1.58,2.02.68.51,1.52.76,2.5.76.58,0,1.18-.11,1.82-.32.64-.21,1.25-.54,1.85-.99.6-.45,1.14-1.03,1.61-1.75l.87.46c-.5.81-1.11,1.49-1.83,2.03-.71.54-1.46.95-2.24,1.21-.78.27-1.54.4-2.27.4Z" fill="#dfb600"/>
    <path d="M650.51,490.87c-.82,0-1.53-.22-2.13-.67-.6-.45-1.06-1.04-1.39-1.77-.32-.73-.49-1.52-.49-2.37,0-.89.17-1.76.52-2.59.35-.84.81-1.59,1.4-2.25.58-.67,1.25-1.2,2-1.59.75-.4,1.54-.59,2.36-.59.94,0,1.71.26,2.32.79.61.53,1.04,1.16,1.3,1.89l.52-2.51h1.1l-2.08,9.85s-.03.09-.03.13-.01.09-.01.13c0,.22.12.33.37.33l-.22.99c-.09,0-.17,0-.24.02s-.14.01-.19,0c-.26-.01-.46-.09-.58-.24s-.19-.32-.19-.52c0-.07,0-.15.02-.24.01-.09.04-.23.08-.42.04-.2.09-.48.16-.86-.58.76-1.28,1.37-2.11,1.83-.83.45-1.66.68-2.48.68ZM650.9,489.87c.4,0,.83-.08,1.29-.24.46-.16.89-.38,1.32-.67.43-.29.8-.61,1.13-.99.33-.37.56-.76.7-1.17l.78-3.76c-.07-.54-.26-1.04-.56-1.49-.3-.45-.69-.82-1.16-1.11-.47-.29-.99-.43-1.57-.43-.68,0-1.33.18-1.96.53s-1.18.81-1.67,1.38c-.48.57-.87,1.2-1.15,1.9-.28.7-.42,1.4-.42,2.1s.14,1.37.42,1.97c.28.59.67,1.07,1.16,1.44.49.37,1.05.55,1.69.55Z" fill="#dfb600"/>
    <path d="M661.36,479.19h1.04l-.61,2.82c.58-.85,1.23-1.52,1.97-2.02.74-.49,1.47-.76,2.21-.8.1-.01.19-.02.28-.01.09,0,.16.01.22.01l-.22.99c-.95.03-1.85.33-2.7.91-.84.58-1.51,1.38-2,2.39l-1.49,7.16h-1.08l2.38-11.45Z" fill="#dfb600"/>
    <path d="M670.34,490.87c-.95,0-1.74-.22-2.37-.65-.63-.43-1.1-1.01-1.42-1.74s-.48-1.52-.48-2.39c0-.98.18-1.9.53-2.76.35-.86.83-1.61,1.44-2.25.61-.64,1.3-1.15,2.09-1.52.79-.37,1.61-.55,2.46-.55.95,0,1.75.22,2.38.66.63.44,1.11,1.02,1.42,1.75s.47,1.53.47,2.41c0,.97-.17,1.88-.52,2.73-.35.85-.82,1.6-1.43,2.25-.61.65-1.3,1.16-2.08,1.52s-1.61.54-2.49.54ZM670.54,489.87c.66,0,1.31-.15,1.93-.44.62-.29,1.18-.71,1.68-1.24.5-.53.89-1.16,1.18-1.87.29-.71.43-1.48.43-2.32,0-.75-.13-1.42-.38-2.02-.25-.6-.62-1.08-1.12-1.44-.49-.36-1.1-.54-1.84-.54-.66,0-1.31.15-1.93.45-.62.3-1.18.72-1.68,1.26s-.89,1.17-1.18,1.89c-.29.72-.43,1.49-.43,2.33,0,.73.12,1.4.37,2,.25.6.62,1.07,1.12,1.42s1.12.52,1.85.52Z" fill="#dfb600"/>
    <path d="M680.06,490.87c-.49,0-.87-.14-1.15-.41-.27-.27-.41-.65-.41-1.12,0-.09,0-.18.02-.28.01-.1.03-.19.04-.28l2.94-14.25h1.08l-2.88,13.92c-.01.07-.03.14-.03.2,0,.06-.01.13-.01.2,0,.67.35,1,1.06,1,.16,0,.35-.02.56-.07.22-.04.42-.1.61-.15v.88c-.25.09-.55.17-.91.24-.36.07-.67.11-.93.11Z" fill="#dfb600"/>
    <path d="M685.87,479.19h1.08l-2.38,11.45h-1.08l2.38-11.45ZM686.84,474.56h1.08l-.41,2.03h-1.08l.41-2.03Z" fill="#dfb600"/>
    <path d="M690.22,479.19h1.02l-.58,2.75c.42-.59.91-1.1,1.47-1.53.56-.43,1.17-.77,1.82-1.02s1.28-.37,1.91-.37c.58,0,1.04.11,1.4.32.35.21.61.52.78.93.17.41.25.91.25,1.5,0,.34-.03.7-.08,1.08-.05.38-.12.79-.21,1.23l-1.36,6.57h-1.08l1.32-6.37c.09-.41.15-.78.18-1.12s.05-.64.05-.92c0-.75-.15-1.3-.44-1.66-.3-.36-.75-.54-1.35-.54s-1.21.15-1.84.46-1.22.73-1.76,1.26c-.54.53-.98,1.14-1.31,1.81l-1.47,7.08h-1.08l2.38-11.45Z" fill="#dfb600"/>
    <path d="M704.12,490.87c-.82,0-1.53-.22-2.13-.67-.6-.45-1.06-1.04-1.39-1.77-.32-.73-.49-1.52-.49-2.37,0-.89.17-1.76.52-2.59.35-.84.81-1.59,1.4-2.25.58-.67,1.25-1.2,2-1.59.75-.4,1.54-.59,2.36-.59.94,0,1.71.26,2.32.79.61.53,1.04,1.16,1.3,1.89l.52-2.51h1.1l-2.08,9.85s-.03.09-.03.13-.01.09-.01.13c0,.22.12.33.37.33l-.22.99c-.09,0-.17,0-.24.02s-.14.01-.19,0c-.26-.01-.46-.09-.58-.24s-.19-.32-.19-.52c0-.07,0-.15.02-.24.01-.09.04-.23.08-.42.04-.2.09-.48.16-.86-.58.76-1.28,1.37-2.11,1.83-.83.45-1.66.68-2.48.68ZM704.51,489.87c.4,0,.83-.08,1.29-.24.46-.16.89-.38,1.32-.67.43-.29.8-.61,1.13-.99.33-.37.56-.76.7-1.17l.78-3.76c-.07-.54-.26-1.04-.56-1.49-.3-.45-.69-.82-1.16-1.11-.47-.29-.99-.43-1.57-.43-.68,0-1.33.18-1.96.53s-1.18.81-1.67,1.38c-.48.57-.87,1.2-1.15,1.9-.28.7-.42,1.4-.42,2.1s.14,1.37.42,1.97c.28.59.67,1.07,1.16,1.44.49.37,1.05.55,1.69.55Z" fill="#dfb600"/>
    <path d="M721.61,474.98h1.1l3.7,11.21,8.4-11.21h1.08l-3.27,15.67h-1.1l2.84-13.55-7.9,10.57h-.69l-3.49-10.57-2.84,13.55h-1.1l3.27-15.67Z" fill="#dfb600"/>
    <path d="M740.64,490.87c-.95,0-1.74-.22-2.37-.65-.63-.43-1.1-1.01-1.42-1.74s-.48-1.52-.48-2.39c0-.98.18-1.9.53-2.76.35-.86.83-1.61,1.44-2.25.61-.64,1.3-1.15,2.09-1.52.79-.37,1.61-.55,2.46-.55.95,0,1.75.22,2.38.66.63.44,1.11,1.02,1.42,1.75s.47,1.53.47,2.41c0,.97-.17,1.88-.52,2.73-.35.85-.82,1.6-1.43,2.25-.61.65-1.3,1.16-2.08,1.52s-1.61.54-2.49.54ZM740.83,489.87c.66,0,1.31-.15,1.93-.44.62-.29,1.18-.71,1.68-1.24.5-.53.89-1.16,1.18-1.87.29-.71.43-1.48.43-2.32,0-.75-.13-1.42-.38-2.02-.25-.6-.62-1.08-1.12-1.44-.49-.36-1.1-.54-1.84-.54-.66,0-1.31.15-1.93.45-.62.3-1.18.72-1.68,1.26s-.89,1.17-1.18,1.89c-.29.72-.43,1.49-.43,2.33,0,.73.12,1.4.37,2,.25.6.62,1.07,1.12,1.42s1.12.52,1.85.52Z" fill="#dfb600"/>
    <path d="M750.77,479.19h1.04l-.61,2.82c.58-.85,1.23-1.52,1.97-2.02.74-.49,1.47-.76,2.21-.8.1-.01.19-.02.28-.01.09,0,.16.01.22.01l-.22.99c-.95.03-1.85.33-2.7.91-.84.58-1.51,1.38-2,2.39l-1.49,7.16h-1.08l2.38-11.45Z" fill="#dfb600"/>
    <path d="M759.89,490.87c-.9,0-1.66-.22-2.31-.66-.64-.44-1.14-1.03-1.48-1.76-.35-.73-.53-1.54-.54-2.42-.01-.89.13-1.76.44-2.59s.76-1.59,1.34-2.25c.58-.67,1.27-1.19,2.06-1.58.79-.39,1.65-.58,2.59-.58.68,0,1.3.12,1.85.35.56.23,1,.58,1.32,1.03.33.45.49,1.03.51,1.74.01,1.16-.46,1.99-1.42,2.48-.96.5-2.44.75-4.43.75-.49,0-1.02-.01-1.6-.03-.58-.02-1.23-.06-1.95-.12l.19-.82c.74.04,1.37.08,1.91.1s1.04.03,1.52.03c1.21,0,2.17-.09,2.86-.27.69-.18,1.19-.45,1.48-.81.3-.36.44-.79.42-1.31,0-.53-.13-.95-.4-1.27-.27-.32-.61-.56-1.03-.71-.42-.15-.87-.23-1.34-.23-.76,0-1.47.17-2.11.52-.64.34-1.2.81-1.67,1.38-.47.58-.83,1.22-1.07,1.92-.25.7-.37,1.41-.37,2.13.01.76.15,1.45.42,2.08.27.62.65,1.12,1.16,1.48.5.37,1.13.55,1.86.55.84,0,1.59-.21,2.27-.63s1.21-.98,1.58-1.69l.93.29c-.32.57-.73,1.08-1.23,1.52s-1.08.78-1.71,1.03c-.64.24-1.32.36-2.06.36Z" fill="#dfb600"/>
    <path d="M769.09,479.19h1.02l-.58,2.75c.42-.59.91-1.1,1.47-1.53.56-.43,1.17-.77,1.82-1.02s1.28-.37,1.91-.37c.58,0,1.04.11,1.4.32.35.21.61.52.78.93.17.41.25.91.25,1.5,0,.34-.03.7-.08,1.08-.05.38-.12.79-.21,1.23l-1.36,6.57h-1.08l1.32-6.37c.09-.41.15-.78.18-1.12s.05-.64.05-.92c0-.75-.15-1.3-.44-1.66-.3-.36-.75-.54-1.35-.54s-1.21.15-1.84.46-1.22.73-1.76,1.26c-.54.53-.98,1.14-1.31,1.81l-1.47,7.08h-1.08l2.38-11.45Z" fill="#dfb600"/>
    <path d="M783.22,490.87c-.95,0-1.74-.22-2.37-.65-.63-.43-1.1-1.01-1.42-1.74s-.48-1.52-.48-2.39c0-.98.18-1.9.53-2.76.35-.86.83-1.61,1.44-2.25.61-.64,1.3-1.15,2.09-1.52.79-.37,1.61-.55,2.46-.55.95,0,1.75.22,2.38.66.63.44,1.11,1.02,1.42,1.75s.47,1.53.47,2.41c0,.97-.17,1.88-.52,2.73-.35.85-.82,1.6-1.43,2.25-.61.65-1.3,1.16-2.08,1.52s-1.61.54-2.49.54ZM783.42,489.87c.66,0,1.31-.15,1.93-.44.62-.29,1.18-.71,1.68-1.24.5-.53.89-1.16,1.18-1.87.29-.71.43-1.48.43-2.32,0-.75-.13-1.42-.38-2.02-.25-.6-.62-1.08-1.12-1.44-.49-.36-1.1-.54-1.84-.54-.66,0-1.31.15-1.93.45-.62.3-1.18.72-1.68,1.26s-.89,1.17-1.18,1.89c-.29.72-.43,1.49-.43,2.33,0,.73.12,1.4.37,2,.25.6.62,1.07,1.12,1.42s1.12.52,1.85.52Z" fill="#dfb600"/>
  </g>
  <text transform="translate(181.64 361.03) scale(.98 1)" display="none" fill="#ffd000" font-family="NinjaKageDemo-Regular, &apos;Ninja Kage Demo&apos;" font-size="56.18" isolation="isolate"><tspan x="0" y="0">China travel journal</tspan></text>
  <rect x="232.66" y="388.83" width="561.53" height="42.11" display="none" fill="#ffd000"/>
  <text transform="translate(241.99 418.06) scale(.98 1)" display="none" font-family="Raleway-Regular, Raleway" font-size="30.1"><tspan x="0" y="0">Costs, expenses and lifelong memories</tspan></text>
</svg>