<?xml version="1.0" encoding="UTF-8"?>
<svg id="Layer_1" xmlns="http://www.w3.org/2000/svg" xmlns:sketch="http://www.bohemiancoding.com/sketch/ns" version="1.1" viewBox="0 0 800 800">
  <!-- Generator: Adobe Illustrator 29.6.1, SVG Export Plug-In . SVG Version: 2.1.1 Build 9)  -->
  <g id="Page-1" sketch:type="MSPage">
    <g id="Icon-Set" sketch:type="MSLayerGroup">
      <path id="airplane" d="M746.35,104.07l-186.3,186.98,112.65,309.87c5.55,17.75,2.1,39.75-5.08,46.93-20.37,20.4-34.9,10.7-42.62,2.15l-180.12-243.35-199.4,200.1,35.9,133.25c-14.18-14.2-96.88-124.95-98.85-126.98-1.33-1.3-110.12-82.4-121.85-94.2l127.77,34.5,203.18-199.52-241.63-178.8c-6.93-6.2-16.05-24.5,2.6-43.23,7.2-7.17,28.95-9.35,46.65-3.78l308.53,111.8,188.83-185.43c13.2-13.2,39.02-11.85,50.6-.27,11.55,11.58,12.35,36.8-.85,49.97h0ZM780.18,20.5c-31.15-31.25-85.9-23.93-117.22,7.47l-159.43,159.05L207.82,76.53c-28.32-7.32-56.85-16.8-91.97,18.42-17.93,17.95-55.18,55.3,0,110.58l202.75,166-131.92,131.65-123.1-30.78c-18.25-4.7-30.55-1.02-39.92,9.33-4.73,5.9-39,31.3-15.1,55.25l143.12,111.35,111.35,143.12c17.3,17.35,33.37,6.53,55.35-14.35,13.93-13.95,10.93-21.13,6.73-41.45l-27.8-122.25,131.02-131.48,165.75,202.8c55.15,55.27,92.42,17.9,110.35,0,35.15-35.25,25.7-63.8,18.37-92.18l-109.57-296.2,158.78-159.33c31.32-31.37,39.35-85.3,8.17-116.52h0Z" sketch:type="MSShapeGroup" fill="#0cb9e4" fill-rule="evenodd"/>
    </g>
  </g>
</svg>