<?xml version="1.0" encoding="UTF-8"?>
<svg id="Layer_1" xmlns="http://www.w3.org/2000/svg" version="1.1" viewBox="0 0 800 800">
  <!-- Generator: Adobe Illustrator 29.6.1, SVG Export Plug-In . SVG Version: 2.1.1 Build 9)  -->
  <path d="M133.33,583.33l-33.33-183.33,300-100,300,100-33.33,183.33M166.67,377.78v-144.44c0-36.82,29.85-66.67,66.67-66.67h333.33c36.82,0,66.67,29.85,66.67,66.67v144.44M333.33,166.67v-66.67c0-18.41,14.92-33.33,33.33-33.33h66.67c18.41,0,33.33,14.92,33.33,33.33v66.67M66.67,700c33.33,33.33,133.33,33.33,200-33.33,66.67,66.67,200,66.67,266.67,0,66.67,66.67,166.67,66.67,200,33.33" fill="none" stroke="#0cb9e4" stroke-linecap="round" stroke-linejoin="round" stroke-width="66.67"/>
</svg>