<?xml version="1.0" encoding="UTF-8"?>
<svg id="Layer_1" xmlns="http://www.w3.org/2000/svg" version="1.1" viewBox="0 0 800 800">
  <!-- Generator: Adobe Illustrator 29.6.1, SVG Export Plug-In . SVG Version: 2.1.1 Build 9)  -->
  <path d="M400,66.67c-125.71,0-188.56,0-227.61,39.05-35.44,35.44-38.72,90.47-39.02,194.28h-33.36c-18.41,0-33.33,14.92-33.33,33.33v33.33c0,10.49,4.94,20.37,13.33,26.67l53.33,40c.3,103.81,3.62,158.84,39.05,194.28,8.07,8.07,17.16,14.48,27.61,19.56v52.83c0,18.41,14.92,33.33,33.33,33.33h50c18.41,0,33.33-14.92,33.33-33.33v-33.95c24.24.62,51.81.62,83.33.62s59.1,0,83.33-.62v33.95c0,18.41,14.92,33.33,33.33,33.33h50c18.41,0,33.33-14.92,33.33-33.33v-52.83c10.45-5.08,19.54-11.48,27.61-19.56,35.44-35.44,38.75-90.47,39.05-194.28l53.33-40c8.39-6.3,13.33-16.17,13.33-26.67v-33.33c0-18.41-14.92-33.33-33.33-33.33h-33.36c-.3-103.81-3.59-158.84-39.02-194.28-39.05-39.05-101.91-39.05-227.61-39.05ZM183.33,316.67c0,47.14,0,70.71,14.64,85.36,14.64,14.64,38.21,14.64,85.36,14.64h233.33c47.14,0,70.71,0,85.36-14.64,14.64-14.65,14.64-38.22,14.64-85.36v-83.33c0-47.14,0-70.71-14.64-85.36-14.65-14.64-38.22-14.64-85.36-14.64h-233.33c-47.14,0-70.71,0-85.36,14.64s-14.64,38.21-14.64,85.36v83.33ZM208.33,533.33c0-13.81,11.19-25,25-25h50c13.81,0,25,11.19,25,25s-11.19,25-25,25h-50c-13.81,0-25-11.19-25-25ZM591.67,533.33c0-13.81-11.19-25-25-25h-50c-13.81,0-25,11.19-25,25s11.19,25,25,25h50c13.81,0,25-11.19,25-25Z" fill="#0cb9e4" fill-rule="evenodd"/>
</svg>