<?xml version="1.0" encoding="UTF-8"?>
<svg id="Layer_1" xmlns="http://www.w3.org/2000/svg" version="1.1" viewBox="0 0 800 800">
  <!-- Generator: Adobe Illustrator 29.6.1, SVG Export Plug-In . SVG Version: 2.1.1 Build 9)  -->
  <path d="M266.67,566.67h266.67M266.67,566.67c0,36.82-29.85,66.67-66.67,66.67s-66.67-29.85-66.67-66.67M266.67,566.67c0-36.82-29.85-66.67-66.67-66.67s-66.67,29.85-66.67,66.67M533.33,566.67c0,36.82,29.85,66.67,66.67,66.67s66.67-29.85,66.67-66.67M533.33,566.67c0-36.82,29.85-66.67,66.67-66.67s66.67,29.85,66.67,66.67M333.33,166.67v200M133.33,366.67l11.05-66.3c7.92-47.5,11.87-71.25,23.73-89.07,10.45-15.71,25.12-28.14,42.34-35.87,19.53-8.76,43.6-8.76,91.76-8.76h112.16c31.31,0,46.96,0,61.17,4.31,12.58,3.82,24.28,10.08,34.44,18.43,11.47,9.43,20.16,22.45,37.52,48.5l85.83,128.75M133.33,566.67h-13.33c-18.67,0-28,0-35.13-3.63-6.27-3.2-11.37-8.29-14.57-14.57-3.63-7.13-3.63-16.46-3.63-35.13v-40c0-37.34,0-56.01,7.27-70.27,6.39-12.54,16.59-22.74,29.13-29.13,14.26-7.27,32.93-7.27,70.27-7.27h400c24.77,0,37.16,0,47.52,1.64,57.05,9.04,101.8,53.78,110.84,110.84,1.64,10.36,1.64,22.75,1.64,47.52,0,6.19,0,9.29-.41,11.88-2.26,14.26-13.45,25.45-27.71,27.71-2.59.41-5.69.41-11.88.41h-26.67" fill="none" stroke="#0cb9e4" stroke-linecap="round" stroke-linejoin="round" stroke-width="66.67"/>
</svg>