<?xml version="1.0" encoding="UTF-8"?>
<svg id="Layer_1" xmlns="http://www.w3.org/2000/svg" version="1.1" viewBox="0 0 800 800">
  <!-- Generator: Adobe Illustrator 29.6.1, SVG Export Plug-In . SVG Version: 2.1.1 Build 9)  -->
  <path d="M189,679.04l135.35-164.13,61.91,78.97-119.34,151.76c-45.7,58.07-130.27-3.13-77.93-66.6h0ZM347.07,305.27c12.89-42.06,6.97-77.99-41.47-131.38L187.24,31.51c-16.8-19.73-56.38,9.24-39.84,33.14l94.66,116.6c17.9,21.74-15.36,50.52-33.85,28.12l-97.92-120.57c-18.23-20.9-55.92,6.71-36.85,30.6,27.6,33.2,70.31,87.43,97.92,120.64,19.14,19.47-9.96,48.31-28.84,24.02l-97.2-119.79c-14.26-15.49-37.57-5.86-43.75,12.24-6.64,19.34,9.7,33.46,20.83,47.79l108.46,140.1c33.66,39,71.29,62.11,115.04,49.02,6.71-2.02,14.91-6.12,23.7-11.52l291.41,376.17c15.69,20.25,45.96,22.4,65.63,6.05l4.49-3.71c22.14-18.42,25.72-52.08,6.77-73.83l-308.59-354.56c8.98-10.03,15.56-19.53,17.77-26.76h0ZM429.56,387.3l47.98-58.2c-61.72-152.99,166.99-356.9,277.86-263.15,134.7,114-65.49,388.74-206.18,320.83l-56.84,72.2-62.83-71.68h0Z" fill="#c93333"/>
</svg>