<?xml version="1.0" encoding="UTF-8"?>
<svg id="Layer_1" xmlns="http://www.w3.org/2000/svg" version="1.1" viewBox="0 0 800 800">
  <!-- Generator: Adobe Illustrator 29.6.1, SVG Export Plug-In . SVG Version: 2.1.1 Build 9)  -->
  <g id="Layer_2">
    <path d="M700,266.67c0-73.33-60-133.33-133.33-133.33H233.33c-73.33,0-133.33,60-133.33,133.33v126.67c-20,16.67-33.33,43.33-33.33,73.33v166.67c0,20,13.33,33.33,33.33,33.33s33.33-13.33,33.33-33.33v-33.33h533.33v33.33c0,20,13.33,33.33,33.33,33.33s33.33-13.33,33.33-33.33v-166.67c0-30-13.33-56.67-33.33-73.33v-126.67ZM166.67,266.67c0-36.67,30-66.67,66.67-66.67h333.33c36.67,0,66.67,30,66.67,66.67v100h-33.33v-33.33c0-56.67-43.33-100-100-100h-33.33c-26.67,0-50,10-66.67,26.67-16.67-16.67-40-26.67-66.67-26.67h-33.33c-56.67,0-100,43.33-100,100v33.33h-33.33v-100ZM533.33,333.33v33.33h-100v-33.33c0-20,13.33-33.33,33.33-33.33h33.33c20,0,33.33,13.33,33.33,33.33ZM366.67,333.33v33.33h-100v-33.33c0-20,13.33-33.33,33.33-33.33h33.33c20,0,33.33,13.33,33.33,33.33ZM666.67,533.33H133.33v-66.67c0-20,13.33-33.33,33.33-33.33h466.67c20,0,33.33,13.33,33.33,33.33v66.67Z" fill="#dcb401"/>
  </g>
</svg>