<?xml version="1.0" encoding="UTF-8"?>
<svg id="Layer_1" xmlns="http://www.w3.org/2000/svg" version="1.1" viewBox="0 0 800 800">
  <!-- Generator: Adobe Illustrator 29.6.1, SVG Export Plug-In . SVG Version: 2.1.1 Build 9)  -->
  <path d="M767.9,375.52v398.57h-93.16v-61.59H125.26v61.59H32.1v-398.57H0v-61.26h78.39l43.68-135.94c12.89-40.04,34.38-76.43,76.43-76.43h96.22v-53.91c0-24.15-5.01-22.07,17.71-22.07h177.93c19.01,0,14.91-1.82,14.91,18.42v57.49h112.5c42.06,0,66.28,35.68,76.43,76.43l33.79,135.94h72.01v61.26h-32.1v.07ZM260.48,589.52h275.2v64.91h-275.2v-64.91h0ZM63.28,438.35c70.12,2.21,113.02,31.64,124.02,92.84H63.28v-92.84h0ZM727.86,438.35c-70.12,2.21-113.02,31.64-124.02,92.84h124.02v-92.84h0ZM111.85,314.19h576.3l-24.67-114c-6.77-31.25-26.24-58.27-58.27-58.27H206.64c-32.03,0-48.44,27.73-58.27,58.27l-36.52,114h0Z" fill="#0cb9e4" fill-rule="evenodd"/>
</svg>