<?xml version="1.0" encoding="UTF-8"?>
<svg id="Layer_1" xmlns="http://www.w3.org/2000/svg" version="1.1" viewBox="0 0 800 800">
  <!-- Generator: Adobe Illustrator 29.6.1, SVG Export Plug-In . SVG Version: 2.1.1 Build 9)  -->
  <path d="M66.67,33.33c-18.41,0-33.33,14.92-33.33,33.33s14.92,33.33,33.33,33.33h40.64l118.81,475.23c-35.02,15.56-59.45,50.64-59.45,91.44,0,55.23,44.77,100,100,100s100-44.77,100-100c0-11.69-2.01-22.91-5.69-33.33h144.71c-3.68,10.43-5.69,21.65-5.69,33.33,0,55.23,44.77,100,100,100s100-44.77,100-100-44.77-100-100-100h-307.31l-16.67-66.67h323.97c68.81,0,110.06-43.47,132.96-91.47,22.37-46.91,30.16-102.97,32.88-143.74,3.78-56.78-43.16-98.12-95.13-98.12H192.69l-20.71-82.84c-7.42-29.68-34.09-50.5-64.68-50.5h-40.64ZM600,433.33h-340.64l-50-200h461.34c18.44,0,29.51,13.56,28.61,27.03-2.53,38.05-9.63,84.03-26.53,119.47-16.38,34.34-38.78,53.5-72.79,53.5ZM600,699.79c-18.3,0-33.13-14.83-33.13-33.13s14.83-33.13,33.13-33.13,33.13,14.83,33.13,33.13-14.83,33.13-33.13,33.13ZM233.54,666.67c0,18.3,14.83,33.13,33.13,33.13s33.13-14.83,33.13-33.13-14.83-33.13-33.13-33.13-33.13,14.83-33.13,33.13Z" fill="#058896" fill-rule="evenodd"/>
</svg>