<?xml version="1.0" encoding="UTF-8"?>
<svg id="Layer_1" xmlns="http://www.w3.org/2000/svg" baseProfile="tiny" version="1.2" viewBox="0 0 800 800">
  <!-- Generator: Adobe Illustrator 29.6.1, SVG Export Plug-In . SVG Version: 2.1.1 Build 9)  -->
  <path d="M800,800l-.24-400.94C799.76,178.56,620.78-.08,400.29-.08S.82,178.69.82,399.2l3.22,401.36,91.97-.22v-401.12c0-171.86,132.19-311.15,304-311.15s304,139.31,304,311.17v400.77h96,0ZM531.15,654.82l-1.47-2.69.77-.99.7-.99c13.76-5.68,26.26-12.64,37.42-20.96,11.17-8.35,17.7-20.58,21.57-36.74.43-1.87,1.86-6.22,1.86-12.86V245.94c0-8.05-1.42-16.4-6.19-24.9-4.74-8.64-10.19-16.37-17.44-23.23-7.02-6.8-14.74-11.54-23.55-16.1-8.8-4.51-17.02-5.71-25.14-5.71h-238.75c-7.62,0-15.81,1.07-24.64,5.36-8.82,4.27-16.93,9.23-24.26,15.92-7.34,6.61-12.77,13.84-17.54,22.11-4.7,8.43-6.5,16.29-6.5,24.45v338.62c0,5.65.86,11.65,3.65,17.76,2.86,6.22,6.1,12.03,10.37,17.41,4.29,5.57,8.78,10.58,13.79,15.06,4.99,4.51,9.73,8.19,14.53,11.01,2.32.98,6.45,2.46,12.43,4.34,5.9,1.9,8.62,3.04,8.18,3.94l-97.68,148.03h56.98l71.33-96h196.83l71.23,96h57.7l-96.18-145.18h0ZM320,208c0-8.8,7.2-16,16-16h128c8.8,0,16,7.2,16,16v16c0,8.8-7.2,16-16,16h-128c-8.8,0-16-7.2-16-16v-16ZM257.02,286.16c2.13-4.51,3.79-8.61,7.1-12.46,3.38-3.81,6.75-9.28,11.25-11.66,4.5-2.4,8.64-6.03,13.39-6.03h221.71c4.27,0,8.51,3.44,12.82,5.25,4.29,1.92,8.19,5.81,11.79,9.1,3.55,3.31,4.96,7.55,7.17,11.34,2.1,3.71,1.74,8.42,1.74,12.69v75.58c0,4.32.21,8.34-2.13,12.4-2.37,4.16-4.77,7.74-8.61,10.83-3.82,3.02-7.46,3.81-11.73,5.65-4.29,2.02-8.22,1.15-12.45,1.15h-218.9c-.53,0-1.71,1.49-3.6,1.1l-4.32-.62c-8.05-1.41-12.99-5.26-19.2-12.4-6.16-7.18-7.07-14.51-7.07-23.09v-64.86c0-4.75-1.09-9.42,1.02-13.97h0ZM317.62,594.56c-7.34,7.6-16.54,11.39-27.42,11.39s-19.86-3.79-26.77-11.39c-6.91-7.58-10.34-16.93-10.34-27.82,0-9.98,3.6-18.64,10.7-25.98,7.12-7.39,15.94-11.09,26.4-11.09s20.06,3.5,27.42,10.29c7.38,7.01,11.07,16.03,11.07,27.54,0,10.46-3.7,19.5-11.07,27.07h0ZM480.86,594.56c-7.33-7.58-11.02-16.93-11.02-27.82s3.89-19.79,11.74-26.8c7.89-6.78,17.01-10.29,27.52-10.29s19.78,3.7,26.66,11.09c6.93,7.34,10.38,16,10.38,25.98,0,10.91-3.54,20.26-10.74,27.82-7.1,7.6-16.14,11.39-27.09,11.39-10.93.02-20.05-3.78-27.46-11.38h0Z" fill="#0cb9e4"/>
</svg>