<?xml version="1.0" encoding="UTF-8"?>
<svg id="Layer_1" xmlns="http://www.w3.org/2000/svg" version="1.1" viewBox="0 0 800 800">
  <!-- Generator: Adobe Illustrator 29.6.1, SVG Export Plug-In . SVG Version: 2.1.1 Build 9)  -->
  <rect width="800" height="800" fill="none"/>
  <path d="M800,255.2l-40.4,112.8v-.4c-20.8-7.6-41.2-6.4-61.2,3.2s-34,24.8-41.6,45.6-6.4,41.2,2.8,61.2c9.6,20,24.8,33.6,46,41.2v.4l-40.4,112.8L62.8,416.8l39.6-111.6c20.8,7.6,41.2,6.4,61.2-3.2,20-9.2,33.6-24.4,41.2-45.2s6.4-41.2-3.2-61.2c-9.2-19.6-24.4-33.2-45.2-40.8l40.8-114.8,602.8,215.2ZM601.2,482.8l54.8-150.4c4.8-12.4,4-26-1.6-38s-15.6-21.2-28-26l-300.8-109.2c-25.6-9.2-54.8,4.8-64,29.6l-54.8,150.4c-9.6,26,4,54.8,29.6,64l300.8,109.6c5.6,2,11.2,3.2,17.2,3.2,20.8,0,40-13.2,46.8-33.2ZM318.8,178l300.4,109.2c7.6,2.8,13.6,8.4,17.2,15.6,3.2,7.2,3.6,15.2.8,22.8l-54.8,150.4c-5.2,15.2-23.2,23.6-38.4,18l-300.4-109.6c-15.6-5.6-23.6-22.8-18-38.4l54.8-150.4c4-11.6,15.6-19.6,28-19.6,3.6,0,6.8.8,10.4,2h0ZM591.6,663.6c14,10.8,30,16.4,48,16.4h.4v120H0v-118.4c22,0,41.2-8,56.4-23.6,15.6-15.2,23.6-34.4,23.6-56.4s-8-40.8-23.6-56.4S22,521.6,0,521.6v-121.6h42l-11.2,32,114.8,40.8c-20.4,6.4-35.6,24.8-35.6,47.2v160c0,27.6,22.4,50,50,50h320c27.6,0,50-22.4,50-50v-70l33.2,12c4.8,17.2,14.4,31.2,28.4,41.6ZM130,680v-160c0-16.4,13.6-30,30-30h33.2l316.8,113.2v76.8c0,16.4-13.6,30-30,30H160c-16.4,0-30-13.6-30-30Z" fill="#036"/>
</svg>