<?xml version="1.0" encoding="UTF-8"?>
<svg id="meteor-icon-kit__solid-guide" xmlns="http://www.w3.org/2000/svg" version="1.1" viewBox="0 0 800 800">
  <!-- Generator: Adobe Illustrator 29.6.1, SVG Export Plug-In . SVG Version: 2.1.1 Build 9)  -->
  <path d="M566.67,66.67c-18.41,0-33.33,14.92-33.33,33.33v600c0,18.41,14.92,33.33,33.33,33.33s33.33-14.92,33.33-33.33v-340.64l174.75-43.69c14.84-3.71,25.25-17.04,25.25-32.34V100c0-18.41-14.92-33.33-33.33-33.33h-200Z" fill="gray" fill-rule="evenodd"/>
  <path d="M233.33,433.33c73.64,0,133.33-59.7,133.33-133.33s-59.7-133.33-133.33-133.33-133.33,59.7-133.33,133.33,59.7,133.33,133.33,133.33Z" fill="gray" fill-rule="evenodd"/>
  <path d="M33.33,733.33c-18.41,0-33.33-14.92-33.33-33.33v-66.67c0-92.05,74.62-166.67,166.67-166.67h133.33c92.05,0,166.67,74.62,166.67,166.67v66.67c0,18.41-14.92,33.33-33.33,33.33H33.33Z" fill="gray"/>
</svg>