<?xml version="1.0" encoding="UTF-8"?>
<svg id="Icons" xmlns="http://www.w3.org/2000/svg" viewBox="0 0 800.2 375">
  <defs>
    <style>
      .cls-1 {
        fill: #0cb9e4;
      }
    </style>
  </defs>
  <path class="cls-1" d="M50,275h667.5c27.5,0,52.5-12.5,67.5-35,15-22.5,20-47.5,10-72.5C760,67.5,665,0,555,0H50c-15,0-25,10-25,25v225c0,15,10,25,25,25ZM375,125V50h100v75h-100ZM325,125h-100V50h100v75ZM715,125h-190V50h32.5c62.5,0,120,27.5,157.5,75ZM175,50v75h-100V50h100Z"/>
  <path class="cls-1" d="M775,325H25c-15,0-25,10-25,25s10,25,25,25h750c15,0,25-10,25-25s-10-25-25-25Z"/>
</svg>